<svg width="25" height="24" viewBox="0 0 25 24" fill="none" xmlns="http://www.w3.org/2000/svg">
<path d="M12.0779 2C7.38788 2 3.57788 5.81 3.57788 10.5C3.57788 15.19 7.38788 19 12.0779 19H12.5779V22C17.4379 19.66 20.5779 15 20.5779 10.5C20.5779 5.81 16.7679 2 12.0779 2ZM13.0779 16.5H11.0779V14.5H13.0779V16.5ZM13.0779 13H11.0779C11.0779 9.75 14.0779 10 14.0779 8C14.0779 6.9 13.1779 6 12.0779 6C10.9779 6 10.0779 6.9 10.0779 8H8.07788C8.07788 5.79 9.86788 4 12.0779 4C14.2879 4 16.0779 5.79 16.0779 8C16.0779 10.5 13.0779 10.75 13.0779 13Z" />
</svg>
