<svg width="391" height="240" viewBox="0 0 391 240" fill="none" xmlns="http://www.w3.org/2000/svg">
<rect width="390" height="240" transform="translate(0.5)" fill="black"/>
<path d="M66.207 120.977C66.207 120.634 66.1543 120.327 66.0488 120.054C65.9521 119.773 65.7676 119.518 65.4951 119.29C65.2227 119.052 64.8403 118.819 64.3481 118.591C63.856 118.362 63.2188 118.125 62.4365 117.879C61.5664 117.598 60.7402 117.281 59.958 116.93C59.1846 116.578 58.499 116.169 57.9014 115.704C57.3125 115.229 56.8467 114.68 56.5039 114.056C56.1699 113.432 56.0029 112.707 56.0029 111.88C56.0029 111.081 56.1787 110.355 56.5303 109.705C56.8818 109.046 57.374 108.483 58.0068 108.018C58.6396 107.543 59.3867 107.178 60.248 106.923C61.1182 106.668 62.0718 106.541 63.1089 106.541C64.5239 106.541 65.7588 106.796 66.8135 107.306C67.8682 107.815 68.6855 108.514 69.2656 109.402C69.8545 110.29 70.1489 111.305 70.1489 112.447H66.2202C66.2202 111.885 66.1016 111.393 65.8643 110.971C65.6357 110.54 65.2842 110.202 64.8096 109.956C64.3438 109.709 63.7549 109.586 63.043 109.586C62.3574 109.586 61.7861 109.692 61.3291 109.903C60.8721 110.105 60.5293 110.382 60.3008 110.733C60.0723 111.076 59.958 111.463 59.958 111.894C59.958 112.219 60.0371 112.513 60.1953 112.777C60.3623 113.041 60.6084 113.287 60.9336 113.515C61.2588 113.744 61.6587 113.959 62.1333 114.161C62.6079 114.363 63.1572 114.561 63.7812 114.754C64.8271 115.071 65.7456 115.427 66.5366 115.822C67.3364 116.218 68.0044 116.662 68.5405 117.154C69.0767 117.646 69.481 118.204 69.7534 118.828C70.0259 119.452 70.1621 120.16 70.1621 120.951C70.1621 121.786 69.9995 122.533 69.6743 123.192C69.3491 123.851 68.8789 124.409 68.2637 124.866C67.6484 125.323 66.9146 125.67 66.062 125.908C65.2095 126.145 64.2559 126.264 63.2012 126.264C62.252 126.264 61.3159 126.141 60.3931 125.895C59.4702 125.64 58.6309 125.257 57.875 124.748C57.1279 124.238 56.5303 123.587 56.082 122.796C55.6338 122.005 55.4097 121.069 55.4097 119.988H59.3779C59.3779 120.586 59.4702 121.091 59.6548 121.504C59.8394 121.917 60.0986 122.251 60.4326 122.506C60.7754 122.761 61.1797 122.946 61.6455 123.06C62.1201 123.174 62.6387 123.231 63.2012 123.231C63.8867 123.231 64.4492 123.135 64.8887 122.941C65.3369 122.748 65.6665 122.48 65.8774 122.137C66.0972 121.794 66.207 121.408 66.207 120.977ZM76.8588 105.75V126H73.062V105.75H76.8588ZM76.3183 118.367H75.2768C75.2856 117.374 75.4174 116.459 75.6723 115.625C75.9272 114.781 76.292 114.051 76.7666 113.436C77.2412 112.812 77.8081 112.329 78.4672 111.986C79.1352 111.643 79.8735 111.472 80.6821 111.472C81.3852 111.472 82.0224 111.573 82.5937 111.775C83.1738 111.968 83.6704 112.285 84.0835 112.724C84.5053 113.155 84.8305 113.722 85.059 114.425C85.2876 115.128 85.4018 115.98 85.4018 116.982V126H81.5786V116.956C81.5786 116.323 81.4863 115.827 81.3017 115.466C81.1259 115.097 80.8667 114.838 80.5239 114.688C80.1899 114.53 79.7768 114.451 79.2846 114.451C78.7397 114.451 78.2739 114.552 77.8872 114.754C77.5092 114.957 77.206 115.238 76.9775 115.598C76.749 115.95 76.582 116.363 76.4765 116.837C76.3711 117.312 76.3183 117.822 76.3183 118.367ZM96.5282 122.783V116.429C96.5282 115.972 96.4535 115.581 96.3041 115.255C96.1547 114.921 95.9218 114.662 95.6054 114.478C95.2978 114.293 94.8979 114.201 94.4057 114.201C93.9838 114.201 93.6191 114.275 93.3114 114.425C93.0038 114.565 92.7665 114.772 92.5995 115.044C92.4325 115.308 92.349 115.62 92.349 115.98H88.5522C88.5522 115.374 88.6928 114.798 88.974 114.253C89.2553 113.708 89.664 113.229 90.2001 112.816C90.7363 112.395 91.3735 112.065 92.1117 111.828C92.8588 111.59 93.6938 111.472 94.6166 111.472C95.724 111.472 96.7084 111.656 97.5697 112.025C98.4311 112.395 99.1078 112.948 99.6 113.687C100.101 114.425 100.351 115.348 100.351 116.455V122.559C100.351 123.341 100.4 123.983 100.497 124.484C100.593 124.976 100.734 125.407 100.918 125.776V126H97.082C96.8974 125.613 96.7568 125.13 96.6601 124.55C96.5722 123.961 96.5282 123.372 96.5282 122.783ZM97.0292 117.312L97.0556 119.461H94.933C94.4321 119.461 93.997 119.518 93.6279 119.632C93.2587 119.747 92.9555 119.909 92.7182 120.12C92.4809 120.322 92.3051 120.56 92.1908 120.832C92.0854 121.104 92.0326 121.403 92.0326 121.729C92.0326 122.054 92.1073 122.348 92.2568 122.612C92.4062 122.867 92.6215 123.069 92.9028 123.218C93.184 123.359 93.5136 123.429 93.8915 123.429C94.4628 123.429 94.9594 123.315 95.3813 123.086C95.8031 122.858 96.1283 122.577 96.3569 122.243C96.5942 121.909 96.7172 121.592 96.726 121.293L97.728 122.902C97.5873 123.262 97.394 123.636 97.1479 124.022C96.9106 124.409 96.6073 124.774 96.2382 125.117C95.8691 125.451 95.4252 125.728 94.9067 125.947C94.3881 126.158 93.7729 126.264 93.061 126.264C92.1557 126.264 91.3339 126.083 90.5956 125.723C89.8661 125.354 89.2861 124.849 88.8554 124.207C88.4335 123.557 88.2226 122.818 88.2226 121.992C88.2226 121.245 88.3632 120.582 88.6445 120.001C88.9257 119.421 89.3388 118.934 89.8837 118.538C90.4374 118.134 91.1274 117.831 91.9535 117.628C92.7797 117.417 93.7377 117.312 94.8276 117.312H97.0292ZM107.615 114.847V126H103.818V111.735H107.391L107.615 114.847ZM111.913 111.643L111.847 115.163C111.662 115.137 111.438 115.115 111.175 115.097C110.92 115.071 110.687 115.058 110.476 115.058C109.94 115.058 109.474 115.128 109.078 115.269C108.692 115.4 108.367 115.598 108.103 115.862C107.848 116.125 107.655 116.446 107.523 116.824C107.4 117.202 107.329 117.633 107.312 118.116L106.547 117.879C106.547 116.956 106.64 116.108 106.824 115.334C107.009 114.552 107.277 113.871 107.628 113.291C107.989 112.711 108.428 112.263 108.947 111.946C109.465 111.63 110.058 111.472 110.726 111.472C110.937 111.472 111.153 111.489 111.372 111.524C111.592 111.551 111.772 111.59 111.913 111.643ZM120.548 126.264C119.44 126.264 118.447 126.088 117.568 125.736C116.689 125.376 115.942 124.879 115.327 124.247C114.721 123.614 114.255 122.88 113.93 122.045C113.604 121.201 113.442 120.305 113.442 119.355V118.828C113.442 117.747 113.596 116.758 113.903 115.862C114.211 114.965 114.65 114.188 115.222 113.528C115.802 112.869 116.505 112.364 117.331 112.012C118.157 111.652 119.089 111.472 120.126 111.472C121.137 111.472 122.033 111.639 122.815 111.973C123.597 112.307 124.252 112.781 124.78 113.396C125.316 114.012 125.72 114.75 125.993 115.611C126.265 116.464 126.401 117.413 126.401 118.459V120.041H115.063V117.51H122.67V117.22C122.67 116.692 122.574 116.222 122.38 115.809C122.196 115.387 121.914 115.053 121.536 114.807C121.159 114.561 120.675 114.438 120.086 114.438C119.585 114.438 119.155 114.548 118.794 114.768C118.434 114.987 118.139 115.295 117.911 115.69C117.691 116.086 117.524 116.552 117.41 117.088C117.305 117.615 117.252 118.195 117.252 118.828V119.355C117.252 119.927 117.331 120.454 117.489 120.938C117.656 121.421 117.889 121.838 118.188 122.19C118.495 122.542 118.865 122.814 119.295 123.007C119.735 123.201 120.231 123.297 120.785 123.297C121.471 123.297 122.108 123.166 122.697 122.902C123.294 122.629 123.808 122.221 124.239 121.676L126.085 123.68C125.786 124.11 125.377 124.523 124.859 124.919C124.349 125.314 123.734 125.64 123.013 125.895C122.292 126.141 121.471 126.264 120.548 126.264ZM144.066 122.783V116.429C144.066 115.972 143.991 115.581 143.842 115.255C143.693 114.921 143.46 114.662 143.143 114.478C142.836 114.293 142.436 114.201 141.944 114.201C141.522 114.201 141.157 114.275 140.849 114.425C140.542 114.565 140.304 114.772 140.137 115.044C139.97 115.308 139.887 115.62 139.887 115.98H136.09C136.09 115.374 136.231 114.798 136.512 114.253C136.793 113.708 137.202 113.229 137.738 112.816C138.274 112.395 138.911 112.065 139.65 111.828C140.397 111.59 141.232 111.472 142.155 111.472C143.262 111.472 144.246 111.656 145.108 112.025C145.969 112.395 146.646 112.948 147.138 113.687C147.639 114.425 147.889 115.348 147.889 116.455V122.559C147.889 123.341 147.938 123.983 148.034 124.484C148.131 124.976 148.272 125.407 148.456 125.776V126H144.62C144.435 125.613 144.295 125.13 144.198 124.55C144.11 123.961 144.066 123.372 144.066 122.783ZM144.567 117.312L144.594 119.461H142.471C141.97 119.461 141.535 119.518 141.166 119.632C140.797 119.747 140.493 119.909 140.256 120.12C140.019 120.322 139.843 120.56 139.729 120.832C139.623 121.104 139.571 121.403 139.571 121.729C139.571 122.054 139.645 122.348 139.795 122.612C139.944 122.867 140.159 123.069 140.441 123.218C140.722 123.359 141.052 123.429 141.429 123.429C142.001 123.429 142.497 123.315 142.919 123.086C143.341 122.858 143.666 122.577 143.895 122.243C144.132 121.909 144.255 121.592 144.264 121.293L145.266 122.902C145.125 123.262 144.932 123.636 144.686 124.022C144.448 124.409 144.145 124.774 143.776 125.117C143.407 125.451 142.963 125.728 142.445 125.947C141.926 126.158 141.311 126.264 140.599 126.264C139.694 126.264 138.872 126.083 138.134 125.723C137.404 125.354 136.824 124.849 136.393 124.207C135.971 123.557 135.761 122.818 135.761 121.992C135.761 121.245 135.901 120.582 136.182 120.001C136.464 119.421 136.877 118.934 137.422 118.538C137.975 118.134 138.665 117.831 139.491 117.628C140.318 117.417 141.276 117.312 142.365 117.312H144.567ZM155.074 114.781V126H151.277V111.735H154.837L155.074 114.781ZM154.52 118.367H153.492C153.492 117.312 153.628 116.363 153.901 115.519C154.173 114.667 154.555 113.941 155.048 113.344C155.54 112.737 156.124 112.276 156.801 111.959C157.487 111.634 158.251 111.472 159.095 111.472C159.763 111.472 160.374 111.568 160.927 111.762C161.481 111.955 161.956 112.263 162.351 112.685C162.756 113.106 163.063 113.665 163.274 114.359C163.494 115.053 163.604 115.901 163.604 116.903V126H159.78V116.89C159.78 116.257 159.693 115.765 159.517 115.414C159.341 115.062 159.082 114.816 158.739 114.675C158.405 114.526 157.992 114.451 157.5 114.451C156.99 114.451 156.546 114.552 156.168 114.754C155.799 114.957 155.491 115.238 155.245 115.598C155.008 115.95 154.828 116.363 154.705 116.837C154.582 117.312 154.52 117.822 154.52 118.367ZM171.263 124.392L175.047 111.735H179.12L173.385 128.149C173.262 128.509 173.095 128.896 172.884 129.309C172.682 129.722 172.405 130.113 172.054 130.482C171.711 130.86 171.276 131.168 170.749 131.405C170.23 131.643 169.593 131.761 168.837 131.761C168.477 131.761 168.182 131.739 167.954 131.695C167.725 131.651 167.453 131.59 167.136 131.511V128.729C167.233 128.729 167.334 128.729 167.44 128.729C167.545 128.738 167.646 128.742 167.743 128.742C168.244 128.742 168.653 128.685 168.969 128.571C169.285 128.457 169.54 128.281 169.734 128.043C169.927 127.815 170.081 127.516 170.195 127.147L171.263 124.392ZM169.681 111.735L172.779 122.071L173.32 126.092L170.736 126.369L165.607 111.735H169.681ZM188.164 111.735V114.425H179.858V111.735H188.164ZM181.915 108.215H185.712V121.702C185.712 122.115 185.764 122.432 185.87 122.651C185.984 122.871 186.151 123.025 186.371 123.113C186.59 123.192 186.867 123.231 187.201 123.231C187.439 123.231 187.65 123.223 187.834 123.205C188.027 123.179 188.19 123.152 188.322 123.126L188.335 125.921C188.01 126.026 187.658 126.11 187.28 126.171C186.902 126.233 186.485 126.264 186.028 126.264C185.193 126.264 184.464 126.127 183.839 125.855C183.224 125.574 182.75 125.125 182.416 124.51C182.082 123.895 181.915 123.086 181.915 122.084V108.215ZM194.57 105.75V126H190.774V105.75H194.57ZM194.03 118.367H192.988C192.997 117.374 193.129 116.459 193.384 115.625C193.639 114.781 194.004 114.051 194.478 113.436C194.953 112.812 195.52 112.329 196.179 111.986C196.847 111.643 197.585 111.472 198.394 111.472C199.097 111.472 199.734 111.573 200.305 111.775C200.885 111.968 201.382 112.285 201.795 112.724C202.217 113.155 202.542 113.722 202.771 114.425C202.999 115.128 203.113 115.98 203.113 116.982V126H199.29V116.956C199.29 116.323 199.198 115.827 199.013 115.466C198.837 115.097 198.578 114.838 198.235 114.688C197.901 114.53 197.488 114.451 196.996 114.451C196.451 114.451 195.985 114.552 195.599 114.754C195.221 114.957 194.918 115.238 194.689 115.598C194.461 115.95 194.294 116.363 194.188 116.837C194.083 117.312 194.03 117.822 194.03 118.367ZM210.548 111.735V126H206.738V111.735H210.548ZM206.501 108.018C206.501 107.464 206.694 107.007 207.081 106.646C207.468 106.286 207.986 106.106 208.637 106.106C209.278 106.106 209.793 106.286 210.179 106.646C210.575 107.007 210.773 107.464 210.773 108.018C210.773 108.571 210.575 109.028 210.179 109.389C209.793 109.749 209.278 109.929 208.637 109.929C207.986 109.929 207.468 109.749 207.081 109.389C206.694 109.028 206.501 108.571 206.501 108.018ZM217.944 114.781V126H214.147V111.735H217.707L217.944 114.781ZM217.39 118.367H216.362C216.362 117.312 216.498 116.363 216.771 115.519C217.043 114.667 217.425 113.941 217.917 113.344C218.41 112.737 218.994 112.276 219.671 111.959C220.356 111.634 221.121 111.472 221.965 111.472C222.633 111.472 223.244 111.568 223.797 111.762C224.351 111.955 224.826 112.263 225.221 112.685C225.626 113.106 225.933 113.665 226.144 114.359C226.364 115.053 226.474 115.901 226.474 116.903V126H222.65V116.89C222.65 116.257 222.563 115.765 222.387 115.414C222.211 115.062 221.952 114.816 221.609 114.675C221.275 114.526 220.862 114.451 220.37 114.451C219.86 114.451 219.416 114.552 219.038 114.754C218.669 114.957 218.361 115.238 218.115 115.598C217.878 115.95 217.698 116.363 217.575 116.837C217.452 117.312 217.39 117.822 217.39 118.367ZM238.932 111.735H242.373V125.525C242.373 126.826 242.083 127.929 241.502 128.834C240.931 129.749 240.131 130.438 239.103 130.904C238.075 131.379 236.879 131.616 235.517 131.616C234.919 131.616 234.287 131.537 233.619 131.379C232.959 131.221 232.327 130.975 231.72 130.641C231.123 130.307 230.622 129.885 230.217 129.375L231.892 127.134C232.331 127.644 232.841 128.039 233.421 128.32C234.001 128.61 234.643 128.755 235.346 128.755C236.031 128.755 236.611 128.628 237.086 128.373C237.561 128.127 237.925 127.762 238.18 127.279C238.435 126.804 238.562 126.229 238.562 125.552V115.031L238.932 111.735ZM229.334 119.039V118.762C229.334 117.672 229.466 116.684 229.729 115.796C230.002 114.899 230.384 114.13 230.876 113.489C231.377 112.847 231.984 112.351 232.696 111.999C233.408 111.647 234.212 111.472 235.108 111.472C236.058 111.472 236.853 111.647 237.495 111.999C238.136 112.351 238.664 112.852 239.077 113.502C239.49 114.144 239.811 114.904 240.039 115.783C240.276 116.653 240.461 117.606 240.593 118.644V119.25C240.461 120.243 240.263 121.166 239.999 122.019C239.736 122.871 239.389 123.618 238.958 124.26C238.527 124.893 237.991 125.385 237.35 125.736C236.717 126.088 235.961 126.264 235.082 126.264C234.203 126.264 233.408 126.083 232.696 125.723C231.993 125.363 231.391 124.857 230.89 124.207C230.389 123.557 230.002 122.792 229.729 121.913C229.466 121.034 229.334 120.076 229.334 119.039ZM233.131 118.762V119.039C233.131 119.628 233.188 120.177 233.302 120.687C233.416 121.197 233.592 121.649 233.83 122.045C234.076 122.432 234.379 122.735 234.739 122.955C235.108 123.166 235.543 123.271 236.044 123.271C236.739 123.271 237.306 123.126 237.745 122.836C238.185 122.537 238.514 122.128 238.734 121.61C238.954 121.091 239.081 120.494 239.116 119.817V118.09C239.099 117.536 239.024 117.04 238.892 116.6C238.76 116.152 238.576 115.77 238.338 115.453C238.101 115.137 237.793 114.891 237.416 114.715C237.038 114.539 236.589 114.451 236.071 114.451C235.57 114.451 235.135 114.565 234.766 114.794C234.405 115.014 234.102 115.317 233.856 115.704C233.619 116.09 233.438 116.547 233.315 117.075C233.192 117.593 233.131 118.156 233.131 118.762ZM256.834 105.75V126H253.037V105.75H256.834ZM256.293 118.367H255.252C255.261 117.374 255.392 116.459 255.647 115.625C255.902 114.781 256.267 114.051 256.742 113.436C257.216 112.812 257.783 112.329 258.442 111.986C259.11 111.643 259.849 111.472 260.657 111.472C261.36 111.472 261.997 111.573 262.569 111.775C263.149 111.968 263.645 112.285 264.059 112.724C264.48 113.155 264.806 113.722 265.034 114.425C265.263 115.128 265.377 115.98 265.377 116.982V126H261.554V116.956C261.554 116.323 261.461 115.827 261.277 115.466C261.101 115.097 260.842 114.838 260.499 114.688C260.165 114.53 259.752 114.451 259.26 114.451C258.715 114.451 258.249 114.552 257.862 114.754C257.484 114.957 257.181 115.238 256.953 115.598C256.724 115.95 256.557 116.363 256.452 116.837C256.346 117.312 256.293 117.822 256.293 118.367ZM275.369 126.264C274.262 126.264 273.269 126.088 272.39 125.736C271.511 125.376 270.764 124.879 270.149 124.247C269.542 123.614 269.077 122.88 268.751 122.045C268.426 121.201 268.264 120.305 268.264 119.355V118.828C268.264 117.747 268.417 116.758 268.725 115.862C269.033 114.965 269.472 114.188 270.043 113.528C270.623 112.869 271.327 112.364 272.153 112.012C272.979 111.652 273.911 111.472 274.948 111.472C275.958 111.472 276.855 111.639 277.637 111.973C278.419 112.307 279.074 112.781 279.601 113.396C280.138 114.012 280.542 114.75 280.814 115.611C281.087 116.464 281.223 117.413 281.223 118.459V120.041H269.885V117.51H277.492V117.22C277.492 116.692 277.395 116.222 277.202 115.809C277.017 115.387 276.736 115.053 276.358 114.807C275.98 114.561 275.497 114.438 274.908 114.438C274.407 114.438 273.976 114.548 273.616 114.768C273.256 114.987 272.961 115.295 272.733 115.69C272.513 116.086 272.346 116.552 272.232 117.088C272.126 117.615 272.074 118.195 272.074 118.828V119.355C272.074 119.927 272.153 120.454 272.311 120.938C272.478 121.421 272.711 121.838 273.01 122.19C273.317 122.542 273.686 122.814 274.117 123.007C274.557 123.201 275.053 123.297 275.607 123.297C276.292 123.297 276.93 123.166 277.518 122.902C278.116 122.629 278.63 122.221 279.061 121.676L280.907 123.68C280.608 124.11 280.199 124.523 279.681 124.919C279.171 125.314 278.556 125.64 277.835 125.895C277.114 126.141 276.292 126.264 275.369 126.264ZM287.722 114.847V126H283.925V111.735H287.498L287.722 114.847ZM292.02 111.643L291.954 115.163C291.769 115.137 291.545 115.115 291.282 115.097C291.027 115.071 290.794 115.058 290.583 115.058C290.047 115.058 289.581 115.128 289.185 115.269C288.799 115.4 288.473 115.598 288.21 115.862C287.955 116.125 287.762 116.446 287.63 116.824C287.507 117.202 287.436 117.633 287.419 118.116L286.654 117.879C286.654 116.956 286.746 116.108 286.931 115.334C287.116 114.552 287.384 113.871 287.735 113.291C288.096 112.711 288.535 112.263 289.054 111.946C289.572 111.63 290.165 111.472 290.833 111.472C291.044 111.472 291.26 111.489 291.479 111.524C291.699 111.551 291.879 111.59 292.02 111.643ZM300.655 126.264C299.547 126.264 298.554 126.088 297.675 125.736C296.796 125.376 296.049 124.879 295.434 124.247C294.827 123.614 294.362 122.88 294.036 122.045C293.711 121.201 293.549 120.305 293.549 119.355V118.828C293.549 117.747 293.702 116.758 294.01 115.862C294.318 114.965 294.757 114.188 295.328 113.528C295.908 112.869 296.612 112.364 297.438 112.012C298.264 111.652 299.196 111.472 300.233 111.472C301.243 111.472 302.14 111.639 302.922 111.973C303.704 112.307 304.359 112.781 304.887 113.396C305.423 114.012 305.827 114.75 306.099 115.611C306.372 116.464 306.508 117.413 306.508 118.459V120.041H295.17V117.51H302.777V117.22C302.777 116.692 302.68 116.222 302.487 115.809C302.303 115.387 302.021 115.053 301.643 114.807C301.265 114.561 300.782 114.438 300.193 114.438C299.692 114.438 299.262 114.548 298.901 114.768C298.541 114.987 298.246 115.295 298.018 115.69C297.798 116.086 297.631 116.552 297.517 117.088C297.411 117.615 297.359 118.195 297.359 118.828V119.355C297.359 119.927 297.438 120.454 297.596 120.938C297.763 121.421 297.996 121.838 298.295 122.19C298.602 122.542 298.971 122.814 299.402 123.007C299.842 123.201 300.338 123.297 300.892 123.297C301.577 123.297 302.215 123.166 302.803 122.902C303.401 122.629 303.915 122.221 304.346 121.676L306.192 123.68C305.893 124.11 305.484 124.523 304.966 124.919C304.456 125.314 303.841 125.64 303.12 125.895C302.399 126.141 301.577 126.264 300.655 126.264Z" fill="white"/>
<path d="M29.0942 171.915V175H18.877V171.915H29.0942ZM20.1689 155.805V175H16.2139V155.805H20.1689ZM27.7627 163.623V166.628H18.877V163.623H27.7627ZM29.0811 155.805V158.903H18.877V155.805H29.0811ZM34.7627 160.735L37.1225 165.073L39.5483 160.735H43.5957L39.5615 167.709L43.7802 175H39.7197L37.1489 170.412L34.5781 175H30.5175L34.7363 167.709L30.7021 160.735H34.7627ZM49.7782 163.478V180.484H45.9814V160.735H49.5014L49.7782 163.478ZM58.809 167.709V167.986C58.809 169.023 58.686 169.986 58.4399 170.874C58.2026 171.761 57.851 172.535 57.3852 173.194C56.9194 173.844 56.3393 174.354 55.6449 174.723C54.9594 175.083 54.1684 175.264 53.2719 175.264C52.4018 175.264 51.6459 175.088 51.0043 174.736C50.3627 174.385 49.8222 173.893 49.3827 173.26C48.9521 172.618 48.6049 171.875 48.3412 171.032C48.0776 170.188 47.8754 169.283 47.7348 168.316V167.591C47.8754 166.554 48.0776 165.604 48.3412 164.743C48.6049 163.873 48.9521 163.122 49.3827 162.489C49.8222 161.847 50.3583 161.351 50.9911 160.999C51.6327 160.647 52.3842 160.472 53.2455 160.472C54.1508 160.472 54.9462 160.643 55.6318 160.986C56.3261 161.329 56.9062 161.821 57.372 162.462C57.8466 163.104 58.2026 163.869 58.4399 164.756C58.686 165.644 58.809 166.628 58.809 167.709ZM54.9989 167.986V167.709C54.9989 167.103 54.9462 166.545 54.8407 166.035C54.7441 165.517 54.5859 165.064 54.3661 164.677C54.1552 164.291 53.8739 163.992 53.5224 163.781C53.1796 163.561 52.7621 163.451 52.2699 163.451C51.7514 163.451 51.3075 163.535 50.9384 163.702C50.578 163.869 50.2836 164.11 50.0551 164.427C49.8266 164.743 49.6552 165.121 49.5409 165.561C49.4267 166 49.3564 166.497 49.33 167.05V168.883C49.3739 169.533 49.497 170.118 49.6991 170.636C49.9013 171.146 50.2133 171.55 50.6352 171.849C51.0571 172.148 51.6108 172.297 52.2963 172.297C52.7973 172.297 53.2192 172.188 53.5619 171.968C53.9047 171.739 54.1816 171.427 54.3925 171.032C54.6122 170.636 54.766 170.179 54.8539 169.661C54.9506 169.142 54.9989 168.584 54.9989 167.986ZM68.2743 175.264C67.1669 175.264 66.1737 175.088 65.2948 174.736C64.4159 174.376 63.6688 173.879 63.0536 173.247C62.4471 172.614 61.9813 171.88 61.6561 171.045C61.3309 170.201 61.1683 169.305 61.1683 168.355V167.828C61.1683 166.747 61.3221 165.758 61.6298 164.862C61.9374 163.965 62.3768 163.188 62.9481 162.528C63.5282 161.869 64.2313 161.364 65.0575 161.012C65.8837 160.652 66.8153 160.472 67.8524 160.472C68.8632 160.472 69.7596 160.639 70.5419 160.973C71.3241 161.307 71.9789 161.781 72.5062 162.396C73.0424 163.012 73.4467 163.75 73.7191 164.611C73.9916 165.464 74.1278 166.413 74.1278 167.459V169.041H62.7899V166.51H70.3969V166.22C70.3969 165.692 70.3002 165.222 70.1068 164.809C69.9222 164.387 69.641 164.053 69.2631 163.807C68.8851 163.561 68.4017 163.438 67.8129 163.438C67.3119 163.438 66.8812 163.548 66.5209 163.768C66.1605 163.987 65.8661 164.295 65.6376 164.69C65.4179 165.086 65.2509 165.552 65.1366 166.088C65.0311 166.615 64.9784 167.195 64.9784 167.828V168.355C64.9784 168.927 65.0575 169.454 65.2157 169.938C65.3827 170.421 65.6156 170.838 65.9144 171.19C66.222 171.542 66.5912 171.814 67.0219 172.007C67.4613 172.201 67.9579 172.297 68.5116 172.297C69.1971 172.297 69.8344 172.166 70.4232 171.902C71.0209 171.629 71.535 171.221 71.9657 170.676L73.8114 172.68C73.5126 173.11 73.1039 173.523 72.5853 173.919C72.0756 174.314 71.4603 174.64 70.7396 174.895C70.0189 175.141 69.1971 175.264 68.2743 175.264ZM80.6268 163.847V175H76.8299V160.735H80.4027L80.6268 163.847ZM84.9246 160.643L84.8587 164.163C84.6742 164.137 84.45 164.115 84.1864 164.097C83.9315 164.071 83.6986 164.058 83.4876 164.058C82.9515 164.058 82.4857 164.128 82.0902 164.269C81.7035 164.4 81.3783 164.598 81.1146 164.862C80.8597 165.125 80.6663 165.446 80.5345 165.824C80.4115 166.202 80.3412 166.633 80.3236 167.116L79.5589 166.879C79.5589 165.956 79.6512 165.108 79.8358 164.334C80.0204 163.552 80.2884 162.871 80.64 162.291C81.0003 161.711 81.4398 161.263 81.9583 160.946C82.4769 160.63 83.0702 160.472 83.7381 160.472C83.9491 160.472 84.1644 160.489 84.3841 160.524C84.6038 160.551 84.784 160.59 84.9246 160.643ZM91.2654 160.735V175H87.4554V160.735H91.2654ZM87.2181 157.018C87.2181 156.464 87.4114 156.007 87.7981 155.646C88.1849 155.286 88.7034 155.106 89.3538 155.106C89.9954 155.106 90.5096 155.286 90.8963 155.646C91.2918 156.007 91.4895 156.464 91.4895 157.018C91.4895 157.571 91.2918 158.028 90.8963 158.389C90.5096 158.749 89.9954 158.929 89.3538 158.929C88.7034 158.929 88.1849 158.749 87.7981 158.389C87.4114 158.028 87.2181 157.571 87.2181 157.018ZM101.509 175.264C100.401 175.264 99.408 175.088 98.5291 174.736C97.6502 174.376 96.9031 173.879 96.2878 173.247C95.6814 172.614 95.2156 171.88 94.8904 171.045C94.5652 170.201 94.4026 169.305 94.4026 168.355V167.828C94.4026 166.747 94.5564 165.758 94.864 164.862C95.1716 163.965 95.6111 163.188 96.1824 162.528C96.7625 161.869 97.4656 161.364 98.2918 161.012C99.1179 160.652 100.05 160.472 101.087 160.472C102.097 160.472 102.994 160.639 103.776 160.973C104.558 161.307 105.213 161.781 105.74 162.396C106.277 163.012 106.681 163.75 106.953 164.611C107.226 165.464 107.362 166.413 107.362 167.459V169.041H96.0242V166.51H103.631V166.22C103.631 165.692 103.534 165.222 103.341 164.809C103.157 164.387 102.875 164.053 102.497 163.807C102.119 163.561 101.636 163.438 101.047 163.438C100.546 163.438 100.115 163.548 99.7551 163.768C99.3948 163.987 99.1003 164.295 98.8718 164.69C98.6521 165.086 98.4851 165.552 98.3709 166.088C98.2654 166.615 98.2127 167.195 98.2127 167.828V168.355C98.2127 168.927 98.2918 169.454 98.45 169.938C98.617 170.421 98.8499 170.838 99.1487 171.19C99.4563 171.542 99.8254 171.814 100.256 172.007C100.696 172.201 101.192 172.297 101.746 172.297C102.431 172.297 103.069 172.166 103.657 171.902C104.255 171.629 104.769 171.221 105.2 170.676L107.046 172.68C106.747 173.11 106.338 173.523 105.82 173.919C105.31 174.314 104.695 174.64 103.974 174.895C103.253 175.141 102.431 175.264 101.509 175.264ZM113.782 163.781V175H109.985V160.735H113.545L113.782 163.781ZM113.228 167.367H112.2C112.2 166.312 112.336 165.363 112.609 164.519C112.881 163.667 113.263 162.941 113.756 162.344C114.248 161.737 114.832 161.276 115.509 160.959C116.195 160.634 116.959 160.472 117.803 160.472C118.471 160.472 119.082 160.568 119.635 160.762C120.189 160.955 120.664 161.263 121.059 161.685C121.464 162.106 121.771 162.665 121.982 163.359C122.202 164.053 122.312 164.901 122.312 165.903V175H118.488V165.89C118.488 165.257 118.401 164.765 118.225 164.414C118.049 164.062 117.79 163.816 117.447 163.675C117.113 163.526 116.7 163.451 116.208 163.451C115.698 163.451 115.254 163.552 114.876 163.754C114.507 163.957 114.199 164.238 113.953 164.598C113.716 164.95 113.536 165.363 113.413 165.837C113.29 166.312 113.228 166.822 113.228 167.367ZM131.632 172.297C132.098 172.297 132.511 172.209 132.871 172.034C133.232 171.849 133.513 171.594 133.715 171.269C133.926 170.935 134.036 170.544 134.045 170.096H137.617C137.609 171.098 137.341 171.99 136.813 172.772C136.286 173.545 135.578 174.156 134.691 174.604C133.803 175.044 132.81 175.264 131.711 175.264C130.604 175.264 129.637 175.079 128.811 174.71C127.993 174.341 127.312 173.831 126.767 173.181C126.222 172.521 125.814 171.757 125.541 170.887C125.269 170.008 125.132 169.067 125.132 168.065V167.683C125.132 166.672 125.269 165.732 125.541 164.862C125.814 163.983 126.222 163.218 126.767 162.568C127.312 161.909 127.993 161.395 128.811 161.025C129.628 160.656 130.586 160.472 131.685 160.472C132.854 160.472 133.878 160.696 134.757 161.144C135.644 161.592 136.339 162.234 136.84 163.069C137.349 163.895 137.609 164.875 137.617 166.009H134.045C134.036 165.534 133.935 165.104 133.741 164.717C133.557 164.33 133.284 164.022 132.924 163.794C132.572 163.557 132.137 163.438 131.619 163.438C131.065 163.438 130.612 163.557 130.261 163.794C129.909 164.022 129.637 164.339 129.444 164.743C129.25 165.139 129.114 165.591 129.035 166.101C128.965 166.602 128.929 167.129 128.929 167.683V168.065C128.929 168.619 128.965 169.151 129.035 169.661C129.105 170.17 129.237 170.623 129.43 171.019C129.632 171.414 129.909 171.726 130.261 171.955C130.612 172.183 131.07 172.297 131.632 172.297ZM146.924 175.264C145.817 175.264 144.824 175.088 143.945 174.736C143.066 174.376 142.319 173.879 141.704 173.247C141.097 172.614 140.631 171.88 140.306 171.045C139.981 170.201 139.818 169.305 139.818 168.355V167.828C139.818 166.747 139.972 165.758 140.28 164.862C140.588 163.965 141.027 163.188 141.598 162.528C142.178 161.869 142.881 161.364 143.708 161.012C144.534 160.652 145.465 160.472 146.503 160.472C147.513 160.472 148.41 160.639 149.192 160.973C149.974 161.307 150.629 161.781 151.156 162.396C151.693 163.012 152.097 163.75 152.369 164.611C152.642 165.464 152.778 166.413 152.778 167.459V169.041H141.44V166.51H149.047V166.22C149.047 165.692 148.95 165.222 148.757 164.809C148.572 164.387 148.291 164.053 147.913 163.807C147.535 163.561 147.052 163.438 146.463 163.438C145.962 163.438 145.531 163.548 145.171 163.768C144.811 163.987 144.516 164.295 144.288 164.69C144.068 165.086 143.901 165.552 143.787 166.088C143.681 166.615 143.629 167.195 143.629 167.828V168.355C143.629 168.927 143.708 169.454 143.866 169.938C144.033 170.421 144.266 170.838 144.565 171.19C144.872 171.542 145.241 171.814 145.672 172.007C146.111 172.201 146.608 172.297 147.162 172.297C147.847 172.297 148.485 172.166 149.073 171.902C149.671 171.629 150.185 171.221 150.616 170.676L152.462 172.68C152.163 173.11 151.754 173.523 151.235 173.919C150.726 174.314 150.11 174.64 149.39 174.895C148.669 175.141 147.847 175.264 146.924 175.264ZM202.766 154.75V175H198.97V154.75H202.766ZM202.226 167.367H201.184C201.193 166.374 201.325 165.459 201.58 164.625C201.835 163.781 202.2 163.051 202.674 162.436C203.149 161.812 203.716 161.329 204.375 160.986C205.043 160.643 205.781 160.472 206.59 160.472C207.293 160.472 207.93 160.573 208.501 160.775C209.081 160.968 209.578 161.285 209.991 161.724C210.413 162.155 210.738 162.722 210.967 163.425C211.195 164.128 211.309 164.98 211.309 165.982V175H207.486V165.956C207.486 165.323 207.394 164.827 207.209 164.466C207.034 164.097 206.774 163.838 206.432 163.688C206.098 163.53 205.684 163.451 205.192 163.451C204.647 163.451 204.182 163.552 203.795 163.754C203.417 163.957 203.114 164.238 202.885 164.598C202.657 164.95 202.49 165.363 202.384 165.837C202.279 166.312 202.226 166.822 202.226 167.367ZM222.436 171.783V165.429C222.436 164.972 222.361 164.581 222.212 164.255C222.062 163.921 221.829 163.662 221.513 163.478C221.205 163.293 220.805 163.201 220.313 163.201C219.891 163.201 219.527 163.275 219.219 163.425C218.911 163.565 218.674 163.772 218.507 164.044C218.34 164.308 218.257 164.62 218.257 164.98H214.46C214.46 164.374 214.6 163.798 214.882 163.253C215.163 162.708 215.572 162.229 216.108 161.816C216.644 161.395 217.281 161.065 218.019 160.828C218.766 160.59 219.601 160.472 220.524 160.472C221.632 160.472 222.616 160.656 223.477 161.025C224.339 161.395 225.015 161.948 225.508 162.687C226.009 163.425 226.259 164.348 226.259 165.455V171.559C226.259 172.341 226.307 172.983 226.404 173.484C226.501 173.976 226.641 174.407 226.826 174.776V175H222.99C222.805 174.613 222.664 174.13 222.568 173.55C222.48 172.961 222.436 172.372 222.436 171.783ZM222.937 166.312L222.963 168.461H220.841C220.34 168.461 219.905 168.518 219.535 168.632C219.166 168.747 218.863 168.909 218.626 169.12C218.389 169.322 218.213 169.56 218.098 169.832C217.993 170.104 217.94 170.403 217.94 170.729C217.94 171.054 218.015 171.348 218.164 171.612C218.314 171.867 218.529 172.069 218.81 172.218C219.092 172.359 219.421 172.429 219.799 172.429C220.37 172.429 220.867 172.315 221.289 172.086C221.711 171.858 222.036 171.577 222.264 171.243C222.502 170.909 222.625 170.592 222.634 170.293L223.636 171.902C223.495 172.262 223.302 172.636 223.055 173.022C222.818 173.409 222.515 173.774 222.146 174.117C221.777 174.451 221.333 174.728 220.814 174.947C220.296 175.158 219.68 175.264 218.969 175.264C218.063 175.264 217.242 175.083 216.503 174.723C215.774 174.354 215.194 173.849 214.763 173.207C214.341 172.557 214.13 171.818 214.13 170.992C214.13 170.245 214.271 169.582 214.552 169.001C214.833 168.421 215.246 167.934 215.791 167.538C216.345 167.134 217.035 166.831 217.861 166.628C218.687 166.417 219.645 166.312 220.735 166.312H222.937ZM235.619 172.297C236.085 172.297 236.498 172.209 236.858 172.034C237.219 171.849 237.5 171.594 237.702 171.269C237.913 170.935 238.023 170.544 238.032 170.096H241.604C241.595 171.098 241.327 171.99 240.8 172.772C240.273 173.545 239.565 174.156 238.678 174.604C237.79 175.044 236.797 175.264 235.698 175.264C234.591 175.264 233.624 175.079 232.798 174.71C231.98 174.341 231.299 173.831 230.754 173.181C230.209 172.521 229.801 171.757 229.528 170.887C229.256 170.008 229.119 169.067 229.119 168.065V167.683C229.119 166.672 229.256 165.732 229.528 164.862C229.801 163.983 230.209 163.218 230.754 162.568C231.299 161.909 231.98 161.395 232.798 161.025C233.615 160.656 234.573 160.472 235.672 160.472C236.841 160.472 237.865 160.696 238.743 161.144C239.631 161.592 240.325 162.234 240.826 163.069C241.336 163.895 241.595 164.875 241.604 166.009H238.032C238.023 165.534 237.922 165.104 237.728 164.717C237.544 164.33 237.271 164.022 236.911 163.794C236.559 163.557 236.124 163.438 235.606 163.438C235.052 163.438 234.599 163.557 234.248 163.794C233.896 164.022 233.624 164.339 233.43 164.743C233.237 165.139 233.101 165.591 233.022 166.101C232.951 166.602 232.916 167.129 232.916 167.683V168.065C232.916 168.619 232.951 169.151 233.022 169.661C233.092 170.17 233.224 170.623 233.417 171.019C233.619 171.414 233.896 171.726 234.248 171.955C234.599 172.183 235.056 172.297 235.619 172.297ZM248.143 154.737V175H244.346V154.737H248.143ZM257.134 160.735L250.938 167.802L247.615 171.164L246.231 168.421L248.868 165.073L252.572 160.735H257.134ZM253.192 175L248.973 168.408L251.597 166.114L257.569 175H253.192ZM265.611 175.264C264.503 175.264 263.51 175.088 262.631 174.736C261.752 174.376 261.005 173.879 260.39 173.247C259.783 172.614 259.318 171.88 258.992 171.045C258.667 170.201 258.505 169.305 258.505 168.355V167.828C258.505 166.747 258.658 165.758 258.966 164.862C259.274 163.965 259.713 163.188 260.284 162.528C260.864 161.869 261.568 161.364 262.394 161.012C263.22 160.652 264.152 160.472 265.189 160.472C266.199 160.472 267.096 160.639 267.878 160.973C268.66 161.307 269.315 161.781 269.842 162.396C270.379 163.012 270.783 163.75 271.055 164.611C271.328 165.464 271.464 166.413 271.464 167.459V169.041H260.126V166.51H267.733V166.22C267.733 165.692 267.636 165.222 267.443 164.809C267.258 164.387 266.977 164.053 266.599 163.807C266.221 163.561 265.738 163.438 265.149 163.438C264.648 163.438 264.217 163.548 263.857 163.768C263.497 163.987 263.202 164.295 262.974 164.69C262.754 165.086 262.587 165.552 262.473 166.088C262.367 166.615 262.315 167.195 262.315 167.828V168.355C262.315 168.927 262.394 169.454 262.552 169.938C262.719 170.421 262.952 170.838 263.251 171.19C263.558 171.542 263.927 171.814 264.358 172.007C264.798 172.201 265.294 172.297 265.848 172.297C266.533 172.297 267.171 172.166 267.759 171.902C268.357 171.629 268.871 171.221 269.302 170.676L271.148 172.68C270.849 173.11 270.44 173.523 269.922 173.919C269.412 174.314 268.797 174.64 268.076 174.895C267.355 175.141 266.533 175.264 265.611 175.264ZM277.963 163.847V175H274.166V160.735H277.739L277.963 163.847ZM282.261 160.643L282.195 164.163C282.01 164.137 281.786 164.115 281.523 164.097C281.268 164.071 281.035 164.058 280.824 164.058C280.288 164.058 279.822 164.128 279.426 164.269C279.04 164.4 278.715 164.598 278.451 164.862C278.196 165.125 278.003 165.446 277.871 165.824C277.748 166.202 277.677 166.633 277.66 167.116L276.895 166.879C276.895 165.956 276.987 165.108 277.172 164.334C277.357 163.552 277.625 162.871 277.976 162.291C278.337 161.711 278.776 161.263 279.295 160.946C279.813 160.63 280.406 160.472 281.074 160.472C281.285 160.472 281.501 160.489 281.72 160.524C281.94 160.551 282.12 160.59 282.261 160.643ZM298.423 175.264C297.316 175.264 296.322 175.088 295.443 174.736C294.565 174.376 293.817 173.879 293.202 173.247C292.596 172.614 292.13 171.88 291.805 171.045C291.48 170.201 291.317 169.305 291.317 168.355V167.828C291.317 166.747 291.471 165.758 291.778 164.862C292.086 163.965 292.525 163.188 293.097 162.528C293.677 161.869 294.38 161.364 295.206 161.012C296.032 160.652 296.964 160.472 298.001 160.472C299.012 160.472 299.908 160.639 300.691 160.973C301.473 161.307 302.128 161.781 302.655 162.396C303.191 163.012 303.595 163.75 303.868 164.611C304.14 165.464 304.276 166.413 304.276 167.459V169.041H292.939V166.51H300.546V166.22C300.546 165.692 300.449 165.222 300.255 164.809C300.071 164.387 299.79 164.053 299.412 163.807C299.034 163.561 298.55 163.438 297.962 163.438C297.461 163.438 297.03 163.548 296.67 163.768C296.309 163.987 296.015 164.295 295.786 164.69C295.566 165.086 295.4 165.552 295.285 166.088C295.18 166.615 295.127 167.195 295.127 167.828V168.355C295.127 168.927 295.206 169.454 295.364 169.938C295.531 170.421 295.764 170.838 296.063 171.19C296.371 171.542 296.74 171.814 297.171 172.007C297.61 172.201 298.107 172.297 298.66 172.297C299.346 172.297 299.983 172.166 300.572 171.902C301.17 171.629 301.684 171.221 302.114 170.676L303.96 172.68C303.661 173.11 303.253 173.523 302.734 173.919C302.224 174.314 301.609 174.64 300.888 174.895C300.168 175.141 299.346 175.264 298.423 175.264ZM311.817 175H307.994V159.47C307.994 158.389 308.205 157.479 308.626 156.741C309.057 155.994 309.659 155.431 310.433 155.053C311.215 154.667 312.142 154.473 313.214 154.473C313.566 154.473 313.904 154.5 314.23 154.552C314.555 154.596 314.871 154.653 315.179 154.724L315.139 157.584C314.972 157.541 314.796 157.51 314.612 157.492C314.427 157.475 314.212 157.466 313.966 157.466C313.509 157.466 313.118 157.545 312.793 157.703C312.476 157.853 312.234 158.077 312.067 158.375C311.9 158.674 311.817 159.039 311.817 159.47V175ZM314.665 160.735V163.425H305.871V160.735H314.665ZM322.034 175H318.21V159.47C318.21 158.389 318.421 157.479 318.843 156.741C319.274 155.994 319.876 155.431 320.649 155.053C321.432 154.667 322.359 154.473 323.431 154.473C323.783 154.473 324.121 154.5 324.446 154.552C324.771 154.596 325.088 154.653 325.396 154.724L325.356 157.584C325.189 157.541 325.013 157.51 324.829 157.492C324.644 157.475 324.429 157.466 324.183 157.466C323.726 157.466 323.334 157.545 323.009 157.703C322.693 157.853 322.451 158.077 322.284 158.375C322.117 158.674 322.034 159.039 322.034 159.47V175ZM324.881 160.735V163.425H316.088V160.735H324.881ZM333.661 175.264C332.554 175.264 331.561 175.088 330.682 174.736C329.803 174.376 329.056 173.879 328.44 173.247C327.834 172.614 327.368 171.88 327.043 171.045C326.718 170.201 326.555 169.305 326.555 168.355V167.828C326.555 166.747 326.709 165.758 327.017 164.862C327.324 163.965 327.764 163.188 328.335 162.528C328.915 161.869 329.618 161.364 330.444 161.012C331.27 160.652 332.202 160.472 333.239 160.472C334.25 160.472 335.146 160.639 335.929 160.973C336.711 161.307 337.366 161.781 337.893 162.396C338.429 163.012 338.833 163.75 339.106 164.611C339.378 165.464 339.515 166.413 339.515 167.459V169.041H328.177V166.51H335.784V166.22C335.784 165.692 335.687 165.222 335.494 164.809C335.309 164.387 335.028 164.053 334.65 163.807C334.272 163.561 333.789 163.438 333.2 163.438C332.699 163.438 332.268 163.548 331.908 163.768C331.547 163.987 331.253 164.295 331.024 164.69C330.805 165.086 330.638 165.552 330.523 166.088C330.418 166.615 330.365 167.195 330.365 167.828V168.355C330.365 168.927 330.444 169.454 330.603 169.938C330.77 170.421 331.002 170.838 331.301 171.19C331.609 171.542 331.978 171.814 332.409 172.007C332.848 172.201 333.345 172.297 333.898 172.297C334.584 172.297 335.221 172.166 335.81 171.902C336.408 171.629 336.922 171.221 337.353 170.676L339.198 172.68C338.899 173.11 338.491 173.523 337.972 173.919C337.462 174.314 336.847 174.64 336.126 174.895C335.406 175.141 334.584 175.264 333.661 175.264ZM348.11 172.297C348.576 172.297 348.989 172.209 349.349 172.034C349.709 171.849 349.991 171.594 350.193 171.269C350.404 170.935 350.514 170.544 350.522 170.096H354.095C354.086 171.098 353.818 171.99 353.291 172.772C352.764 173.545 352.056 174.156 351.168 174.604C350.281 175.044 349.288 175.264 348.189 175.264C347.081 175.264 346.115 175.079 345.288 174.71C344.471 174.341 343.79 173.831 343.245 173.181C342.7 172.521 342.291 171.757 342.019 170.887C341.746 170.008 341.61 169.067 341.61 168.065V167.683C341.61 166.672 341.746 165.732 342.019 164.862C342.291 163.983 342.7 163.218 343.245 162.568C343.79 161.909 344.471 161.395 345.288 161.025C346.106 160.656 347.064 160.472 348.163 160.472C349.331 160.472 350.355 160.696 351.234 161.144C352.122 161.592 352.816 162.234 353.317 163.069C353.827 163.895 354.086 164.875 354.095 166.009H350.522C350.514 165.534 350.413 165.104 350.219 164.717C350.035 164.33 349.762 164.022 349.402 163.794C349.05 163.557 348.615 163.438 348.097 163.438C347.543 163.438 347.09 163.557 346.739 163.794C346.387 164.022 346.115 164.339 345.921 164.743C345.728 165.139 345.592 165.591 345.513 166.101C345.442 166.602 345.407 167.129 345.407 167.683V168.065C345.407 168.619 345.442 169.151 345.513 169.661C345.583 170.17 345.715 170.623 345.908 171.019C346.11 171.414 346.387 171.726 346.739 171.955C347.09 172.183 347.547 172.297 348.11 172.297ZM363.824 160.735V163.425H355.518V160.735H363.824ZM357.575 157.215H361.372V170.702C361.372 171.115 361.425 171.432 361.53 171.651C361.644 171.871 361.811 172.025 362.031 172.113C362.251 172.192 362.528 172.231 362.862 172.231C363.099 172.231 363.31 172.223 363.495 172.205C363.688 172.179 363.85 172.152 363.982 172.126L363.995 174.921C363.67 175.026 363.319 175.11 362.941 175.171C362.563 175.233 362.145 175.264 361.688 175.264C360.853 175.264 360.124 175.127 359.5 174.855C358.885 174.574 358.41 174.125 358.076 173.51C357.742 172.895 357.575 172.086 357.575 171.084V157.215Z" fill="white"/>
<path d="M331.266 101.968C331.99 101.4 333.01 101.4 333.734 101.968L335.243 103.151C335.712 103.519 336.323 103.658 336.906 103.53L338.778 103.119C339.678 102.921 340.596 103.364 341.002 104.19L341.848 105.91C342.111 106.446 342.6 106.836 343.182 106.974L345.047 107.416C345.943 107.628 346.578 108.425 346.586 109.345L346.601 111.262C346.606 111.859 346.878 112.423 347.342 112.799L348.831 114.007C349.546 114.587 349.773 115.58 349.38 116.413L348.562 118.147C348.308 118.687 348.308 119.313 348.562 119.853L349.38 121.587C349.773 122.42 349.546 123.413 348.831 123.993L347.342 125.201C346.878 125.577 346.606 126.141 346.601 126.738L346.586 128.655C346.578 129.575 345.943 130.372 345.047 130.584L343.182 131.026C342.6 131.164 342.111 131.554 341.848 132.09L341.002 133.81C340.596 134.636 339.678 135.079 338.778 134.881L336.906 134.47C336.323 134.342 335.712 134.481 335.243 134.849L333.734 136.032C333.01 136.6 331.99 136.6 331.266 136.032L329.757 134.849C329.288 134.481 328.677 134.342 328.094 134.47L326.222 134.881C325.322 135.079 324.404 134.636 323.998 133.81L323.152 132.09C322.889 131.554 322.4 131.164 321.818 131.026L319.953 130.584C319.057 130.372 318.422 129.575 318.414 128.655L318.399 126.738C318.394 126.141 318.122 125.577 317.658 125.201L316.169 123.993C315.454 123.413 315.227 122.42 315.62 121.587L316.438 119.853C316.692 119.313 316.692 118.687 316.438 118.147L315.62 116.413C315.227 115.58 315.454 114.587 316.169 114.007L317.658 112.799C318.122 112.423 318.394 111.859 318.399 111.262L318.414 109.345C318.422 108.425 319.057 107.628 319.953 107.416L321.818 106.974C322.4 106.836 322.889 106.446 323.152 105.91L323.998 104.19C324.404 103.364 325.322 102.921 326.222 103.119L328.094 103.53C328.677 103.658 329.288 103.519 329.757 103.151L331.266 101.968Z" fill="#ED702D"/>
<path d="M332.5 119V129M322.5 119H332.5H322.5ZM342.5 119H332.5H342.5ZM332.5 119V109V119Z" stroke="white" stroke-width="2.375" stroke-linecap="round" stroke-linejoin="round"/>
<path d="M25.207 73.9771C25.207 73.6343 25.1543 73.3267 25.0488 73.0542C24.9521 72.7729 24.7676 72.5181 24.4951 72.2896C24.2227 72.0522 23.8403 71.8193 23.3481 71.5908C22.856 71.3623 22.2188 71.125 21.4365 70.8789C20.5664 70.5977 19.7402 70.2812 18.958 69.9297C18.1846 69.5781 17.499 69.1694 16.9014 68.7036C16.3125 68.229 15.8467 67.6797 15.5039 67.0557C15.1699 66.4316 15.0029 65.7065 15.0029 64.8804C15.0029 64.0806 15.1787 63.3555 15.5303 62.7051C15.8818 62.0459 16.374 61.4834 17.0068 61.0176C17.6396 60.543 18.3867 60.1782 19.248 59.9233C20.1182 59.6685 21.0718 59.541 22.1089 59.541C23.5239 59.541 24.7588 59.7959 25.8135 60.3057C26.8682 60.8154 27.6855 61.5142 28.2656 62.4019C28.8545 63.2896 29.1489 64.3047 29.1489 65.4473H25.2202C25.2202 64.8848 25.1016 64.3926 24.8643 63.9707C24.6357 63.54 24.2842 63.2017 23.8096 62.9556C23.3438 62.7095 22.7549 62.5864 22.043 62.5864C21.3574 62.5864 20.7861 62.6919 20.3291 62.9028C19.8721 63.105 19.5293 63.3818 19.3008 63.7334C19.0723 64.0762 18.958 64.4629 18.958 64.8936C18.958 65.2188 19.0371 65.5132 19.1953 65.7769C19.3623 66.0405 19.6084 66.2866 19.9336 66.5151C20.2588 66.7437 20.6587 66.959 21.1333 67.1611C21.6079 67.3633 22.1572 67.561 22.7812 67.7544C23.8271 68.0708 24.7456 68.4268 25.5366 68.8223C26.3364 69.2178 27.0044 69.6616 27.5405 70.1538C28.0767 70.646 28.481 71.2041 28.7534 71.8281C29.0259 72.4521 29.1621 73.1597 29.1621 73.9507C29.1621 74.7856 28.9995 75.5327 28.6743 76.1919C28.3491 76.8511 27.8789 77.4092 27.2637 77.8662C26.6484 78.3232 25.9146 78.6704 25.062 78.9077C24.2095 79.145 23.2559 79.2637 22.2012 79.2637C21.252 79.2637 20.3159 79.1406 19.3931 78.8945C18.4702 78.6396 17.6309 78.2573 16.875 77.7476C16.1279 77.2378 15.5303 76.5874 15.082 75.7964C14.6338 75.0054 14.4097 74.0693 14.4097 72.9883H18.3779C18.3779 73.5859 18.4702 74.0913 18.6548 74.5044C18.8394 74.9175 19.0986 75.2515 19.4326 75.5063C19.7754 75.7612 20.1797 75.9458 20.6455 76.0601C21.1201 76.1743 21.6387 76.2314 22.2012 76.2314C22.8867 76.2314 23.4492 76.1348 23.8887 75.9414C24.3369 75.748 24.6665 75.48 24.8774 75.1372C25.0972 74.7944 25.207 74.4077 25.207 73.9771ZM35.5888 58.75V79H31.792V58.75H35.5888ZM35.0483 71.3667H34.0068C34.0156 70.3735 34.1474 69.4595 34.4023 68.6245C34.6572 67.7808 35.022 67.0513 35.4966 66.436C35.9712 65.812 36.5381 65.3286 37.1972 64.9858C37.8652 64.6431 38.6035 64.4717 39.4121 64.4717C40.1152 64.4717 40.7524 64.5728 41.3237 64.7749C41.9038 64.9683 42.4004 65.2847 42.8135 65.7241C43.2353 66.1548 43.5605 66.7217 43.789 67.4248C44.0176 68.1279 44.1318 68.9805 44.1318 69.9824V79H40.3086V69.9561C40.3086 69.3232 40.2163 68.8267 40.0317 68.4663C39.8559 68.0972 39.5967 67.8379 39.2539 67.6885C38.9199 67.5303 38.5068 67.4512 38.0146 67.4512C37.4697 67.4512 37.0039 67.5522 36.6172 67.7544C36.2392 67.9565 35.936 68.2378 35.7075 68.5981C35.479 68.9497 35.312 69.3628 35.2065 69.8374C35.1011 70.312 35.0483 70.8218 35.0483 71.3667ZM46.6826 72.0127V71.7358C46.6826 70.6899 46.832 69.7275 47.1308 68.8486C47.4296 67.9609 47.8647 67.1919 48.436 66.5415C49.0073 65.8911 49.7104 65.3857 50.5454 65.0254C51.3803 64.6562 52.3383 64.4717 53.4194 64.4717C54.5005 64.4717 55.4629 64.6562 56.3066 65.0254C57.1504 65.3857 57.8579 65.8911 58.4292 66.5415C59.0092 67.1919 59.4487 67.9609 59.7475 68.8486C60.0463 69.7275 60.1958 70.6899 60.1958 71.7358V72.0127C60.1958 73.0498 60.0463 74.0122 59.7475 74.8999C59.4487 75.7788 59.0092 76.5479 58.4292 77.207C57.8579 77.8574 57.1547 78.3628 56.3198 78.7231C55.4848 79.0835 54.5268 79.2637 53.4458 79.2637C52.3647 79.2637 51.4023 79.0835 50.5586 78.7231C49.7236 78.3628 49.0161 77.8574 48.436 77.207C47.8647 76.5479 47.4296 75.7788 47.1308 74.8999C46.832 74.0122 46.6826 73.0498 46.6826 72.0127ZM50.4795 71.7358V72.0127C50.4795 72.6104 50.5322 73.1685 50.6377 73.687C50.7431 74.2056 50.9101 74.6626 51.1386 75.0581C51.3759 75.4448 51.6836 75.748 52.0615 75.9678C52.4394 76.1875 52.9008 76.2974 53.4458 76.2974C53.9731 76.2974 54.4257 76.1875 54.8037 75.9678C55.1816 75.748 55.4848 75.4448 55.7133 75.0581C55.9419 74.6626 56.1088 74.2056 56.2143 73.687C56.3286 73.1685 56.3857 72.6104 56.3857 72.0127V71.7358C56.3857 71.1558 56.3286 70.6108 56.2143 70.1011C56.1088 69.5825 55.9375 69.1255 55.7002 68.73C55.4716 68.3257 55.1684 68.0093 54.7905 67.7808C54.4126 67.5522 53.9555 67.438 53.4194 67.438C52.8833 67.438 52.4262 67.5522 52.0483 67.7808C51.6792 68.0093 51.3759 68.3257 51.1386 68.73C50.9101 69.1255 50.7431 69.5825 50.6377 70.1011C50.5322 70.6108 50.4795 71.1558 50.4795 71.7358ZM66.873 75.3086L69.8393 64.7354H72.2519L71.4741 68.8882L68.5078 79H66.4907L66.873 75.3086ZM65.3701 64.7354L67.4926 75.2954L67.6904 79H65.3173L61.705 64.7354H65.3701ZM74.9677 75.124L77.0375 64.7354H80.7158L77.1035 79H74.7436L74.9677 75.124ZM72.5815 64.7354L75.5346 75.2295L75.9433 79H73.913L70.9467 68.9014L70.1953 64.7354H72.5815ZM94.1229 77.3916L97.9066 64.7354H101.98L96.2455 81.1489C96.1225 81.5093 95.9555 81.896 95.7445 82.3091C95.5424 82.7222 95.2655 83.1133 94.914 83.4824C94.5712 83.8604 94.1361 84.168 93.6088 84.4053C93.0902 84.6426 92.453 84.7612 91.6972 84.7612C91.3368 84.7612 91.0424 84.7393 90.8139 84.6953C90.5854 84.6514 90.3129 84.5898 89.9965 84.5107V81.729C90.0932 81.729 90.1942 81.729 90.2997 81.729C90.4052 81.7378 90.5062 81.7422 90.6029 81.7422C91.1039 81.7422 91.5126 81.6851 91.829 81.5708C92.1454 81.4565 92.4003 81.2808 92.5937 81.0435C92.787 80.8149 92.9408 80.5161 93.0551 80.147L94.1229 77.3916ZM92.5409 64.7354L95.6391 75.0713L96.1796 79.0923L93.5956 79.3691L88.4672 64.7354H92.5409ZM102.949 72.0127V71.7358C102.949 70.6899 103.099 69.7275 103.397 68.8486C103.696 67.9609 104.131 67.1919 104.703 66.5415C105.274 65.8911 105.977 65.3857 106.812 65.0254C107.647 64.6562 108.605 64.4717 109.686 64.4717C110.767 64.4717 111.729 64.6562 112.573 65.0254C113.417 65.3857 114.124 65.8911 114.696 66.5415C115.276 67.1919 115.715 67.9609 116.014 68.8486C116.313 69.7275 116.462 70.6899 116.462 71.7358V72.0127C116.462 73.0498 116.313 74.0122 116.014 74.8999C115.715 75.7788 115.276 76.5479 114.696 77.207C114.124 77.8574 113.421 78.3628 112.586 78.7231C111.751 79.0835 110.793 79.2637 109.712 79.2637C108.631 79.2637 107.669 79.0835 106.825 78.7231C105.99 78.3628 105.283 77.8574 104.703 77.207C104.131 76.5479 103.696 75.7788 103.397 74.8999C103.099 74.0122 102.949 73.0498 102.949 72.0127ZM106.746 71.7358V72.0127C106.746 72.6104 106.799 73.1685 106.904 73.687C107.01 74.2056 107.177 74.6626 107.405 75.0581C107.642 75.4448 107.95 75.748 108.328 75.9678C108.706 76.1875 109.167 76.2974 109.712 76.2974C110.24 76.2974 110.692 76.1875 111.07 75.9678C111.448 75.748 111.751 75.4448 111.98 75.0581C112.208 74.6626 112.375 74.2056 112.481 73.687C112.595 73.1685 112.652 72.6104 112.652 72.0127V71.7358C112.652 71.1558 112.595 70.6108 112.481 70.1011C112.375 69.5825 112.204 69.1255 111.967 68.73C111.738 68.3257 111.435 68.0093 111.057 67.7808C110.679 67.5522 110.222 67.438 109.686 67.438C109.15 67.438 108.693 67.5522 108.315 67.7808C107.946 68.0093 107.642 68.3257 107.405 68.73C107.177 69.1255 107.01 69.5825 106.904 70.1011C106.799 70.6108 106.746 71.1558 106.746 71.7358ZM127.503 75.5854V64.7354H131.3V79H127.727L127.503 75.5854ZM127.925 72.6587L129.046 72.6323C129.046 73.5815 128.936 74.4648 128.716 75.2822C128.496 76.0908 128.167 76.7939 127.727 77.3916C127.288 77.9805 126.734 78.4419 126.066 78.7759C125.398 79.1011 124.612 79.2637 123.706 79.2637C123.012 79.2637 122.37 79.167 121.782 78.9736C121.202 78.7715 120.701 78.4595 120.279 78.0376C119.866 77.6069 119.54 77.0576 119.303 76.3896C119.075 75.7129 118.96 74.8999 118.96 73.9507V64.7354H122.757V73.9771C122.757 74.3989 122.806 74.7549 122.902 75.0449C123.008 75.335 123.153 75.5723 123.337 75.7568C123.522 75.9414 123.737 76.0732 123.983 76.1523C124.238 76.2314 124.519 76.271 124.827 76.271C125.609 76.271 126.224 76.1128 126.673 75.7964C127.13 75.48 127.451 75.0493 127.635 74.5044C127.828 73.9507 127.925 73.3354 127.925 72.6587ZM138.267 67.8467V79H134.471V64.7354H138.043L138.267 67.8467ZM142.565 64.6431L142.499 68.1631C142.315 68.1367 142.091 68.1147 141.827 68.0972C141.572 68.0708 141.339 68.0576 141.128 68.0576C140.592 68.0576 140.126 68.1279 139.731 68.2686C139.344 68.4004 139.019 68.5981 138.755 68.8618C138.5 69.1255 138.307 69.4463 138.175 69.8242C138.052 70.2021 137.982 70.6328 137.964 71.1162L137.2 70.8789C137.2 69.9561 137.292 69.1079 137.476 68.3345C137.661 67.5522 137.929 66.8711 138.281 66.291C138.641 65.7109 139.08 65.2627 139.599 64.9463C140.118 64.6299 140.711 64.4717 141.379 64.4717C141.59 64.4717 141.805 64.4893 142.025 64.5244C142.244 64.5508 142.425 64.5903 142.565 64.6431ZM160.172 59.8047V79H156.23V59.8047H160.172ZM166.078 59.8047V62.9028H150.416V59.8047H166.078ZM176.333 63.0874L171.113 79H166.907L174.039 59.8047H176.716L176.333 63.0874ZM180.671 79L175.437 63.0874L175.015 59.8047H177.717L184.889 79H180.671ZM180.433 71.8545V74.9526H170.295V71.8545H180.433ZM200.629 75.915V79H190.965V75.915H200.629ZM192.244 59.8047V79H188.289V59.8047H192.244ZM217.397 75.915V79H207.18V75.915H217.397ZM208.472 59.8047V79H204.517V59.8047H208.472ZM216.065 67.6226V70.6284H207.18V67.6226H216.065ZM217.384 59.8047V62.9028H207.18V59.8047H217.384ZM236.947 59.8047V79H232.992L225.279 66.1328V79H221.324V59.8047H225.279L233.005 72.6851V59.8047H236.947ZM250.195 59.8047V79H246.253V59.8047H250.195ZM256.101 59.8047V62.9028H240.439V59.8047H256.101ZM269.757 73.9771C269.757 73.6343 269.705 73.3267 269.599 73.0542C269.503 72.7729 269.318 72.5181 269.046 72.2896C268.773 72.0522 268.391 71.8193 267.899 71.5908C267.406 71.3623 266.769 71.125 265.987 70.8789C265.117 70.5977 264.291 70.2812 263.508 69.9297C262.735 69.5781 262.049 69.1694 261.452 68.7036C260.863 68.229 260.397 67.6797 260.054 67.0557C259.72 66.4316 259.553 65.7065 259.553 64.8804C259.553 64.0806 259.729 63.3555 260.081 62.7051C260.432 62.0459 260.924 61.4834 261.557 61.0176C262.19 60.543 262.937 60.1782 263.798 59.9233C264.669 59.6685 265.622 59.541 266.659 59.541C268.074 59.541 269.309 59.7959 270.364 60.3057C271.419 60.8154 272.236 61.5142 272.816 62.4019C273.405 63.2896 273.699 64.3047 273.699 65.4473H269.771C269.771 64.8848 269.652 64.3926 269.415 63.9707C269.186 63.54 268.835 63.2017 268.36 62.9556C267.894 62.7095 267.305 62.5864 266.593 62.5864C265.908 62.5864 265.337 62.6919 264.879 62.9028C264.422 63.105 264.08 63.3818 263.851 63.7334C263.623 64.0762 263.508 64.4629 263.508 64.8936C263.508 65.2188 263.587 65.5132 263.746 65.7769C263.913 66.0405 264.159 66.2866 264.484 66.5151C264.809 66.7437 265.209 66.959 265.684 67.1611C266.158 67.3633 266.708 67.561 267.332 67.7544C268.378 68.0708 269.296 68.4268 270.087 68.8223C270.887 69.2178 271.555 69.6616 272.091 70.1538C272.627 70.646 273.031 71.2041 273.304 71.8281C273.576 72.4521 273.712 73.1597 273.712 73.9507C273.712 74.7856 273.55 75.5327 273.225 76.1919C272.9 76.8511 272.429 77.4092 271.814 77.8662C271.199 78.3232 270.465 78.6704 269.612 78.9077C268.76 79.145 267.806 79.2637 266.752 79.2637C265.802 79.2637 264.866 79.1406 263.943 78.8945C263.021 78.6396 262.181 78.2573 261.425 77.7476C260.678 77.2378 260.081 76.5874 259.632 75.7964C259.184 75.0054 258.96 74.0693 258.96 72.9883H262.928C262.928 73.5859 263.021 74.0913 263.205 74.5044C263.39 74.9175 263.649 75.2515 263.983 75.5063C264.326 75.7612 264.73 75.9458 265.196 76.0601C265.671 76.1743 266.189 76.2314 266.752 76.2314C267.437 76.2314 268 76.1348 268.439 75.9414C268.887 75.748 269.217 75.48 269.428 75.1372C269.648 74.7944 269.757 74.4077 269.757 73.9771Z" fill="white"/>
<circle cx="20" cy="117.5" r="5.5" fill="#9E037C"/>
<circle cx="45" cy="104.5" r="5.5" fill="#9E037C"/>
<circle cx="45" cy="131.5" r="5.5" fill="#9E037C"/>
<line x1="21.0079" y1="117.129" x2="44.0079" y2="104.129" stroke="#9E037C" stroke-width="2"/>
<line x1="19.9886" y1="117.127" x2="44.9886" y2="131.127" stroke="#9E037C" stroke-width="2"/>
<path d="M312.218 69.5098L320.603 72.542V76.1147L309.212 71.2896V68.7583L312.218 69.5098ZM320.603 67.0312L312.205 70.1162L309.212 70.8281V68.2969L320.603 63.4717V67.0312ZM331.94 58.8047L324.9 79.6479H322.079L329.119 58.8047H331.94ZM342.303 70.0371L333.852 67.0181V63.4717L345.335 68.2969V70.8413L342.303 70.0371ZM333.852 72.5684L342.316 69.4834L345.335 68.7583V71.2896L333.852 76.1147V72.5684Z" fill="#0376E1"/>
<path d="M282.5 69H302.5" stroke="white"/>
<path d="M378.854 69.3536C379.049 69.1583 379.049 68.8417 378.854 68.6464L375.672 65.4645C375.476 65.2692 375.16 65.2692 374.964 65.4645C374.769 65.6597 374.769 65.9763 374.964 66.1716L377.793 69L374.964 71.8284C374.769 72.0237 374.769 72.3403 374.964 72.5355C375.16 72.7308 375.476 72.7308 375.672 72.5355L378.854 69.3536ZM350.5 69.5H378.5V68.5H350.5V69.5Z" fill="white"/>
<path d="M190.5 168L163.5 183.588V152.411L190.5 168Z" fill="#1BA48B"/>
</svg>
