<svg width="282" height="22" viewBox="0 0 282 22" fill="none" xmlns="http://www.w3.org/2000/svg">
<path d="M8.19922 1.00488V18.2168C8.19922 18.5977 8.27246 18.8711 8.41895 19.0371C8.49707 19.1348 8.57031 19.1982 8.63867 19.2275C8.70703 19.2471 8.93164 19.3057 9.3125 19.4033C9.78125 19.5107 10.0156 19.7793 10.0156 20.209C10.0156 20.4629 9.88867 20.668 9.63477 20.8242C9.44922 20.9414 9.1416 21 8.71191 21H8.21387H1.68066H1.2998C0.948242 21 0.674805 20.9365 0.479492 20.8096C0.293945 20.6729 0.201172 20.4824 0.201172 20.2383C0.201172 19.8379 0.396484 19.5742 0.787109 19.4473C1.10938 19.3398 1.29492 19.2764 1.34375 19.2568C1.40234 19.2275 1.46094 19.1689 1.51953 19.0811C1.63672 18.9248 1.69531 18.6758 1.69531 18.334V3.6709C1.69531 3.3291 1.63672 3.08008 1.51953 2.92383C1.46094 2.83594 1.40234 2.78223 1.34375 2.7627C1.29492 2.7334 1.10938 2.66504 0.787109 2.55762C0.396484 2.43066 0.201172 2.16699 0.201172 1.7666C0.201172 1.52246 0.293945 1.33691 0.479492 1.20996C0.674805 1.07324 0.948242 1.00488 1.2998 1.00488H1.68066H8.19922ZM9.48828 1.00488H15.3916V6.11719C15.3916 6.44922 15.333 6.68848 15.2158 6.83496C15.0986 6.98145 14.9082 7.05469 14.6445 7.05469C14.4492 7.05469 14.293 7.00586 14.1758 6.9082C14.0684 6.80078 13.9756 6.625 13.8975 6.38086C13.751 5.90234 13.5605 5.46289 13.3262 5.0625C13.0918 4.66211 12.8281 4.32031 12.5352 4.03711C12.1348 3.64648 11.6953 3.34863 11.2168 3.14355C10.7383 2.93848 10.1621 2.79687 9.48828 2.71875V1.00488ZM9.41504 11.6689V9.96973C9.99121 9.69629 10.4111 9.40332 10.6748 9.09082C10.9482 8.76855 11.1484 8.33398 11.2754 7.78711C11.3535 7.41602 11.4561 7.16211 11.583 7.02539C11.71 6.87891 11.8906 6.80566 12.125 6.80566C12.4375 6.80566 12.6523 6.92773 12.7695 7.17188C12.8379 7.29883 12.8721 7.58691 12.8721 8.03613V13.6172C12.8721 14.0762 12.8184 14.3936 12.7109 14.5693C12.6133 14.7451 12.4277 14.833 12.1543 14.833C11.9297 14.833 11.7539 14.7646 11.627 14.6279C11.5 14.4912 11.3975 14.2617 11.3193 13.9395C11.1436 13.2656 10.9043 12.748 10.6016 12.3867C10.2988 12.0254 9.90332 11.7861 9.41504 11.6689ZM23.8561 21H17.3229H16.942C16.5904 21 16.317 20.9365 16.1217 20.8096C15.9361 20.6729 15.8434 20.4824 15.8434 20.2383C15.8434 19.8379 16.0387 19.5742 16.4293 19.4473C16.7516 19.3398 16.9371 19.2764 16.9859 19.2568C17.0445 19.2275 17.1031 19.1689 17.1617 19.0811C17.2789 18.9248 17.3375 18.6758 17.3375 18.334V3.6709C17.3375 3.3291 17.2789 3.08008 17.1617 2.92383C17.1031 2.83594 17.0445 2.78223 16.9859 2.7627C16.9371 2.7334 16.7516 2.66504 16.4293 2.55762C16.0387 2.43066 15.8434 2.16699 15.8434 1.7666C15.8434 1.52246 15.9361 1.33691 16.1217 1.20996C16.317 1.07324 16.5904 1.00488 16.942 1.00488H17.3229H23.8561H24.2369C24.5885 1.00488 24.857 1.07324 25.0426 1.20996C25.2379 1.33691 25.3355 1.52246 25.3355 1.7666C25.3355 2.16699 25.1402 2.43066 24.7496 2.55762C24.4273 2.66504 24.2369 2.7334 24.1783 2.7627C24.1295 2.78223 24.0758 2.83594 24.0172 2.92383C23.9 3.08008 23.8414 3.3291 23.8414 3.6709V18.334C23.8414 18.6758 23.9 18.9248 24.0172 19.0811C24.0758 19.1689 24.1295 19.2275 24.1783 19.2568C24.2369 19.2764 24.4273 19.3398 24.7496 19.4473C25.1402 19.5742 25.3355 19.8379 25.3355 20.2383C25.3355 20.4824 25.2379 20.6729 25.0426 20.8096C24.857 20.9365 24.5885 21 24.2369 21H23.8561ZM34.6789 1.00488L42.4719 14.54V21H38.4729L28.5266 3.86133C28.3117 3.49023 28.1359 3.23145 27.9992 3.08496C27.8625 2.93848 27.6867 2.83105 27.4719 2.7627L26.9152 2.55762C26.7687 2.50879 26.6516 2.4209 26.5637 2.29395C26.4758 2.16699 26.4318 2.02539 26.4318 1.86914C26.4318 1.70313 26.4758 1.55176 26.5637 1.41504C26.6516 1.26855 26.7687 1.16602 26.9152 1.10742C27.0812 1.03906 27.5305 1.00488 28.2629 1.00488H34.6789ZM28.5412 6.14648L30.0939 8.72461V16.5762C30.0939 17.2598 30.2062 17.8213 30.4309 18.2607C30.6652 18.7002 31.0314 19.0615 31.5295 19.3447L31.9689 19.5938C32.2229 19.7402 32.3498 19.96 32.3498 20.2529C32.3498 20.4775 32.257 20.6631 32.0715 20.8096C31.9152 20.9365 31.593 21 31.1047 21H27.7209C26.8322 21 26.3879 20.7461 26.3879 20.2383C26.3879 20.0625 26.4318 19.9258 26.5197 19.8281C26.6174 19.7207 26.8225 19.5791 27.135 19.4033C28.0725 18.8857 28.5412 17.9434 28.5412 16.5762V6.14648ZM42.4719 12.1963L40.9191 9.57422V5.5166C40.9191 4.69629 40.7971 4.07129 40.5529 3.6416C40.3186 3.20215 39.8986 2.82617 39.2932 2.51367C39.0881 2.41602 38.9465 2.31348 38.8684 2.20605C38.7902 2.08887 38.7512 1.94238 38.7512 1.7666C38.7512 1.50293 38.8342 1.3125 39.0002 1.19531C39.176 1.06836 39.4543 1.00488 39.8352 1.00488H43.4973C43.9953 1.00488 44.3225 1.08301 44.4787 1.23926C44.6447 1.39551 44.7277 1.58105 44.7277 1.7959C44.7277 2.00098 44.6789 2.15723 44.5812 2.26465C44.4934 2.3623 44.2736 2.49902 43.9221 2.6748C43.4045 2.93848 43.0139 3.34375 42.7502 3.89062C42.5646 4.29102 42.4719 4.83301 42.4719 5.5166V12.1963ZM53.1922 1.00488V21H46.6736H46.2928C45.9412 21 45.6678 20.9365 45.4725 20.8096C45.2869 20.6729 45.1941 20.4824 45.1941 20.2383C45.1941 19.8379 45.3895 19.5742 45.7801 19.4473C46.1023 19.3398 46.2879 19.2764 46.3367 19.2568C46.3953 19.2275 46.4539 19.1689 46.5125 19.0811C46.6297 18.9248 46.6883 18.6758 46.6883 18.334V3.6709C46.6883 3.3291 46.6297 3.08008 46.5125 2.92383C46.4539 2.83594 46.3953 2.78223 46.3367 2.7627C46.2879 2.7334 46.1023 2.66504 45.7801 2.55762C45.3895 2.43066 45.1941 2.16699 45.1941 1.7666C45.1941 1.52246 45.2869 1.33691 45.4725 1.20996C45.6678 1.07324 45.9412 1.00488 46.2928 1.00488H46.6736H53.1922ZM56.1512 16.8105V5.25293C56.1512 4.54004 56.0486 3.97363 55.8436 3.55371C55.7166 3.28027 55.5604 3.08008 55.3748 2.95312C55.1893 2.82617 54.8963 2.71875 54.4959 2.63086V1.00488C55.0135 1.00488 55.4529 1.02441 55.8143 1.06348C57.0545 1.2002 58.2557 1.72754 59.4178 2.64551C60.5701 3.53418 61.4246 4.69141 61.9813 6.11719C62.5574 7.5625 62.8455 9.16406 62.8455 10.9219C62.8455 12.9141 62.4793 14.6865 61.7469 16.2393C61.0145 17.7822 59.9646 18.998 58.5975 19.8867C57.9334 20.3164 57.3133 20.6094 56.7371 20.7656C56.1707 20.9219 55.4236 21 54.4959 21V19.418C54.9061 19.3105 55.1893 19.2129 55.3455 19.125C55.5115 19.0371 55.6531 18.9004 55.7703 18.7148C55.9168 18.5 56.0145 18.2607 56.0633 17.9971C56.1219 17.7236 56.1512 17.3281 56.1512 16.8105ZM80.2725 11.8301V18.2168C80.2725 18.5977 80.3457 18.8711 80.4922 19.0371C80.5703 19.1348 80.6436 19.1982 80.7119 19.2275C80.7803 19.2471 81.0049 19.3057 81.3857 19.4033C81.8545 19.5107 82.0889 19.7793 82.0889 20.209C82.0889 20.4922 81.957 20.707 81.6934 20.8535C81.5371 20.9512 81.2344 21 80.7852 21H80.2871H73.7539H73.2705C72.8311 21 72.5234 20.9414 72.3477 20.8242C72.0938 20.668 71.9668 20.4629 71.9668 20.209C71.9668 19.7793 72.2012 19.5107 72.6699 19.4033C73.0508 19.3057 73.2754 19.2471 73.3438 19.2275C73.4121 19.1982 73.4805 19.1348 73.5488 19.0371C73.6953 18.8711 73.7686 18.5977 73.7686 18.2168V13.2656L69.623 3.37793C69.4668 3.00684 69.2471 2.73828 68.9639 2.57227C68.7002 2.40625 68.5293 2.27441 68.4512 2.17676C68.3828 2.0791 68.3486 1.94238 68.3486 1.7666C68.3486 1.25879 68.7197 1.00488 69.4619 1.00488H76.6396C77.0205 1.00488 77.2842 1.04883 77.4307 1.13672C77.6748 1.29297 77.7969 1.49805 77.7969 1.75195C77.7969 2.06445 77.6553 2.30859 77.3721 2.48438L76.9473 2.74805C76.7812 2.85547 76.6982 3.0166 76.6982 3.23145C76.6982 3.47559 76.752 3.71484 76.8594 3.94922L80.2725 11.8301ZM80.8438 10.4385L80.0234 8.51953L81.5615 5.07715C81.6885 4.78418 81.752 4.38379 81.752 3.87598C81.752 3.30957 81.4395 2.9043 80.8145 2.66016C80.4727 2.52344 80.248 2.40625 80.1406 2.30859C80.043 2.20117 79.9941 2.04004 79.9941 1.8252C79.9941 1.56152 80.082 1.36133 80.2578 1.22461C80.375 1.13672 80.5068 1.07812 80.6533 1.04883C80.7998 1.01953 81.0537 1.00488 81.415 1.00488H85.0332C85.7168 1.00488 86.0586 1.27832 86.0586 1.8252C86.0586 2.02051 86.0098 2.17188 85.9121 2.2793C85.8242 2.38672 85.6484 2.49902 85.3848 2.61621C84.9062 2.83105 84.5645 3.0459 84.3594 3.26074C84.0664 3.57324 83.8223 3.92969 83.627 4.33008L83.29 5.07715L80.8438 10.4385ZM93.732 2.19141C93.234 2.36719 92.8824 2.60645 92.6773 2.90918C92.4723 3.21191 92.3697 3.65625 92.3697 4.24219V17.3379C92.3697 18.1973 92.4869 18.8027 92.7213 19.1543C92.9068 19.4473 93.2438 19.6572 93.732 19.7842V21.3955C91.5641 21.2197 89.7477 20.4043 88.2828 18.9492C86.3785 17.0547 85.4264 14.4131 85.4264 11.0244C85.4264 9.3252 85.6754 7.79199 86.1734 6.4248C86.6813 5.04785 87.4283 3.88086 88.4146 2.92383C89.1666 2.19141 89.9771 1.63477 90.8463 1.25391C91.7154 0.873047 92.6773 0.658203 93.732 0.609375V2.19141ZM94.9332 2.19141V0.609375C95.9879 0.658203 96.9498 0.873047 97.8189 1.25391C98.6979 1.63477 99.5133 2.19141 100.265 2.92383C102.257 4.86719 103.254 7.56738 103.254 11.0244C103.254 14.4131 102.301 17.0547 100.397 18.9492C98.9322 20.4141 97.1109 21.2295 94.9332 21.3955V19.7842C95.1871 19.7256 95.3824 19.6523 95.5191 19.5645C95.6656 19.4668 95.7975 19.3301 95.9146 19.1543C96.1783 18.7539 96.3102 18.1484 96.3102 17.3379V4.24219C96.3102 3.72461 96.2223 3.31445 96.0465 3.01172C95.9293 2.80664 95.7877 2.64551 95.6217 2.52832C95.4654 2.41113 95.2359 2.29883 94.9332 2.19141ZM104.965 15.1553V3.6709C104.965 3.3291 104.906 3.08008 104.789 2.92383C104.731 2.83594 104.672 2.78223 104.613 2.7627C104.565 2.7334 104.379 2.66504 104.057 2.55762C103.666 2.43066 103.471 2.17188 103.471 1.78125C103.471 1.52734 103.564 1.33691 103.749 1.20996C103.945 1.07324 104.218 1.00488 104.57 1.00488H104.95H111.484H111.864L112.392 1.06348C112.558 1.1123 112.695 1.2002 112.802 1.32715C112.909 1.4541 112.963 1.60547 112.963 1.78125C112.963 2.17188 112.768 2.43066 112.377 2.55762C112.055 2.66504 111.864 2.7334 111.806 2.7627C111.757 2.78223 111.703 2.83594 111.645 2.92383C111.528 3.08008 111.469 3.3291 111.469 3.6709V15.9609C111.469 16.791 111.488 17.3721 111.528 17.7041C111.576 18.0264 111.669 18.3193 111.806 18.583C111.933 18.8271 112.074 19.0029 112.231 19.1104C112.387 19.2178 112.685 19.3398 113.124 19.4766V21.3955H112.802C111.532 21.3955 110.478 21.2832 109.638 21.0586C108.652 20.7949 107.787 20.4043 107.045 19.8867C106.303 19.3691 105.776 18.7881 105.463 18.1436C105.131 17.46 104.965 16.4639 104.965 15.1553ZM114.472 21.3955V19.4766C115.448 19.3496 116.264 18.9492 116.918 18.2754C117.66 17.5039 118.031 16.3955 118.031 14.9502V5.39941C118.031 4.06152 117.519 3.12891 116.493 2.60156C116.191 2.44531 115.99 2.31348 115.893 2.20605C115.805 2.08887 115.761 1.92285 115.761 1.70801C115.761 1.4541 115.854 1.27344 116.039 1.16602C116.225 1.05859 116.528 1.00488 116.947 1.00488H120.536C120.839 1.00488 121.039 1.01465 121.137 1.03418C121.244 1.04395 121.347 1.07812 121.445 1.13672C121.698 1.2832 121.825 1.4834 121.825 1.7373C121.825 1.95215 121.747 2.13281 121.591 2.2793C121.542 2.32812 121.332 2.45996 120.961 2.6748C120.531 2.90918 120.195 3.27051 119.95 3.75879C119.706 4.2373 119.584 4.78418 119.584 5.39941V14.9648C119.584 16.6055 119.223 17.9531 118.5 19.0078C117.973 19.7891 117.216 20.4141 116.23 20.8828C115.741 21.1172 115.155 21.2881 114.472 21.3955ZM130.671 1.00488V18.2168C130.671 18.5977 130.744 18.8711 130.89 19.0371C130.969 19.1348 131.042 19.1982 131.11 19.2275C131.179 19.2471 131.403 19.3057 131.784 19.4033C132.253 19.5107 132.487 19.7793 132.487 20.209C132.487 20.4629 132.36 20.668 132.106 20.8242C131.921 20.9414 131.613 21 131.183 21H130.685H124.152H123.771C123.42 21 123.146 20.9365 122.951 20.8096C122.765 20.6729 122.673 20.4824 122.673 20.2383C122.673 19.8379 122.868 19.5742 123.259 19.4473C123.581 19.3398 123.766 19.2764 123.815 19.2568C123.874 19.2275 123.932 19.1689 123.991 19.0811C124.108 18.9248 124.167 18.6758 124.167 18.334V3.6709C124.167 3.3291 124.108 3.08008 123.991 2.92383C123.932 2.83594 123.874 2.78223 123.815 2.7627C123.766 2.7334 123.581 2.66504 123.259 2.55762C122.868 2.43066 122.673 2.16699 122.673 1.7666C122.673 1.52246 122.765 1.33691 122.951 1.20996C123.146 1.07324 123.42 1.00488 123.771 1.00488H124.152H130.671ZM135.168 11.2002C136.066 11.3369 136.755 11.4883 137.233 11.6543C137.721 11.8203 138.161 12.0449 138.552 12.3281C138.962 12.6309 139.274 12.9922 139.489 13.4121C139.714 13.832 139.826 14.2764 139.826 14.7451V17.7773C139.826 18.0898 139.929 18.2461 140.134 18.2461C140.212 18.2461 140.275 18.2266 140.324 18.1875C140.383 18.1387 140.461 18.0508 140.558 17.9238C140.803 17.5918 141.052 17.4258 141.305 17.4258C141.471 17.4258 141.637 17.5137 141.804 17.6895C141.97 17.8652 142.053 18.041 142.053 18.2168C142.053 18.5195 141.906 18.8906 141.613 19.3301C141.33 19.7598 140.973 20.1455 140.544 20.4873C140.143 20.8096 139.709 21.0391 139.24 21.1758C138.771 21.3223 138.22 21.3955 137.585 21.3955C136.296 21.3955 135.29 21.0293 134.567 20.2969C133.845 19.5547 133.483 18.5244 133.483 17.2061V14.7451C133.483 14.1982 133.478 13.8809 133.469 13.793C133.42 13.4023 133.283 13.0654 133.058 12.7822C132.775 12.4404 132.37 12.2402 131.843 12.1816V10.6143C132.37 10.5361 132.746 10.3994 132.971 10.2041C133.166 10.0283 133.298 9.82812 133.366 9.60352C133.444 9.37891 133.483 9.04688 133.483 8.60742V4.72559C133.483 4.11035 133.361 3.65137 133.117 3.34863C132.883 3.0459 132.453 2.80664 131.828 2.63086V1.00488H132.209C133.293 1.00488 134.216 1.04395 134.977 1.12207C136.11 1.22949 137.121 1.60059 138.01 2.23535C139.289 3.14355 139.929 4.4375 139.929 6.11719C139.929 7.49414 139.499 8.62207 138.639 9.50098C138.278 9.87207 137.853 10.1748 137.365 10.4092C136.887 10.6436 136.154 10.9072 135.168 11.2002ZM156.462 21H149.929H149.548C149.196 21 148.923 20.9365 148.728 20.8096C148.542 20.6729 148.449 20.4824 148.449 20.2383C148.449 19.8379 148.645 19.5742 149.035 19.4473C149.357 19.3398 149.543 19.2764 149.592 19.2568C149.65 19.2275 149.709 19.1689 149.768 19.0811C149.885 18.9248 149.943 18.6758 149.943 18.334V3.6709C149.943 3.3291 149.885 3.08008 149.768 2.92383C149.709 2.83594 149.65 2.78223 149.592 2.7627C149.543 2.7334 149.357 2.66504 149.035 2.55762C148.645 2.43066 148.449 2.16699 148.449 1.7666C148.449 1.52246 148.542 1.33691 148.728 1.20996C148.923 1.07324 149.196 1.00488 149.548 1.00488H149.929H156.462H156.843C157.194 1.00488 157.463 1.07324 157.648 1.20996C157.844 1.33691 157.941 1.52246 157.941 1.7666C157.941 2.16699 157.746 2.43066 157.355 2.55762C157.033 2.66504 156.843 2.7334 156.784 2.7627C156.735 2.78223 156.682 2.83594 156.623 2.92383C156.506 3.08008 156.447 3.3291 156.447 3.6709V18.334C156.447 18.6758 156.506 18.9248 156.623 19.0811C156.682 19.1689 156.735 19.2275 156.784 19.2568C156.843 19.2764 157.033 19.3398 157.355 19.4473C157.746 19.5742 157.941 19.8379 157.941 20.2383C157.941 20.4824 157.844 20.6729 157.648 20.8096C157.463 20.9365 157.194 21 156.843 21H156.462ZM166.992 1.00488V21H160.473H160.092C159.741 21 159.467 20.9365 159.272 20.8096C159.087 20.6729 158.994 20.4824 158.994 20.2383C158.994 19.8379 159.189 19.5742 159.58 19.4473C159.902 19.3398 160.087 19.2764 160.136 19.2568C160.195 19.2275 160.254 19.1689 160.312 19.0811C160.429 18.9248 160.488 18.6758 160.488 18.334V3.6709C160.488 3.3291 160.429 3.08008 160.312 2.92383C160.254 2.83594 160.195 2.78223 160.136 2.7627C160.087 2.7334 159.902 2.66504 159.58 2.55762C159.189 2.43066 158.994 2.16699 158.994 1.7666C158.994 1.52246 159.087 1.33691 159.272 1.20996C159.467 1.07324 159.741 1.00488 160.092 1.00488H160.473H166.992ZM169.951 16.8105V5.25293C169.951 4.54004 169.848 3.97363 169.643 3.55371C169.516 3.28027 169.36 3.08008 169.174 2.95312C168.989 2.82617 168.696 2.71875 168.296 2.63086V1.00488C168.813 1.00488 169.253 1.02441 169.614 1.06348C170.854 1.2002 172.055 1.72754 173.217 2.64551C174.37 3.53418 175.224 4.69141 175.781 6.11719C176.357 7.5625 176.645 9.16406 176.645 10.9219C176.645 12.9141 176.279 14.6865 175.546 16.2393C174.814 17.7822 173.764 18.998 172.397 19.8867C171.733 20.3164 171.113 20.6094 170.537 20.7656C169.97 20.9219 169.223 21 168.296 21V19.418C168.706 19.3105 168.989 19.2129 169.145 19.125C169.311 19.0371 169.453 18.9004 169.57 18.7148C169.716 18.5 169.814 18.2607 169.863 17.9971C169.921 17.7236 169.951 17.3281 169.951 16.8105ZM185.095 1.00488V21H178.576H178.196C177.844 21 177.571 20.9365 177.375 20.8096C177.19 20.6729 177.097 20.4824 177.097 20.2383C177.097 19.8379 177.292 19.5742 177.683 19.4473C178.005 19.3398 178.191 19.2764 178.239 19.2568C178.298 19.2275 178.357 19.1689 178.415 19.0811C178.532 18.9248 178.591 18.6758 178.591 18.334V3.6709C178.591 3.3291 178.532 3.08008 178.415 2.92383C178.357 2.83594 178.298 2.78223 178.239 2.7627C178.191 2.7334 178.005 2.66504 177.683 2.55762C177.292 2.43066 177.097 2.16699 177.097 1.7666C177.097 1.52246 177.19 1.33691 177.375 1.20996C177.571 1.07324 177.844 1.00488 178.196 1.00488H178.576H185.095ZM186.399 1.00488H192.302V6.19043C192.302 6.49316 192.243 6.71289 192.126 6.84961C192.009 6.98633 191.823 7.05469 191.57 7.05469C191.355 7.05469 191.198 7.01074 191.101 6.92285C191.003 6.83496 190.91 6.6543 190.822 6.38086C190.451 5.24805 189.904 4.38379 189.182 3.78809C188.469 3.19238 187.541 2.83594 186.399 2.71875V1.00488ZM186.325 11.6689V9.96973C186.892 9.69629 187.312 9.39844 187.585 9.07617C187.859 8.75391 188.059 8.32422 188.186 7.78711C188.264 7.41602 188.366 7.16211 188.493 7.02539C188.62 6.87891 188.801 6.80566 189.035 6.80566C189.348 6.80566 189.563 6.92773 189.68 7.17188C189.748 7.29883 189.782 7.58691 189.782 8.03613V13.6172C189.782 14.0762 189.729 14.3936 189.621 14.5693C189.524 14.7451 189.338 14.833 189.065 14.833C188.84 14.833 188.664 14.7646 188.537 14.6279C188.41 14.4912 188.308 14.2617 188.23 13.9395C188.064 13.2656 187.824 12.748 187.512 12.3867C187.209 12.0254 186.814 11.7861 186.325 11.6689ZM186.413 21V19.418C187.048 19.3203 187.571 19.1836 187.981 19.0078C188.401 18.832 188.821 18.5635 189.24 18.2021C189.66 17.8408 189.992 17.4697 190.237 17.0889C190.49 16.6982 190.73 16.1855 190.954 15.5508C191.062 15.2383 191.174 15.0283 191.291 14.9209C191.408 14.8037 191.57 14.7451 191.775 14.7451C192.048 14.7451 192.238 14.8281 192.346 14.9941C192.453 15.1504 192.507 15.4287 192.507 15.8291V21H186.413ZM199.228 1.00488H205.132L209.204 18.2168C209.282 18.5195 209.37 18.7881 209.468 19.0225C209.555 19.208 209.751 19.3594 210.054 19.4766C210.307 19.584 210.483 19.6914 210.581 19.7988C210.679 19.9062 210.727 20.0527 210.727 20.2383C210.727 20.7461 210.346 21 209.585 21H202.275C201.982 21 201.748 20.9316 201.572 20.7949C201.396 20.6484 201.308 20.458 201.308 20.2236C201.308 20.0283 201.347 19.8818 201.426 19.7842C201.504 19.6865 201.679 19.5645 201.953 19.418C202.148 19.3203 202.285 19.2129 202.363 19.0957C202.441 18.9785 202.48 18.832 202.48 18.6562C202.48 18.4902 202.466 18.3438 202.436 18.2168L201.968 16.0928H197.881L198.276 14.3496H201.557L198.862 2.44043L199.228 1.00488ZM198.218 4.72559L198.965 7.75781L196.372 17.2207C196.294 17.4941 196.255 17.748 196.255 17.9824C196.255 18.5977 196.543 19.0371 197.119 19.3008L197.632 19.5352C197.954 19.6816 198.115 19.9258 198.115 20.2676C198.115 20.7559 197.759 21 197.046 21H193.325C192.964 21 192.676 20.9268 192.461 20.7803C192.256 20.624 192.153 20.4141 192.153 20.1504C192.153 19.8672 192.368 19.6328 192.798 19.4473C193.198 19.2715 193.491 19.1152 193.677 18.9785C193.872 18.832 194.057 18.6367 194.233 18.3926C194.507 17.9922 194.731 17.46 194.907 16.7959L198.218 4.72559ZM218.577 21H212.058H211.677C211.326 21 211.052 20.9365 210.857 20.8096C210.671 20.6729 210.579 20.4824 210.579 20.2383C210.579 19.8379 210.774 19.5742 211.164 19.4473C211.487 19.3398 211.672 19.2764 211.721 19.2568C211.78 19.2275 211.838 19.1689 211.897 19.0811C212.014 18.9248 212.073 18.6758 212.073 18.334V3.6709C212.073 3.3291 212.014 3.08008 211.897 2.92383C211.838 2.83594 211.78 2.78223 211.721 2.7627C211.672 2.7334 211.487 2.66504 211.164 2.55762C210.774 2.43066 210.579 2.16699 210.579 1.7666C210.579 1.52246 210.671 1.33691 210.857 1.20996C211.052 1.07324 211.326 1.00488 211.677 1.00488H212.058H218.591H219.089C219.519 1.00488 219.827 1.06348 220.012 1.18066C220.266 1.33691 220.393 1.54199 220.393 1.7959C220.393 2.22559 220.159 2.49414 219.69 2.60156C219.309 2.68945 219.084 2.74805 219.016 2.77734C218.948 2.80664 218.874 2.86523 218.796 2.95312C218.65 3.12891 218.577 3.40234 218.577 3.77344V21ZM219.763 21V19.3594C220.242 19.2715 220.618 19.1738 220.891 19.0664C221.174 18.959 221.443 18.8027 221.697 18.5977C222.107 18.2754 222.483 17.8311 222.825 17.2646C223.166 16.6982 223.445 16.0684 223.66 15.375C223.816 14.8379 223.957 14.4863 224.084 14.3203C224.221 14.1445 224.416 14.0566 224.67 14.0566C224.944 14.0566 225.144 14.1689 225.271 14.3936C225.329 14.501 225.359 14.7158 225.359 15.0381V21H219.763ZM237.468 17.6455V3.78809C237.468 3.18262 237.293 2.84082 236.941 2.7627L236.37 2.61621C235.901 2.49902 235.667 2.23047 235.667 1.81055C235.667 1.54688 235.774 1.35156 235.989 1.22461C236.213 1.08789 236.541 1.01953 236.97 1.01953L237.454 1.00488H243.972L244.368 0.990234L244.895 1.04883C245.276 1.15625 245.466 1.39551 245.466 1.7666C245.466 2.15723 245.271 2.4209 244.88 2.55762L244.412 2.7041C244.119 2.80176 243.972 3.12402 243.972 3.6709V15.917C243.972 17.7041 243.386 19.0664 242.214 20.0039C241.658 20.4434 240.95 20.7852 240.09 21.0293C239.231 21.2832 238.323 21.4102 237.366 21.4102C237.2 21.4102 236.917 21.4004 236.516 21.3809V19.6816C236.585 19.6328 236.633 19.5986 236.663 19.5791C236.858 19.4326 236.995 19.3154 237.073 19.2275C237.161 19.1299 237.234 19.0127 237.293 18.876C237.41 18.5537 237.468 18.1436 237.468 17.6455ZM235.198 19.6816V21.293C233.977 21.0977 233.001 20.7607 232.268 20.2822C231.604 19.8428 231.087 19.3057 230.715 18.6709C230.354 18.0264 230.173 17.3379 230.173 16.6055C230.173 15.7168 230.476 14.9551 231.082 14.3203C231.697 13.6855 232.429 13.3682 233.279 13.3682C234.089 13.3682 234.778 13.6562 235.344 14.2324C235.921 14.7988 236.209 15.4824 236.209 16.2832C236.209 16.9082 235.999 17.4893 235.579 18.0264C235.296 18.3877 234.885 18.6855 234.348 18.9199C234.172 19.0078 234.08 19.0762 234.07 19.125C234.06 19.1738 234.099 19.2373 234.187 19.3154C234.285 19.3838 234.402 19.4473 234.539 19.5059C234.685 19.5645 234.905 19.623 235.198 19.6816ZM253.814 2.19141C253.316 2.36719 252.964 2.60645 252.759 2.90918C252.554 3.21191 252.451 3.65625 252.451 4.24219V17.3379C252.451 18.1973 252.569 18.8027 252.803 19.1543C252.988 19.4473 253.325 19.6572 253.814 19.7842V21.3955C251.646 21.2197 249.829 20.4043 248.364 18.9492C246.46 17.0547 245.508 14.4131 245.508 11.0244C245.508 9.3252 245.757 7.79199 246.255 6.4248C246.763 5.04785 247.51 3.88086 248.496 2.92383C249.248 2.19141 250.059 1.63477 250.928 1.25391C251.797 0.873047 252.759 0.658203 253.814 0.609375V2.19141ZM255.015 2.19141V0.609375C256.07 0.658203 257.031 0.873047 257.901 1.25391C258.779 1.63477 259.595 2.19141 260.347 2.92383C262.339 4.86719 263.335 7.56738 263.335 11.0244C263.335 14.4131 262.383 17.0547 260.479 18.9492C259.014 20.4141 257.193 21.2295 255.015 21.3955V19.7842C255.269 19.7256 255.464 19.6523 255.601 19.5645C255.747 19.4668 255.879 19.3301 255.996 19.1543C256.26 18.7539 256.392 18.1484 256.392 17.3379V4.24219C256.392 3.72461 256.304 3.31445 256.128 3.01172C256.011 2.80664 255.869 2.64551 255.703 2.52832C255.547 2.41113 255.318 2.29883 255.015 2.19141ZM271.8 1.00488V21H265.281H264.9C264.549 21 264.275 20.9365 264.08 20.8096C263.894 20.6729 263.802 20.4824 263.802 20.2383C263.802 19.8379 263.997 19.5742 264.388 19.4473C264.71 19.3398 264.895 19.2764 264.944 19.2568C265.003 19.2275 265.061 19.1689 265.12 19.0811C265.237 18.9248 265.296 18.6758 265.296 18.334V3.6709C265.296 3.3291 265.237 3.08008 265.12 2.92383C265.061 2.83594 265.003 2.78223 264.944 2.7627C264.895 2.7334 264.71 2.66504 264.388 2.55762C263.997 2.43066 263.802 2.16699 263.802 1.7666C263.802 1.52246 263.894 1.33691 264.08 1.20996C264.275 1.07324 264.549 1.00488 264.9 1.00488H265.281H271.8ZM276.355 10.6436C277.234 10.8193 277.908 10.9902 278.377 11.1562C278.855 11.3223 279.285 11.5322 279.666 11.7861C280.32 12.2061 280.818 12.7627 281.16 13.4561C281.512 14.1396 281.687 14.9062 281.687 15.7559C281.687 17.4258 281.072 18.7295 279.842 19.667C279.207 20.1553 278.504 20.502 277.732 20.707C276.971 20.9023 275.97 21 274.729 21H272.986V19.4619C273.377 19.4326 273.684 19.3789 273.909 19.3008C274.134 19.2129 274.334 19.0713 274.51 18.876C274.832 18.5146 274.993 17.9531 274.993 17.1914V13.8662C274.993 13.3779 274.949 12.9971 274.861 12.7236C274.783 12.4502 274.632 12.2012 274.407 11.9766C274.241 11.8008 274.06 11.6738 273.865 11.5957C273.67 11.5176 273.391 11.4541 273.03 11.4053V9.88184C273.391 9.85254 273.67 9.80371 273.865 9.73535C274.07 9.66699 274.256 9.55469 274.422 9.39844C274.578 9.25195 274.71 9.06152 274.817 8.82715C274.925 8.59277 274.983 8.37793 274.993 8.18262V7.37695V4.84277C274.993 4.5791 274.949 4.30566 274.861 4.02246C274.773 3.72949 274.666 3.5 274.539 3.33398C274.353 3.10938 274.143 2.94336 273.909 2.83594C273.684 2.72852 273.377 2.65527 272.986 2.61621V1.00488H274.671C276.897 1.00488 278.596 1.46387 279.768 2.38184C280.305 2.80176 280.716 3.30957 280.999 3.90527C281.282 4.50098 281.424 5.14551 281.424 5.83887C281.424 6.52246 281.277 7.16699 280.984 7.77246C280.701 8.37793 280.301 8.88086 279.783 9.28125C279.402 9.59375 278.963 9.84766 278.465 10.043C277.967 10.2383 277.263 10.4385 276.355 10.6436Z"/>
</svg>
