<svg width="63" height="20" viewBox="0 0 63 20" fill="none" xmlns="http://www.w3.org/2000/svg">
<path d="M0 10C0 4.47715 4.47715 0 10 0H53.0022C58.5239 0 63 4.47615 63 9.99775V9.99775C63 15.5218 58.5218 20 52.9977 20H10C4.47715 20 0 15.5228 0 10V10Z" fill="#F5F5F5"/>
<path d="M10.1113 7.7168H10.9316V12.8877C10.9316 13.3532 10.8372 13.7503 10.6484 14.0791C10.4596 14.4079 10.196 14.6569 9.85742 14.8262C9.52214 14.9987 9.13477 15.085 8.69531 15.085C8.51302 15.085 8.29818 15.0557 8.05078 14.9971C7.80664 14.9417 7.56576 14.8457 7.32812 14.709C7.09375 14.5755 6.89681 14.3949 6.7373 14.167L7.21094 13.6299C7.43229 13.8968 7.66341 14.0824 7.9043 14.1865C8.14844 14.2907 8.38932 14.3428 8.62695 14.3428C8.91341 14.3428 9.16081 14.2891 9.36914 14.1816C9.57747 14.0742 9.73861 13.9147 9.85254 13.7031C9.96973 13.4948 10.0283 13.2376 10.0283 12.9316V8.87891L10.1113 7.7168ZM6.47363 10.417V10.3145C6.47363 9.91081 6.52083 9.5446 6.61523 9.21582C6.71289 8.88379 6.85124 8.59896 7.03027 8.36133C7.21257 8.1237 7.43229 7.94141 7.68945 7.81445C7.94661 7.68424 8.23633 7.61914 8.55859 7.61914C8.89062 7.61914 9.18034 7.67773 9.42773 7.79492C9.67839 7.90885 9.88997 8.0765 10.0625 8.29785C10.2383 8.51595 10.3766 8.77962 10.4775 9.08887C10.5785 9.39811 10.6484 9.74805 10.6875 10.1387V10.5879C10.6517 10.9753 10.5817 11.3236 10.4775 11.6328C10.3766 11.9421 10.2383 12.2057 10.0625 12.4238C9.88997 12.6419 9.67839 12.8096 9.42773 12.9268C9.17708 13.0407 8.88411 13.0977 8.54883 13.0977C8.23307 13.0977 7.94661 13.0309 7.68945 12.8975C7.43555 12.764 7.21745 12.5768 7.03516 12.3359C6.85286 12.0951 6.71289 11.8118 6.61523 11.4863C6.52083 11.1576 6.47363 10.8011 6.47363 10.417ZM7.37695 10.3145V10.417C7.37695 10.6807 7.40299 10.9281 7.45508 11.1592C7.51042 11.3903 7.59342 11.5938 7.7041 11.7695C7.81803 11.9453 7.96289 12.0837 8.13867 12.1846C8.31445 12.2822 8.52441 12.3311 8.76855 12.3311C9.06803 12.3311 9.31543 12.2676 9.51074 12.1406C9.70605 12.0137 9.86068 11.846 9.97461 11.6377C10.0918 11.4294 10.1829 11.2031 10.248 10.959V9.78223C10.2122 9.60319 10.1569 9.43066 10.082 9.26465C10.0104 9.09538 9.91602 8.94564 9.79883 8.81543C9.6849 8.68197 9.54329 8.57617 9.37402 8.49805C9.20475 8.41992 9.00618 8.38086 8.77832 8.38086C8.53092 8.38086 8.31771 8.43294 8.13867 8.53711C7.96289 8.63802 7.81803 8.77799 7.7041 8.95703C7.59342 9.13281 7.51042 9.33789 7.45508 9.57227C7.40299 9.80339 7.37695 10.0508 7.37695 10.3145ZM13.2952 7.7168V13H12.387V7.7168H13.2952ZM12.3186 6.31543C12.3186 6.16895 12.3625 6.04525 12.4504 5.94434C12.5416 5.84342 12.675 5.79297 12.8508 5.79297C13.0233 5.79297 13.1552 5.84342 13.2463 5.94434C13.3407 6.04525 13.3879 6.16895 13.3879 6.31543C13.3879 6.4554 13.3407 6.57585 13.2463 6.67676C13.1552 6.77441 13.0233 6.82324 12.8508 6.82324C12.675 6.82324 12.5416 6.77441 12.4504 6.67676C12.3625 6.57585 12.3186 6.4554 12.3186 6.31543ZM16.9673 7.7168V8.41016H14.1108V7.7168H16.9673ZM15.0776 6.43262H15.9809V11.6914C15.9809 11.8704 16.0086 12.0055 16.0639 12.0967C16.1193 12.1878 16.1909 12.248 16.2788 12.2773C16.3667 12.3066 16.4611 12.3213 16.562 12.3213C16.6369 12.3213 16.715 12.3148 16.7964 12.3018C16.881 12.2855 16.9445 12.2725 16.9868 12.2627L16.9917 13C16.9201 13.0228 16.8257 13.0439 16.7085 13.0635C16.5945 13.0863 16.4562 13.0977 16.2934 13.0977C16.0721 13.0977 15.8686 13.0537 15.6831 12.9658C15.4975 12.8779 15.3494 12.7314 15.2388 12.5264C15.1313 12.318 15.0776 12.0381 15.0776 11.6865V6.43262ZM18.9402 5.5V13H18.0368V5.5H18.9402ZM18.7253 10.1582L18.3493 10.1436C18.3526 9.78223 18.4063 9.44857 18.5105 9.14258C18.6146 8.83333 18.7611 8.56478 18.9499 8.33691C19.1387 8.10905 19.3633 7.93327 19.6237 7.80957C19.8874 7.68262 20.1788 7.61914 20.4978 7.61914C20.7582 7.61914 20.9926 7.65495 21.2009 7.72656C21.4092 7.79492 21.5866 7.9056 21.7331 8.05859C21.8829 8.21159 21.9968 8.41016 22.0749 8.6543C22.153 8.89518 22.1921 9.18978 22.1921 9.53809V13H21.2839V9.52832C21.2839 9.25163 21.2432 9.03027 21.1618 8.86426C21.0805 8.69499 20.9616 8.57292 20.8054 8.49805C20.6491 8.41992 20.4571 8.38086 20.2292 8.38086C20.0046 8.38086 19.7995 8.42806 19.614 8.52246C19.4317 8.61686 19.2738 8.74707 19.1404 8.91309C19.0101 9.0791 18.9076 9.26953 18.8327 9.48438C18.7611 9.69596 18.7253 9.92057 18.7253 10.1582ZM26.7871 11.7793V7.7168H27.6953V13H26.831L26.7871 11.7793ZM26.958 10.666L27.3339 10.6562C27.3339 11.0078 27.2965 11.3333 27.2216 11.6328C27.15 11.929 27.0328 12.1862 26.8701 12.4043C26.7073 12.6224 26.4941 12.7933 26.2304 12.917C25.9668 13.0374 25.6461 13.0977 25.2685 13.0977C25.0114 13.0977 24.7754 13.0602 24.5605 12.9854C24.3489 12.9105 24.1666 12.7949 24.0136 12.6387C23.8606 12.4824 23.7418 12.279 23.6572 12.0283C23.5758 11.7777 23.5351 11.4766 23.5351 11.125V7.7168H24.4384V11.1348C24.4384 11.3724 24.4645 11.5693 24.5166 11.7256C24.5719 11.8786 24.6451 12.0007 24.7363 12.0918C24.8307 12.1797 24.9349 12.2415 25.0488 12.2773C25.166 12.3132 25.2864 12.3311 25.4101 12.3311C25.7942 12.3311 26.0986 12.2578 26.3232 12.1113C26.5478 11.9616 26.7089 11.7614 26.8066 11.5107C26.9075 11.2568 26.958 10.9753 26.958 10.666ZM29.0773 5.5H29.9855V11.9746L29.9074 13H29.0773V5.5ZM33.5549 10.3145V10.417C33.5549 10.8011 33.5093 11.1576 33.4182 11.4863C33.327 11.8118 33.1936 12.0951 33.0178 12.3359C32.842 12.5768 32.6271 12.764 32.3732 12.8975C32.1193 13.0309 31.828 13.0977 31.4992 13.0977C31.1639 13.0977 30.8693 13.0407 30.6154 12.9268C30.3648 12.8096 30.1532 12.6419 29.9807 12.4238C29.8081 12.2057 29.6698 11.9421 29.5656 11.6328C29.4647 11.3236 29.3947 10.9753 29.3557 10.5879V10.1387C29.3947 9.74805 29.4647 9.39811 29.5656 9.08887C29.6698 8.77962 29.8081 8.51595 29.9807 8.29785C30.1532 8.0765 30.3648 7.90885 30.6154 7.79492C30.8661 7.67773 31.1574 7.61914 31.4895 7.61914C31.8215 7.61914 32.1161 7.68424 32.3732 7.81445C32.6304 7.94141 32.8452 8.1237 33.0178 8.36133C33.1936 8.59896 33.327 8.88379 33.4182 9.21582C33.5093 9.5446 33.5549 9.91081 33.5549 10.3145ZM32.6467 10.417V10.3145C32.6467 10.0508 32.6223 9.80339 32.5734 9.57227C32.5246 9.33789 32.4465 9.13281 32.3391 8.95703C32.2316 8.77799 32.09 8.63802 31.9143 8.53711C31.7385 8.43294 31.522 8.38086 31.2648 8.38086C31.037 8.38086 30.8384 8.41992 30.6691 8.49805C30.5031 8.57617 30.3615 8.68197 30.2443 8.81543C30.1271 8.94564 30.0311 9.09538 29.9562 9.26465C29.8846 9.43066 29.8309 9.60319 29.7951 9.78223V10.959C29.8472 11.1868 29.9318 11.4066 30.049 11.6182C30.1695 11.8265 30.329 11.9974 30.5275 12.1309C30.7294 12.2643 30.9784 12.3311 31.2746 12.3311C31.5187 12.3311 31.7271 12.2822 31.8996 12.1846C32.0754 12.0837 32.217 11.9453 32.3244 11.7695C32.4351 11.5938 32.5165 11.3903 32.5686 11.1592C32.6206 10.9281 32.6467 10.6807 32.6467 10.417ZM34.7221 12.5215C34.7221 12.3685 34.7693 12.2399 34.8637 12.1357C34.9614 12.0283 35.1013 11.9746 35.2836 11.9746C35.4659 11.9746 35.6043 12.0283 35.6987 12.1357C35.7963 12.2399 35.8452 12.3685 35.8452 12.5215C35.8452 12.6712 35.7963 12.7982 35.6987 12.9023C35.6043 13.0065 35.4659 13.0586 35.2836 13.0586C35.1013 13.0586 34.9614 13.0065 34.8637 12.9023C34.7693 12.7982 34.7221 12.6712 34.7221 12.5215ZM39.4684 12.3555C39.6833 12.3555 39.8818 12.3115 40.0641 12.2236C40.2464 12.1357 40.3962 12.0153 40.5134 11.8623C40.6305 11.7061 40.6973 11.5286 40.7136 11.3301H41.5729C41.5567 11.6426 41.4509 11.9339 41.2555 12.2041C41.0635 12.471 40.8112 12.6875 40.4987 12.8535C40.1862 13.0163 39.8428 13.0977 39.4684 13.0977C39.0713 13.0977 38.7246 13.0277 38.4284 12.8877C38.1354 12.7477 37.8913 12.5557 37.696 12.3115C37.5039 12.0674 37.3591 11.7874 37.2614 11.4717C37.167 11.1527 37.1198 10.8158 37.1198 10.4609V10.2559C37.1198 9.90104 37.167 9.56576 37.2614 9.25C37.3591 8.93099 37.5039 8.64941 37.696 8.40527C37.8913 8.16113 38.1354 7.96908 38.4284 7.8291C38.7246 7.68913 39.0713 7.61914 39.4684 7.61914C39.8818 7.61914 40.2432 7.70378 40.5524 7.87305C40.8617 8.03906 41.1042 8.26693 41.28 8.55664C41.459 8.8431 41.5567 9.16862 41.5729 9.5332H40.7136C40.6973 9.3151 40.6354 9.11816 40.528 8.94238C40.4238 8.7666 40.2806 8.62663 40.0983 8.52246C39.9193 8.41504 39.7093 8.36133 39.4684 8.36133C39.1917 8.36133 38.959 8.41667 38.7702 8.52734C38.5846 8.63477 38.4365 8.78125 38.3259 8.9668C38.2184 9.14909 38.1403 9.35254 38.0915 9.57715C38.0459 9.7985 38.0231 10.0247 38.0231 10.2559V10.4609C38.0231 10.6921 38.0459 10.9199 38.0915 11.1445C38.1371 11.3691 38.2136 11.5726 38.321 11.7549C38.4317 11.9372 38.5798 12.0837 38.7653 12.1943C38.9541 12.3018 39.1885 12.3555 39.4684 12.3555ZM42.3593 10.417V10.3047C42.3593 9.92383 42.4146 9.57064 42.5253 9.24512C42.636 8.91634 42.7955 8.63151 43.0038 8.39062C43.2122 8.14648 43.4644 7.95768 43.7607 7.82422C44.0569 7.6875 44.3889 7.61914 44.7568 7.61914C45.1279 7.61914 45.4615 7.6875 45.7577 7.82422C46.0572 7.95768 46.3111 8.14648 46.5195 8.39062C46.731 8.63151 46.8922 8.91634 47.0029 9.24512C47.1135 9.57064 47.1689 9.92383 47.1689 10.3047V10.417C47.1689 10.7979 47.1135 11.151 47.0029 11.4766C46.8922 11.8021 46.731 12.0869 46.5195 12.3311C46.3111 12.5719 46.0588 12.7607 45.7626 12.8975C45.4697 13.0309 45.1376 13.0977 44.7665 13.0977C44.3954 13.0977 44.0618 13.0309 43.7655 12.8975C43.4693 12.7607 43.2154 12.5719 43.0038 12.3311C42.7955 12.0869 42.636 11.8021 42.5253 11.4766C42.4146 11.151 42.3593 10.7979 42.3593 10.417ZM43.2626 10.3047V10.417C43.2626 10.6807 43.2935 10.9297 43.3554 11.1641C43.4172 11.3952 43.51 11.6003 43.6337 11.7793C43.7607 11.9583 43.9185 12.0999 44.1073 12.2041C44.2961 12.305 44.5159 12.3555 44.7665 12.3555C45.0139 12.3555 45.2304 12.305 45.4159 12.2041C45.6047 12.0999 45.761 11.9583 45.8847 11.7793C46.0084 11.6003 46.1012 11.3952 46.163 11.1641C46.2281 10.9297 46.2607 10.6807 46.2607 10.417V10.3047C46.2607 10.0443 46.2281 9.7985 46.163 9.56738C46.1012 9.33301 46.0068 9.1263 45.8798 8.94727C45.7561 8.76497 45.5999 8.62174 45.4111 8.51758C45.2255 8.41341 45.0074 8.36133 44.7568 8.36133C44.5094 8.36133 44.2913 8.41341 44.1025 8.51758C43.9169 8.62174 43.7607 8.76497 43.6337 8.94727C43.51 9.1263 43.4172 9.33301 43.3554 9.56738C43.2935 9.7985 43.2626 10.0443 43.2626 10.3047ZM49.2101 8.7666V13H48.3019V7.7168H49.1613L49.2101 8.7666ZM49.0246 10.1582L48.6046 10.1436C48.6079 9.78223 48.6551 9.44857 48.7463 9.14258C48.8374 8.83333 48.9725 8.56478 49.1515 8.33691C49.3306 8.10905 49.5535 7.93327 49.8205 7.80957C50.0874 7.68262 50.3966 7.61914 50.7482 7.61914C50.9956 7.61914 51.2235 7.65495 51.4318 7.72656C51.6401 7.79492 51.8208 7.90397 51.9738 8.05371C52.1268 8.20345 52.2456 8.39551 52.3302 8.62988C52.4149 8.86426 52.4572 9.14746 52.4572 9.47949V13H51.5539V9.52344C51.5539 9.24674 51.5067 9.02539 51.4123 8.85938C51.3211 8.69336 51.1909 8.57292 51.0216 8.49805C50.8524 8.41992 50.6538 8.38086 50.4259 8.38086C50.159 8.38086 49.936 8.42806 49.757 8.52246C49.578 8.61686 49.4347 8.74707 49.3273 8.91309C49.2199 9.0791 49.1418 9.26953 49.0929 9.48438C49.0474 9.69596 49.0246 9.92057 49.0246 10.1582ZM52.4474 9.66016L51.842 9.8457C51.8452 9.55599 51.8924 9.27767 51.9836 9.01074C52.078 8.74382 52.213 8.50618 52.3888 8.29785C52.5679 8.08952 52.7876 7.92513 53.048 7.80469C53.3084 7.68099 53.6063 7.61914 53.9416 7.61914C54.2248 7.61914 54.4754 7.65658 54.6935 7.73145C54.9149 7.80632 55.1004 7.92188 55.2502 8.07812C55.4032 8.23112 55.5187 8.42806 55.5968 8.66895C55.675 8.90983 55.714 9.19629 55.714 9.52832V13H54.8058V9.51855C54.8058 9.22233 54.7586 8.99284 54.6642 8.83008C54.5731 8.66406 54.4429 8.5485 54.2736 8.4834C54.1076 8.41504 53.909 8.38086 53.6779 8.38086C53.4793 8.38086 53.3035 8.41504 53.1505 8.4834C52.9976 8.55176 52.869 8.64616 52.7648 8.7666C52.6606 8.88379 52.5809 9.01888 52.5255 9.17188C52.4735 9.32487 52.4474 9.48763 52.4474 9.66016Z" fill="#ED702D"/>
</svg>
