<svg width="23" height="24" viewBox="0 0 23 24" fill="none" xmlns="http://www.w3.org/2000/svg">
<path d="M19.5778 8.68994V3.99994H14.8878L11.5778 0.689941L8.26782 3.99994H3.57782V8.68994L0.267822 11.9999L3.57782 15.3099V19.9999H8.26782L11.5778 23.3099L14.8878 19.9999H19.5778V15.3099L22.8878 11.9999L19.5778 8.68994ZM11.5778 17.9999C10.6878 17.9999 9.83782 17.7999 9.07782 17.4499C11.1378 16.4999 12.5778 14.4199 12.5778 11.9999C12.5778 9.57994 11.1378 7.49994 9.07782 6.54994C9.83782 6.19994 10.6878 5.99994 11.5778 5.99994C14.8878 5.99994 17.5778 8.68994 17.5778 11.9999C17.5778 15.3099 14.8878 17.9999 11.5778 17.9999Z" fill="white"/>
</svg>
