<svg width="15" height="14" viewBox="0 0 15 14" fill="none" xmlns="http://www.w3.org/2000/svg">
<path d="M7.2943 1.16663C4.0743 1.16663 1.4668 3.77996 1.4668 6.99996C1.4668 10.22 4.0743 12.8333 7.2943 12.8333C10.5201 12.8333 13.1335 10.22 13.1335 6.99996C13.1335 3.77996 10.5201 1.16663 7.2943 1.16663ZM7.30013 11.6666C4.7218 11.6666 2.63346 9.57829 2.63346 6.99996C2.63346 4.42163 4.7218 2.33329 7.30013 2.33329C9.87846 2.33329 11.9668 4.42163 11.9668 6.99996C11.9668 9.57829 9.87846 11.6666 7.30013 11.6666Z" fill="#949494"/>
<path d="M7.5918 4.08337H6.7168V7.58337L9.7793 9.42087L10.2168 8.70337L7.5918 7.14587V4.08337Z" fill="#949494"/>
</svg>
