<svg width="16" height="12" viewBox="0 0 16 12"  fill="none"  xmlns="http://www.w3.org/2000/svg">
<path fill-rule="evenodd" clip-rule="evenodd" d="M7.66707 2.59844C9.8918 2.59854 12.0315 3.45265 13.6438 4.98424C13.7652 5.10249 13.9593 5.101 14.0789 4.9809L15.2395 3.81057C15.3 3.74966 15.3338 3.66715 15.3333 3.5813C15.3328 3.49545 15.2981 3.41334 15.2368 3.35314C11.0049 -0.699093 4.32857 -0.699093 0.0966565 3.35314C0.0353544 3.41329 0.000572274 3.49538 6.99859e-06 3.58123C-0.000558277 3.66708 0.0331399 3.74961 0.0936446 3.81057L1.25459 4.9809C1.37409 5.10118 1.56831 5.10267 1.68965 4.98424C3.30221 3.45255 5.44212 2.59844 7.66707 2.59844ZM7.66707 6.40603C8.88942 6.40595 10.0681 6.8599 10.9742 7.67968C11.0968 7.79602 11.2898 7.7935 11.4093 7.67399L12.5685 6.50366C12.6296 6.44228 12.6635 6.359 12.6626 6.27247C12.6617 6.18593 12.6261 6.10336 12.5639 6.04322C9.8047 3.47882 5.53178 3.47882 2.77262 6.04322C2.7103 6.10336 2.67474 6.18597 2.67392 6.27253C2.6731 6.3591 2.70709 6.44237 2.76827 6.50366L3.92721 7.67399C4.04667 7.7935 4.23972 7.79602 4.36227 7.67968C5.26774 6.86045 6.44553 6.40653 7.66707 6.40603ZM9.98929 8.96786C9.99106 9.05464 9.95692 9.13831 9.89492 9.1991L7.88962 11.2211C7.83084 11.2805 7.75069 11.314 7.66707 11.314C7.58345 11.314 7.5033 11.2805 7.44452 11.2211L5.43888 9.1991C5.37693 9.13826 5.34284 9.05457 5.34468 8.96779C5.34652 8.88101 5.38411 8.79884 5.44859 8.74067C6.72925 7.6584 8.60489 7.6584 9.88555 8.74067C9.94998 8.79888 9.98752 8.88108 9.98929 8.96786Z"/>
</svg>
