<svg width="390" height="240" viewBox="0 0 390 240" fill="none" xmlns="http://www.w3.org/2000/svg">
<rect width="390" height="240" fill="black"/>
<rect width="106" height="25" transform="translate(171 149)" fill="#FFD98E"/>
<path d="M182.12 164.651C182.12 164.423 182.085 164.218 182.015 164.036C181.95 163.849 181.827 163.679 181.646 163.526C181.464 163.368 181.209 163.213 180.881 163.061C180.553 162.908 180.128 162.75 179.606 162.586C179.026 162.398 178.476 162.188 177.954 161.953C177.439 161.719 176.981 161.446 176.583 161.136C176.19 160.819 175.88 160.453 175.651 160.037C175.429 159.621 175.317 159.138 175.317 158.587C175.317 158.054 175.435 157.57 175.669 157.137C175.903 156.697 176.231 156.322 176.653 156.012C177.075 155.695 177.573 155.452 178.147 155.282C178.728 155.112 179.363 155.027 180.055 155.027C180.998 155.027 181.821 155.197 182.524 155.537C183.228 155.877 183.772 156.343 184.159 156.935C184.552 157.526 184.748 158.203 184.748 158.965H182.129C182.129 158.59 182.05 158.262 181.892 157.98C181.739 157.693 181.505 157.468 181.189 157.304C180.878 157.14 180.485 157.058 180.011 157.058C179.554 157.058 179.173 157.128 178.868 157.269C178.564 157.403 178.335 157.588 178.183 157.822C178.03 158.051 177.954 158.309 177.954 158.596C177.954 158.812 178.007 159.009 178.112 159.185C178.224 159.36 178.388 159.524 178.605 159.677C178.821 159.829 179.088 159.973 179.404 160.107C179.721 160.242 180.087 160.374 180.503 160.503C181.2 160.714 181.813 160.951 182.34 161.215C182.873 161.479 183.318 161.774 183.676 162.103C184.033 162.431 184.303 162.803 184.484 163.219C184.666 163.635 184.757 164.106 184.757 164.634C184.757 165.19 184.648 165.688 184.432 166.128C184.215 166.567 183.901 166.939 183.491 167.244C183.081 167.549 182.592 167.78 182.023 167.938C181.455 168.097 180.819 168.176 180.116 168.176C179.483 168.176 178.859 168.094 178.244 167.93C177.629 167.76 177.069 167.505 176.565 167.165C176.067 166.825 175.669 166.392 175.37 165.864C175.071 165.337 174.922 164.713 174.922 163.992H177.567C177.567 164.391 177.629 164.728 177.752 165.003C177.875 165.278 178.048 165.501 178.271 165.671C178.499 165.841 178.769 165.964 179.079 166.04C179.396 166.116 179.741 166.154 180.116 166.154C180.573 166.154 180.948 166.09 181.241 165.961C181.54 165.832 181.76 165.653 181.9 165.425C182.047 165.196 182.12 164.938 182.12 164.651ZM188.861 154.5V168H186.33V154.5H188.861ZM188.501 162.911H187.807C187.813 162.249 187.9 161.64 188.07 161.083C188.24 160.521 188.483 160.034 188.8 159.624C189.116 159.208 189.494 158.886 189.934 158.657C190.379 158.429 190.871 158.314 191.41 158.314C191.879 158.314 192.304 158.382 192.685 158.517C193.071 158.646 193.402 158.856 193.678 159.149C193.959 159.437 194.176 159.814 194.328 160.283C194.48 160.752 194.557 161.32 194.557 161.988V168H192.008V161.971C192.008 161.549 191.946 161.218 191.823 160.978C191.706 160.731 191.533 160.559 191.305 160.459C191.082 160.354 190.807 160.301 190.479 160.301C190.115 160.301 189.805 160.368 189.547 160.503C189.295 160.638 189.093 160.825 188.94 161.065C188.788 161.3 188.677 161.575 188.606 161.892C188.536 162.208 188.501 162.548 188.501 162.911ZM201.614 165.855V161.619C201.614 161.314 201.564 161.054 201.465 160.837C201.365 160.614 201.21 160.441 200.999 160.318C200.794 160.195 200.527 160.134 200.199 160.134C199.918 160.134 199.675 160.184 199.47 160.283C199.265 160.377 199.106 160.515 198.995 160.696C198.884 160.872 198.828 161.08 198.828 161.32H196.297C196.297 160.916 196.391 160.532 196.578 160.169C196.766 159.806 197.038 159.486 197.396 159.211C197.753 158.93 198.178 158.71 198.67 158.552C199.168 158.394 199.725 158.314 200.34 158.314C201.078 158.314 201.734 158.438 202.309 158.684C202.883 158.93 203.334 159.299 203.662 159.791C203.996 160.283 204.163 160.898 204.163 161.637V165.706C204.163 166.228 204.195 166.655 204.26 166.989C204.324 167.317 204.418 167.604 204.541 167.851V168H201.983C201.86 167.742 201.767 167.42 201.702 167.033C201.644 166.641 201.614 166.248 201.614 165.855ZM201.948 162.208L201.966 163.641H200.551C200.217 163.641 199.927 163.679 199.681 163.755C199.435 163.831 199.232 163.939 199.074 164.08C198.916 164.215 198.799 164.373 198.723 164.555C198.652 164.736 198.617 164.936 198.617 165.152C198.617 165.369 198.667 165.565 198.767 165.741C198.866 165.911 199.01 166.046 199.197 166.146C199.385 166.239 199.605 166.286 199.856 166.286C200.237 166.286 200.568 166.21 200.85 166.058C201.131 165.905 201.348 165.718 201.5 165.495C201.658 165.272 201.74 165.062 201.746 164.862L202.414 165.935C202.32 166.175 202.191 166.424 202.027 166.682C201.869 166.939 201.667 167.183 201.421 167.411C201.175 167.634 200.879 167.818 200.533 167.965C200.188 168.105 199.777 168.176 199.303 168.176C198.699 168.176 198.151 168.056 197.659 167.815C197.173 167.569 196.786 167.232 196.499 166.805C196.218 166.371 196.077 165.879 196.077 165.328C196.077 164.83 196.171 164.388 196.358 164.001C196.546 163.614 196.821 163.289 197.185 163.025C197.554 162.756 198.014 162.554 198.564 162.419C199.115 162.278 199.754 162.208 200.48 162.208H201.948ZM208.646 160.564V168H206.114V158.49H208.496L208.646 160.564ZM211.511 158.429L211.467 160.775C211.344 160.758 211.194 160.743 211.019 160.731C210.849 160.714 210.693 160.705 210.553 160.705C210.195 160.705 209.885 160.752 209.621 160.846C209.363 160.934 209.147 161.065 208.971 161.241C208.801 161.417 208.672 161.631 208.584 161.883C208.502 162.135 208.455 162.422 208.443 162.744L207.934 162.586C207.934 161.971 207.995 161.405 208.118 160.89C208.241 160.368 208.42 159.914 208.654 159.527C208.895 159.141 209.188 158.842 209.533 158.631C209.879 158.42 210.274 158.314 210.72 158.314C210.86 158.314 211.004 158.326 211.15 158.35C211.297 158.367 211.417 158.394 211.511 158.429ZM216.907 168.176C216.169 168.176 215.507 168.059 214.921 167.824C214.335 167.584 213.837 167.253 213.427 166.831C213.022 166.409 212.712 165.92 212.495 165.363C212.278 164.801 212.17 164.203 212.17 163.57V163.219C212.17 162.498 212.272 161.839 212.478 161.241C212.683 160.644 212.976 160.125 213.356 159.686C213.743 159.246 214.212 158.909 214.763 158.675C215.314 158.435 215.935 158.314 216.626 158.314C217.3 158.314 217.897 158.426 218.419 158.648C218.94 158.871 219.377 159.188 219.729 159.598C220.086 160.008 220.355 160.5 220.537 161.074C220.719 161.643 220.81 162.275 220.81 162.973V164.027H213.251V162.34H218.322V162.146C218.322 161.795 218.258 161.481 218.129 161.206C218.006 160.925 217.818 160.702 217.566 160.538C217.314 160.374 216.992 160.292 216.6 160.292C216.266 160.292 215.979 160.365 215.738 160.512C215.498 160.658 215.302 160.863 215.149 161.127C215.003 161.391 214.892 161.701 214.815 162.059C214.745 162.41 214.71 162.797 214.71 163.219V163.57C214.71 163.951 214.763 164.303 214.868 164.625C214.98 164.947 215.135 165.226 215.334 165.46C215.539 165.694 215.785 165.876 216.072 166.005C216.365 166.134 216.696 166.198 217.065 166.198C217.522 166.198 217.947 166.11 218.34 165.935C218.738 165.753 219.081 165.48 219.368 165.117L220.599 166.453C220.399 166.74 220.127 167.016 219.781 167.279C219.441 167.543 219.031 167.76 218.551 167.93C218.07 168.094 217.522 168.176 216.907 168.176ZM229.405 158.49V168H226.865V158.49H229.405ZM226.707 156.012C226.707 155.643 226.836 155.338 227.094 155.098C227.352 154.857 227.697 154.737 228.131 154.737C228.559 154.737 228.901 154.857 229.159 155.098C229.423 155.338 229.555 155.643 229.555 156.012C229.555 156.381 229.423 156.686 229.159 156.926C228.901 157.166 228.559 157.286 228.131 157.286C227.697 157.286 227.352 157.166 227.094 156.926C226.836 156.686 226.707 156.381 226.707 156.012ZM237.113 165.926V154.5H239.662V168H237.368L237.113 165.926ZM231.102 163.359V163.175C231.102 162.448 231.184 161.789 231.348 161.197C231.512 160.6 231.752 160.087 232.068 159.659C232.385 159.231 232.774 158.9 233.237 158.666C233.7 158.432 234.228 158.314 234.819 158.314C235.376 158.314 235.862 158.432 236.278 158.666C236.7 158.9 237.058 159.234 237.351 159.668C237.649 160.096 237.89 160.603 238.071 161.188C238.253 161.769 238.385 162.404 238.467 163.096V163.5C238.385 164.162 238.253 164.777 238.071 165.346C237.89 165.914 237.649 166.412 237.351 166.84C237.058 167.262 236.7 167.59 236.278 167.824C235.856 168.059 235.364 168.176 234.802 168.176C234.21 168.176 233.683 168.056 233.22 167.815C232.763 167.575 232.376 167.238 232.06 166.805C231.749 166.371 231.512 165.861 231.348 165.275C231.184 164.689 231.102 164.051 231.102 163.359ZM233.633 163.175V163.359C233.633 163.752 233.662 164.118 233.721 164.458C233.785 164.798 233.888 165.1 234.028 165.363C234.175 165.621 234.362 165.823 234.591 165.97C234.825 166.11 235.109 166.181 235.443 166.181C235.877 166.181 236.234 166.084 236.516 165.891C236.797 165.691 237.011 165.419 237.157 165.073C237.31 164.728 237.397 164.329 237.421 163.878V162.727C237.403 162.357 237.351 162.026 237.263 161.733C237.181 161.435 237.058 161.18 236.894 160.969C236.735 160.758 236.536 160.594 236.296 160.477C236.062 160.359 235.783 160.301 235.461 160.301C235.133 160.301 234.852 160.377 234.617 160.529C234.383 160.676 234.192 160.878 234.046 161.136C233.905 161.394 233.8 161.698 233.73 162.05C233.665 162.396 233.633 162.771 233.633 163.175ZM246.017 168.176C245.278 168.176 244.616 168.059 244.03 167.824C243.444 167.584 242.946 167.253 242.536 166.831C242.132 166.409 241.821 165.92 241.605 165.363C241.388 164.801 241.279 164.203 241.279 163.57V163.219C241.279 162.498 241.382 161.839 241.587 161.241C241.792 160.644 242.085 160.125 242.466 159.686C242.853 159.246 243.321 158.909 243.872 158.675C244.423 158.435 245.044 158.314 245.735 158.314C246.409 158.314 247.007 158.426 247.528 158.648C248.05 158.871 248.486 159.188 248.838 159.598C249.195 160.008 249.465 160.5 249.647 161.074C249.828 161.643 249.919 162.275 249.919 162.973V164.027H242.36V162.34H247.432V162.146C247.432 161.795 247.367 161.481 247.238 161.206C247.115 160.925 246.928 160.702 246.676 160.538C246.424 160.374 246.102 160.292 245.709 160.292C245.375 160.292 245.088 160.365 244.848 160.512C244.607 160.658 244.411 160.863 244.259 161.127C244.112 161.391 244.001 161.701 243.925 162.059C243.855 162.41 243.819 162.797 243.819 163.219V163.57C243.819 163.951 243.872 164.303 243.978 164.625C244.089 164.947 244.244 165.226 244.443 165.46C244.648 165.694 244.895 165.876 245.182 166.005C245.475 166.134 245.806 166.198 246.175 166.198C246.632 166.198 247.057 166.11 247.449 165.935C247.848 165.753 248.19 165.48 248.478 165.117L249.708 166.453C249.509 166.74 249.236 167.016 248.891 167.279C248.551 167.543 248.141 167.76 247.66 167.93C247.18 168.094 246.632 168.176 246.017 168.176ZM256.493 165.855V161.619C256.493 161.314 256.443 161.054 256.344 160.837C256.244 160.614 256.089 160.441 255.878 160.318C255.673 160.195 255.406 160.134 255.078 160.134C254.797 160.134 254.554 160.184 254.349 160.283C254.144 160.377 253.985 160.515 253.874 160.696C253.763 160.872 253.707 161.08 253.707 161.32H251.176C251.176 160.916 251.27 160.532 251.457 160.169C251.645 159.806 251.917 159.486 252.274 159.211C252.632 158.93 253.057 158.71 253.549 158.552C254.047 158.394 254.604 158.314 255.219 158.314C255.957 158.314 256.613 158.438 257.188 158.684C257.762 158.93 258.213 159.299 258.541 159.791C258.875 160.283 259.042 160.898 259.042 161.637V165.706C259.042 166.228 259.074 166.655 259.139 166.989C259.203 167.317 259.297 167.604 259.42 167.851V168H256.862C256.739 167.742 256.646 167.42 256.581 167.033C256.522 166.641 256.493 166.248 256.493 165.855ZM256.827 162.208L256.845 163.641H255.43C255.096 163.641 254.806 163.679 254.56 163.755C254.314 163.831 254.111 163.939 253.953 164.08C253.795 164.215 253.678 164.373 253.602 164.555C253.531 164.736 253.496 164.936 253.496 165.152C253.496 165.369 253.546 165.565 253.646 165.741C253.745 165.911 253.889 166.046 254.076 166.146C254.264 166.239 254.483 166.286 254.735 166.286C255.116 166.286 255.447 166.21 255.729 166.058C256.01 165.905 256.227 165.718 256.379 165.495C256.537 165.272 256.619 165.062 256.625 164.862L257.293 165.935C257.199 166.175 257.07 166.424 256.906 166.682C256.748 166.939 256.546 167.183 256.3 167.411C256.054 167.634 255.758 167.818 255.412 167.965C255.066 168.105 254.656 168.176 254.182 168.176C253.578 168.176 253.03 168.056 252.538 167.815C252.052 167.569 251.665 167.232 251.378 166.805C251.097 166.371 250.956 165.879 250.956 165.328C250.956 164.83 251.05 164.388 251.237 164.001C251.425 163.614 251.7 163.289 252.064 163.025C252.433 162.756 252.893 162.554 253.443 162.419C253.994 162.278 254.633 162.208 255.359 162.208H256.827ZM266.135 165.372C266.135 165.19 266.082 165.026 265.977 164.88C265.871 164.733 265.675 164.599 265.388 164.476C265.106 164.347 264.699 164.229 264.166 164.124C263.686 164.019 263.237 163.887 262.821 163.729C262.411 163.564 262.054 163.368 261.749 163.14C261.45 162.911 261.216 162.642 261.046 162.331C260.876 162.015 260.791 161.654 260.791 161.25C260.791 160.852 260.876 160.477 261.046 160.125C261.222 159.773 261.471 159.463 261.793 159.193C262.121 158.918 262.52 158.704 262.988 158.552C263.463 158.394 263.996 158.314 264.588 158.314C265.414 158.314 266.123 158.446 266.715 158.71C267.313 158.974 267.77 159.337 268.086 159.8C268.408 160.257 268.569 160.778 268.569 161.364H266.038C266.038 161.118 265.985 160.898 265.88 160.705C265.78 160.506 265.622 160.351 265.405 160.239C265.194 160.122 264.919 160.063 264.579 160.063C264.298 160.063 264.055 160.113 263.85 160.213C263.645 160.307 263.486 160.436 263.375 160.6C263.27 160.758 263.217 160.934 263.217 161.127C263.217 161.273 263.246 161.405 263.305 161.522C263.369 161.634 263.472 161.736 263.612 161.83C263.753 161.924 263.935 162.012 264.157 162.094C264.386 162.17 264.667 162.24 265.001 162.305C265.687 162.445 266.299 162.63 266.838 162.858C267.377 163.081 267.805 163.386 268.121 163.772C268.438 164.153 268.596 164.654 268.596 165.275C268.596 165.697 268.502 166.084 268.314 166.436C268.127 166.787 267.857 167.095 267.506 167.358C267.154 167.616 266.732 167.818 266.24 167.965C265.754 168.105 265.206 168.176 264.597 168.176C263.712 168.176 262.962 168.018 262.347 167.701C261.737 167.385 261.274 166.983 260.958 166.497C260.647 166.005 260.492 165.501 260.492 164.985H262.892C262.903 165.331 262.991 165.609 263.155 165.82C263.325 166.031 263.539 166.184 263.797 166.277C264.061 166.371 264.345 166.418 264.649 166.418C264.978 166.418 265.25 166.374 265.467 166.286C265.684 166.192 265.848 166.069 265.959 165.917C266.076 165.759 266.135 165.577 266.135 165.372ZM272.639 165.864L272.63 167.561C272.63 168.211 272.466 168.867 272.138 169.529C271.815 170.191 271.405 170.733 270.907 171.155L269.589 170.479C269.735 170.209 269.879 169.939 270.02 169.67C270.16 169.4 270.277 169.104 270.371 168.782C270.465 168.46 270.512 168.094 270.512 167.684V165.864H272.639Z" fill="black"/>
<rect width="154" height="25" transform="translate(215 174)" fill="#82B83E"/>
<path d="M218.779 180.203V193H216.143V180.203H218.779ZM223.877 185.67V187.727H218.059V185.67H223.877ZM224.492 180.203V182.269H218.059V180.203H224.492ZM225.266 188.342V188.157C225.266 187.46 225.365 186.818 225.564 186.232C225.764 185.641 226.054 185.128 226.435 184.694C226.815 184.261 227.284 183.924 227.841 183.684C228.397 183.438 229.036 183.314 229.757 183.314C230.478 183.314 231.119 183.438 231.682 183.684C232.244 183.924 232.716 184.261 233.097 184.694C233.483 185.128 233.776 185.641 233.976 186.232C234.175 186.818 234.274 187.46 234.274 188.157V188.342C234.274 189.033 234.175 189.675 233.976 190.267C233.776 190.853 233.483 191.365 233.097 191.805C232.716 192.238 232.247 192.575 231.69 192.815C231.134 193.056 230.495 193.176 229.774 193.176C229.054 193.176 228.412 193.056 227.85 192.815C227.293 192.575 226.821 192.238 226.435 191.805C226.054 191.365 225.764 190.853 225.564 190.267C225.365 189.675 225.266 189.033 225.266 188.342ZM227.797 188.157V188.342C227.797 188.74 227.832 189.112 227.902 189.458C227.973 189.804 228.084 190.108 228.236 190.372C228.395 190.63 228.6 190.832 228.852 190.979C229.104 191.125 229.411 191.198 229.774 191.198C230.126 191.198 230.428 191.125 230.68 190.979C230.932 190.832 231.134 190.63 231.286 190.372C231.438 190.108 231.55 189.804 231.62 189.458C231.696 189.112 231.734 188.74 231.734 188.342V188.157C231.734 187.771 231.696 187.407 231.62 187.067C231.55 186.722 231.436 186.417 231.277 186.153C231.125 185.884 230.923 185.673 230.671 185.521C230.419 185.368 230.114 185.292 229.757 185.292C229.399 185.292 229.095 185.368 228.843 185.521C228.597 185.673 228.395 185.884 228.236 186.153C228.084 186.417 227.973 186.722 227.902 187.067C227.832 187.407 227.797 187.771 227.797 188.157ZM238.502 179.5V193H235.962V179.5H238.502ZM243.266 179.5V193H240.726V179.5H243.266ZM244.953 188.342V188.157C244.953 187.46 245.053 186.818 245.252 186.232C245.451 185.641 245.741 185.128 246.122 184.694C246.503 184.261 246.972 183.924 247.528 183.684C248.085 183.438 248.724 183.314 249.444 183.314C250.165 183.314 250.807 183.438 251.369 183.684C251.932 183.924 252.403 184.261 252.784 184.694C253.171 185.128 253.464 185.641 253.663 186.232C253.862 186.818 253.962 187.46 253.962 188.157V188.342C253.962 189.033 253.862 189.675 253.663 190.267C253.464 190.853 253.171 191.365 252.784 191.805C252.403 192.238 251.935 192.575 251.378 192.815C250.821 193.056 250.183 193.176 249.462 193.176C248.741 193.176 248.1 193.056 247.537 192.815C246.98 192.575 246.509 192.238 246.122 191.805C245.741 191.365 245.451 190.853 245.252 190.267C245.053 189.675 244.953 189.033 244.953 188.342ZM247.484 188.157V188.342C247.484 188.74 247.52 189.112 247.59 189.458C247.66 189.804 247.771 190.108 247.924 190.372C248.082 190.63 248.287 190.832 248.539 190.979C248.791 191.125 249.099 191.198 249.462 191.198C249.813 191.198 250.115 191.125 250.367 190.979C250.619 190.832 250.821 190.63 250.974 190.372C251.126 190.108 251.237 189.804 251.308 189.458C251.384 189.112 251.422 188.74 251.422 188.342V188.157C251.422 187.771 251.384 187.407 251.308 187.067C251.237 186.722 251.123 186.417 250.965 186.153C250.812 185.884 250.61 185.673 250.358 185.521C250.106 185.368 249.802 185.292 249.444 185.292C249.087 185.292 248.782 185.368 248.53 185.521C248.284 185.673 248.082 185.884 247.924 186.153C247.771 186.417 247.66 186.722 247.59 187.067C247.52 187.407 247.484 187.771 247.484 188.157ZM258.233 190.539L260.211 183.49H261.819L261.301 186.259L259.323 193H257.979L258.233 190.539ZM257.231 183.49L258.646 190.53L258.778 193H257.196L254.788 183.49H257.231ZM263.63 190.416L265.01 183.49H267.462L265.054 193H263.48L263.63 190.416ZM262.039 183.49L264.008 190.486L264.28 193H262.927L260.949 186.268L260.448 183.49H262.039ZM278.835 190.926V179.5H281.384V193H279.09L278.835 190.926ZM272.823 188.359V188.175C272.823 187.448 272.905 186.789 273.069 186.197C273.233 185.6 273.474 185.087 273.79 184.659C274.106 184.231 274.496 183.9 274.959 183.666C275.422 183.432 275.949 183.314 276.541 183.314C277.098 183.314 277.584 183.432 278 183.666C278.422 183.9 278.779 184.234 279.072 184.668C279.371 185.096 279.611 185.603 279.793 186.188C279.975 186.769 280.106 187.404 280.188 188.096V188.5C280.106 189.162 279.975 189.777 279.793 190.346C279.611 190.914 279.371 191.412 279.072 191.84C278.779 192.262 278.422 192.59 278 192.824C277.578 193.059 277.086 193.176 276.523 193.176C275.932 193.176 275.404 193.056 274.941 192.815C274.484 192.575 274.098 192.238 273.781 191.805C273.471 191.371 273.233 190.861 273.069 190.275C272.905 189.689 272.823 189.051 272.823 188.359ZM275.354 188.175V188.359C275.354 188.752 275.384 189.118 275.442 189.458C275.507 189.798 275.609 190.1 275.75 190.363C275.896 190.621 276.084 190.823 276.312 190.97C276.547 191.11 276.831 191.181 277.165 191.181C277.599 191.181 277.956 191.084 278.237 190.891C278.519 190.691 278.732 190.419 278.879 190.073C279.031 189.728 279.119 189.329 279.143 188.878V187.727C279.125 187.357 279.072 187.026 278.984 186.733C278.902 186.435 278.779 186.18 278.615 185.969C278.457 185.758 278.258 185.594 278.018 185.477C277.783 185.359 277.505 185.301 277.183 185.301C276.854 185.301 276.573 185.377 276.339 185.529C276.104 185.676 275.914 185.878 275.768 186.136C275.627 186.394 275.521 186.698 275.451 187.05C275.387 187.396 275.354 187.771 275.354 188.175ZM286.033 183.49V193H283.493V183.49H286.033ZM283.335 181.012C283.335 180.643 283.464 180.338 283.722 180.098C283.979 179.857 284.325 179.737 284.759 179.737C285.187 179.737 285.529 179.857 285.787 180.098C286.051 180.338 286.183 180.643 286.183 181.012C286.183 181.381 286.051 181.686 285.787 181.926C285.529 182.166 285.187 182.286 284.759 182.286C284.325 182.286 283.979 182.166 283.722 181.926C283.464 181.686 283.335 181.381 283.335 181.012ZM293.267 190.372C293.267 190.19 293.214 190.026 293.108 189.88C293.003 189.733 292.807 189.599 292.52 189.476C292.238 189.347 291.831 189.229 291.298 189.124C290.817 189.019 290.369 188.887 289.953 188.729C289.543 188.564 289.186 188.368 288.881 188.14C288.582 187.911 288.348 187.642 288.178 187.331C288.008 187.015 287.923 186.654 287.923 186.25C287.923 185.852 288.008 185.477 288.178 185.125C288.354 184.773 288.603 184.463 288.925 184.193C289.253 183.918 289.651 183.704 290.12 183.552C290.595 183.394 291.128 183.314 291.72 183.314C292.546 183.314 293.255 183.446 293.847 183.71C294.444 183.974 294.901 184.337 295.218 184.8C295.54 185.257 295.701 185.778 295.701 186.364H293.17C293.17 186.118 293.117 185.898 293.012 185.705C292.912 185.506 292.754 185.351 292.537 185.239C292.326 185.122 292.051 185.063 291.711 185.063C291.43 185.063 291.187 185.113 290.981 185.213C290.776 185.307 290.618 185.436 290.507 185.6C290.401 185.758 290.349 185.934 290.349 186.127C290.349 186.273 290.378 186.405 290.437 186.522C290.501 186.634 290.604 186.736 290.744 186.83C290.885 186.924 291.066 187.012 291.289 187.094C291.518 187.17 291.799 187.24 292.133 187.305C292.818 187.445 293.431 187.63 293.97 187.858C294.509 188.081 294.937 188.386 295.253 188.772C295.569 189.153 295.728 189.654 295.728 190.275C295.728 190.697 295.634 191.084 295.446 191.436C295.259 191.787 294.989 192.095 294.638 192.358C294.286 192.616 293.864 192.818 293.372 192.965C292.886 193.105 292.338 193.176 291.729 193.176C290.844 193.176 290.094 193.018 289.479 192.701C288.869 192.385 288.406 191.983 288.09 191.497C287.779 191.005 287.624 190.501 287.624 189.985H290.023C290.035 190.331 290.123 190.609 290.287 190.82C290.457 191.031 290.671 191.184 290.929 191.277C291.192 191.371 291.477 191.418 291.781 191.418C292.109 191.418 292.382 191.374 292.599 191.286C292.815 191.192 292.979 191.069 293.091 190.917C293.208 190.759 293.267 190.577 293.267 190.372ZM301.3 191.198C301.61 191.198 301.886 191.14 302.126 191.022C302.366 190.899 302.554 190.729 302.688 190.513C302.829 190.29 302.902 190.029 302.908 189.73H305.29C305.284 190.398 305.105 190.993 304.754 191.515C304.402 192.03 303.931 192.438 303.339 192.736C302.747 193.029 302.085 193.176 301.353 193.176C300.614 193.176 299.97 193.053 299.419 192.807C298.874 192.561 298.42 192.221 298.057 191.787C297.693 191.348 297.421 190.838 297.239 190.258C297.058 189.672 296.967 189.045 296.967 188.377V188.122C296.967 187.448 297.058 186.821 297.239 186.241C297.421 185.655 297.693 185.146 298.057 184.712C298.42 184.272 298.874 183.93 299.419 183.684C299.964 183.438 300.603 183.314 301.335 183.314C302.114 183.314 302.797 183.464 303.383 183.763C303.975 184.062 304.438 184.489 304.771 185.046C305.111 185.597 305.284 186.25 305.29 187.006H302.908C302.902 186.689 302.835 186.402 302.706 186.145C302.583 185.887 302.401 185.682 302.161 185.529C301.927 185.371 301.637 185.292 301.291 185.292C300.922 185.292 300.62 185.371 300.386 185.529C300.151 185.682 299.97 185.893 299.841 186.162C299.712 186.426 299.621 186.728 299.568 187.067C299.521 187.401 299.498 187.753 299.498 188.122V188.377C299.498 188.746 299.521 189.101 299.568 189.44C299.615 189.78 299.703 190.082 299.832 190.346C299.967 190.609 300.151 190.817 300.386 190.97C300.62 191.122 300.925 191.198 301.3 191.198ZM312.383 190.724V183.49H314.914V193H312.532L312.383 190.724ZM312.664 188.772L313.411 188.755C313.411 189.388 313.338 189.977 313.191 190.521C313.045 191.061 312.825 191.529 312.532 191.928C312.239 192.32 311.87 192.628 311.425 192.851C310.979 193.067 310.455 193.176 309.852 193.176C309.389 193.176 308.961 193.111 308.568 192.982C308.182 192.848 307.848 192.64 307.566 192.358C307.291 192.071 307.074 191.705 306.916 191.26C306.764 190.809 306.688 190.267 306.688 189.634V183.49H309.219V189.651C309.219 189.933 309.251 190.17 309.315 190.363C309.386 190.557 309.482 190.715 309.605 190.838C309.729 190.961 309.872 191.049 310.036 191.102C310.206 191.154 310.394 191.181 310.599 191.181C311.12 191.181 311.53 191.075 311.829 190.864C312.134 190.653 312.348 190.366 312.471 190.003C312.6 189.634 312.664 189.224 312.664 188.772ZM321.989 190.372C321.989 190.19 321.937 190.026 321.831 189.88C321.726 189.733 321.529 189.599 321.242 189.476C320.961 189.347 320.554 189.229 320.021 189.124C319.54 189.019 319.092 188.887 318.676 188.729C318.266 188.564 317.908 188.368 317.604 188.14C317.305 187.911 317.07 187.642 316.9 187.331C316.73 187.015 316.646 186.654 316.646 186.25C316.646 185.852 316.73 185.477 316.9 185.125C317.076 184.773 317.325 184.463 317.647 184.193C317.976 183.918 318.374 183.704 318.843 183.552C319.317 183.394 319.851 183.314 320.442 183.314C321.269 183.314 321.978 183.446 322.569 183.71C323.167 183.974 323.624 184.337 323.94 184.8C324.263 185.257 324.424 185.778 324.424 186.364H321.893C321.893 186.118 321.84 185.898 321.734 185.705C321.635 185.506 321.477 185.351 321.26 185.239C321.049 185.122 320.773 185.063 320.434 185.063C320.152 185.063 319.909 185.113 319.704 185.213C319.499 185.307 319.341 185.436 319.229 185.6C319.124 185.758 319.071 185.934 319.071 186.127C319.071 186.273 319.101 186.405 319.159 186.522C319.224 186.634 319.326 186.736 319.467 186.83C319.607 186.924 319.789 187.012 320.012 187.094C320.24 187.17 320.521 187.24 320.855 187.305C321.541 187.445 322.153 187.63 322.692 187.858C323.231 188.081 323.659 188.386 323.976 188.772C324.292 189.153 324.45 189.654 324.45 190.275C324.45 190.697 324.356 191.084 324.169 191.436C323.981 191.787 323.712 192.095 323.36 192.358C323.009 192.616 322.587 192.818 322.095 192.965C321.608 193.105 321.061 193.176 320.451 193.176C319.566 193.176 318.816 193.018 318.201 192.701C317.592 192.385 317.129 191.983 316.812 191.497C316.502 191.005 316.347 190.501 316.347 189.985H318.746C318.758 190.331 318.846 190.609 319.01 190.82C319.18 191.031 319.394 191.184 319.651 191.277C319.915 191.371 320.199 191.418 320.504 191.418C320.832 191.418 321.104 191.374 321.321 191.286C321.538 191.192 321.702 191.069 321.813 190.917C321.931 190.759 321.989 190.577 321.989 190.372ZM331.235 190.372C331.235 190.19 331.183 190.026 331.077 189.88C330.972 189.733 330.775 189.599 330.488 189.476C330.207 189.347 329.8 189.229 329.267 189.124C328.786 189.019 328.338 188.887 327.922 188.729C327.512 188.564 327.154 188.368 326.85 188.14C326.551 187.911 326.316 187.642 326.146 187.331C325.977 187.015 325.892 186.654 325.892 186.25C325.892 185.852 325.977 185.477 326.146 185.125C326.322 184.773 326.571 184.463 326.894 184.193C327.222 183.918 327.62 183.704 328.089 183.552C328.563 183.394 329.097 183.314 329.688 183.314C330.515 183.314 331.224 183.446 331.815 183.71C332.413 183.974 332.87 184.337 333.187 184.8C333.509 185.257 333.67 185.778 333.67 186.364H331.139C331.139 186.118 331.086 185.898 330.98 185.705C330.881 185.506 330.723 185.351 330.506 185.239C330.295 185.122 330.02 185.063 329.68 185.063C329.398 185.063 329.155 185.113 328.95 185.213C328.745 185.307 328.587 185.436 328.476 185.6C328.37 185.758 328.317 185.934 328.317 186.127C328.317 186.273 328.347 186.405 328.405 186.522C328.47 186.634 328.572 186.736 328.713 186.83C328.854 186.924 329.035 187.012 329.258 187.094C329.486 187.17 329.768 187.24 330.102 187.305C330.787 187.445 331.399 187.63 331.938 187.858C332.478 188.081 332.905 188.386 333.222 188.772C333.538 189.153 333.696 189.654 333.696 190.275C333.696 190.697 333.603 191.084 333.415 191.436C333.228 191.787 332.958 192.095 332.606 192.358C332.255 192.616 331.833 192.818 331.341 192.965C330.854 193.105 330.307 193.176 329.697 193.176C328.812 193.176 328.062 193.018 327.447 192.701C326.838 192.385 326.375 191.983 326.059 191.497C325.748 191.005 325.593 190.501 325.593 189.985H327.992C328.004 190.331 328.092 190.609 328.256 190.82C328.426 191.031 328.64 191.184 328.897 191.277C329.161 191.371 329.445 191.418 329.75 191.418C330.078 191.418 330.351 191.374 330.567 191.286C330.784 191.192 330.948 191.069 331.06 190.917C331.177 190.759 331.235 190.577 331.235 190.372ZM338.012 183.49V193H335.472V183.49H338.012ZM335.313 181.012C335.313 180.643 335.442 180.338 335.7 180.098C335.958 179.857 336.304 179.737 336.737 179.737C337.165 179.737 337.508 179.857 337.766 180.098C338.029 180.338 338.161 180.643 338.161 181.012C338.161 181.381 338.029 181.686 337.766 181.926C337.508 182.166 337.165 182.286 336.737 182.286C336.304 182.286 335.958 182.166 335.7 181.926C335.442 181.686 335.313 181.381 335.313 181.012ZM339.699 188.342V188.157C339.699 187.46 339.799 186.818 339.998 186.232C340.197 185.641 340.487 185.128 340.868 184.694C341.249 184.261 341.718 183.924 342.274 183.684C342.831 183.438 343.47 183.314 344.19 183.314C344.911 183.314 345.553 183.438 346.115 183.684C346.678 183.924 347.149 184.261 347.53 184.694C347.917 185.128 348.21 185.641 348.409 186.232C348.608 186.818 348.708 187.46 348.708 188.157V188.342C348.708 189.033 348.608 189.675 348.409 190.267C348.21 190.853 347.917 191.365 347.53 191.805C347.149 192.238 346.681 192.575 346.124 192.815C345.567 193.056 344.929 193.176 344.208 193.176C343.487 193.176 342.846 193.056 342.283 192.815C341.727 192.575 341.255 192.238 340.868 191.805C340.487 191.365 340.197 190.853 339.998 190.267C339.799 189.675 339.699 189.033 339.699 188.342ZM342.23 188.157V188.342C342.23 188.74 342.266 189.112 342.336 189.458C342.406 189.804 342.518 190.108 342.67 190.372C342.828 190.63 343.033 190.832 343.285 190.979C343.537 191.125 343.845 191.198 344.208 191.198C344.56 191.198 344.861 191.125 345.113 190.979C345.365 190.832 345.567 190.63 345.72 190.372C345.872 190.108 345.983 189.804 346.054 189.458C346.13 189.112 346.168 188.74 346.168 188.342V188.157C346.168 187.771 346.13 187.407 346.054 187.067C345.983 186.722 345.869 186.417 345.711 186.153C345.559 185.884 345.356 185.673 345.104 185.521C344.853 185.368 344.548 185.292 344.19 185.292C343.833 185.292 343.528 185.368 343.276 185.521C343.03 185.673 342.828 185.884 342.67 186.153C342.518 186.417 342.406 186.722 342.336 187.067C342.266 187.407 342.23 187.771 342.23 188.157ZM352.742 185.521V193H350.211V183.49H352.584L352.742 185.521ZM352.373 187.911H351.688C351.688 187.208 351.778 186.575 351.96 186.013C352.142 185.444 352.396 184.961 352.725 184.562C353.053 184.158 353.442 183.851 353.894 183.64C354.351 183.423 354.86 183.314 355.423 183.314C355.868 183.314 356.275 183.379 356.645 183.508C357.014 183.637 357.33 183.842 357.594 184.123C357.863 184.404 358.068 184.776 358.209 185.239C358.355 185.702 358.429 186.268 358.429 186.936V193H355.88V186.927C355.88 186.505 355.821 186.177 355.704 185.942C355.587 185.708 355.414 185.544 355.186 185.45C354.963 185.351 354.688 185.301 354.359 185.301C354.02 185.301 353.724 185.368 353.472 185.503C353.226 185.638 353.021 185.825 352.856 186.065C352.698 186.3 352.578 186.575 352.496 186.892C352.414 187.208 352.373 187.548 352.373 187.911ZM365.495 190.372C365.495 190.19 365.442 190.026 365.337 189.88C365.231 189.733 365.035 189.599 364.748 189.476C364.467 189.347 364.06 189.229 363.526 189.124C363.046 189.019 362.598 188.887 362.182 188.729C361.771 188.564 361.414 188.368 361.109 188.14C360.811 187.911 360.576 187.642 360.406 187.331C360.236 187.015 360.151 186.654 360.151 186.25C360.151 185.852 360.236 185.477 360.406 185.125C360.582 184.773 360.831 184.463 361.153 184.193C361.481 183.918 361.88 183.704 362.349 183.552C362.823 183.394 363.356 183.314 363.948 183.314C364.774 183.314 365.483 183.446 366.075 183.71C366.673 183.974 367.13 184.337 367.446 184.8C367.769 185.257 367.93 185.778 367.93 186.364H365.398C365.398 186.118 365.346 185.898 365.24 185.705C365.141 185.506 364.982 185.351 364.766 185.239C364.555 185.122 364.279 185.063 363.939 185.063C363.658 185.063 363.415 185.113 363.21 185.213C363.005 185.307 362.847 185.436 362.735 185.6C362.63 185.758 362.577 185.934 362.577 186.127C362.577 186.273 362.606 186.405 362.665 186.522C362.729 186.634 362.832 186.736 362.973 186.83C363.113 186.924 363.295 187.012 363.518 187.094C363.746 187.17 364.027 187.24 364.361 187.305C365.047 187.445 365.659 187.63 366.198 187.858C366.737 188.081 367.165 188.386 367.481 188.772C367.798 189.153 367.956 189.654 367.956 190.275C367.956 190.697 367.862 191.084 367.675 191.436C367.487 191.787 367.218 192.095 366.866 192.358C366.515 192.616 366.093 192.818 365.601 192.965C365.114 193.105 364.566 193.176 363.957 193.176C363.072 193.176 362.322 193.018 361.707 192.701C361.098 192.385 360.635 191.983 360.318 191.497C360.008 191.005 359.853 190.501 359.853 189.985H362.252C362.264 190.331 362.352 190.609 362.516 190.82C362.686 191.031 362.899 191.184 363.157 191.277C363.421 191.371 363.705 191.418 364.01 191.418C364.338 191.418 364.61 191.374 364.827 191.286C365.044 191.192 365.208 191.069 365.319 190.917C365.437 190.759 365.495 190.577 365.495 190.372Z" fill="black"/>
<path d="M17.285 211.472C14.7383 211.472 12.6738 213.539 12.6738 216.088C12.6738 216.685 12.7869 217.256 12.9928 217.779L12.2113 220.332C12.2048 220.348 12.1998 220.365 12.1965 220.382L12.1955 220.387H12.1961C12.1818 220.469 12.202 220.543 12.259 220.604C12.3159 220.664 12.3959 220.689 12.4726 220.68C12.4726 220.68 12.4726 220.68 12.4726 220.68L12.4759 220.679C12.4929 220.677 12.5096 220.673 12.5258 220.667L14.9692 220.081C15.6498 220.478 16.4409 220.705 17.285 220.705C19.8318 220.705 21.8963 218.638 21.8963 216.088C21.8963 213.539 19.8318 211.472 17.285 211.472Z" fill="#E3E2DD"/>
<path d="M25.7898 217.871L25.7893 217.868C25.7872 217.853 25.7836 217.838 25.7784 217.823L25.2457 215.599C25.6066 214.98 25.8134 214.26 25.8134 213.492C25.8134 211.174 23.9322 209.295 21.6116 209.295C19.2909 209.295 17.4097 211.174 17.4097 213.492C17.4097 215.809 19.2909 217.688 21.6116 217.688C22.1547 217.688 22.6737 217.585 23.1502 217.398L25.4742 218.109C25.4884 218.115 25.4965 218.12 25.5115 218.123L25.5079 218.124V218.123C25.5899 218.136 25.6579 218.118 25.7132 218.066C25.7685 218.014 25.7948 217.941 25.7862 217.871C25.7863 217.871 25.7898 217.871 25.7898 217.871V217.871Z" fill="#6B8DA1"/>
<path d="M17 210L17 177" stroke="#A7A7A7" stroke-width="2"/>
<line x1="34" y1="173" x2="34" y2="148" stroke="#A7A7A7" stroke-width="2"/>
<path d="M22 172H48" stroke="#A7A7A7" stroke-width="2"/>
<path d="M32.7861 135.626L32.7861 109.482C33.1108 107.06 32.8505 102.213 26.2781 103.126" stroke="#A7A7A7" stroke-width="2"/>
<g clip-path="url(#clip0_468_53911)">
<path d="M16.9998 170.5C18.1504 170.5 19.0832 169.474 19.0832 168.208C19.0832 166.943 18.1504 165.917 16.9998 165.917C15.8492 165.917 14.9165 166.943 14.9165 168.208C14.9165 169.474 15.8492 170.5 16.9998 170.5Z" stroke="#BF8989" stroke-width="2"/>
<path d="M19.0833 171.417H19.2299C19.5346 171.417 19.8287 171.539 20.057 171.761C20.2853 171.983 20.4322 172.289 20.4699 172.621L20.6329 174.053C20.6475 174.182 20.6371 174.313 20.6022 174.437C20.5673 174.561 20.5088 174.676 20.4306 174.773C20.3524 174.871 20.2562 174.949 20.1485 175.002C20.0408 175.056 19.924 175.083 19.8058 175.083H14.1941C14.0759 175.083 13.9591 175.056 13.8514 175.002C13.7437 174.949 13.6475 174.871 13.5693 174.773C13.491 174.676 13.4326 174.561 13.3977 174.437C13.3628 174.313 13.3524 174.182 13.367 174.053L13.5295 172.621C13.5673 172.288 13.7143 171.982 13.9428 171.761C14.1713 171.539 14.4656 171.416 14.7704 171.417H14.9166" stroke="#BF8989" stroke-width="2" stroke-linecap="round" stroke-linejoin="round"/>
</g>
<g clip-path="url(#clip1_468_53911)">
<path d="M33.9998 141.5C35.1504 141.5 36.0832 140.474 36.0832 139.208C36.0832 137.943 35.1504 136.917 33.9998 136.917C32.8492 136.917 31.9165 137.943 31.9165 139.208C31.9165 140.474 32.8492 141.5 33.9998 141.5Z" stroke="#8998BF" stroke-width="2"/>
<path d="M36.0833 142.417H36.2299C36.5346 142.417 36.8287 142.539 37.057 142.761C37.2853 142.983 37.4322 143.289 37.4699 143.621L37.6329 145.053C37.6475 145.182 37.6371 145.313 37.6022 145.437C37.5673 145.561 37.5088 145.676 37.4306 145.773C37.3524 145.871 37.2562 145.949 37.1485 146.002C37.0408 146.056 36.924 146.083 36.8058 146.083H31.1941C31.0759 146.083 30.9591 146.056 30.8514 146.002C30.7437 145.949 30.6475 145.871 30.5693 145.773C30.491 145.676 30.4326 145.561 30.3977 145.437C30.3628 145.313 30.3524 145.182 30.367 145.053L30.5295 143.621C30.5673 143.288 30.7143 142.982 30.9428 142.761C31.1713 142.539 31.4656 142.416 31.7704 142.417H31.9166" stroke="#8998BF" stroke-width="2" stroke-linecap="round" stroke-linejoin="round"/>
</g>
<path d="M54.2484 167C51.6242 167 49.4968 169.015 49.4968 171.5C49.4968 172.082 49.6133 172.638 49.8255 173.148L49.0203 175.637C49.0135 175.652 49.0084 175.667 49.005 175.683L49.0039 175.686H49.0045C48.9898 175.762 49.0106 175.84 49.0694 175.899C49.1281 175.958 49.2105 175.983 49.2895 175.974C49.2895 175.974 49.2895 175.974 49.2895 175.975L49.2929 175.974C49.3103 175.972 49.3275 175.968 49.3443 175.962L51.8621 175.392C52.5634 175.778 53.3785 176 54.2484 176C56.8726 176 59 173.985 59 171.5C59 169.015 56.8727 167 54.2484 167Z" fill="#A7A7A7"/>
<rect width="129" height="28" transform="translate(106 121)" fill="#FF4444"/>
<path d="M114.779 128.203V141H112.143V128.203H114.779ZM119.877 133.67V135.727H114.059V133.67H119.877ZM120.492 128.203V130.269H114.059V128.203H120.492ZM124.535 131.49V141H121.995V131.49H124.535ZM121.837 129.012C121.837 128.643 121.966 128.338 122.224 128.098C122.481 127.857 122.827 127.737 123.261 127.737C123.688 127.737 124.031 127.857 124.289 128.098C124.553 128.338 124.685 128.643 124.685 129.012C124.685 129.381 124.553 129.686 124.289 129.926C124.031 130.166 123.688 130.286 123.261 130.286C122.827 130.286 122.481 130.166 122.224 129.926C121.966 129.686 121.837 129.381 121.837 129.012ZM129.105 133.521V141H126.574V131.49H128.947L129.105 133.521ZM128.736 135.911H128.051C128.051 135.208 128.142 134.575 128.323 134.013C128.505 133.444 128.76 132.961 129.088 132.562C129.416 132.158 129.806 131.851 130.257 131.64C130.714 131.423 131.224 131.314 131.786 131.314C132.231 131.314 132.639 131.379 133.008 131.508C133.377 131.637 133.693 131.842 133.957 132.123C134.227 132.404 134.432 132.776 134.572 133.239C134.719 133.702 134.792 134.268 134.792 134.936V141H132.243V134.927C132.243 134.505 132.185 134.177 132.067 133.942C131.95 133.708 131.777 133.544 131.549 133.45C131.326 133.351 131.051 133.301 130.723 133.301C130.383 133.301 130.087 133.368 129.835 133.503C129.589 133.638 129.384 133.825 129.22 134.065C129.062 134.3 128.941 134.575 128.859 134.892C128.777 135.208 128.736 135.548 128.736 135.911ZM142.333 138.926V127.5H144.882V141H142.588L142.333 138.926ZM136.321 136.359V136.175C136.321 135.448 136.403 134.789 136.567 134.197C136.731 133.6 136.972 133.087 137.288 132.659C137.604 132.231 137.994 131.9 138.457 131.666C138.92 131.432 139.447 131.314 140.039 131.314C140.596 131.314 141.082 131.432 141.498 131.666C141.92 131.9 142.277 132.234 142.57 132.668C142.869 133.096 143.109 133.603 143.291 134.188C143.473 134.769 143.604 135.404 143.687 136.096V136.5C143.604 137.162 143.473 137.777 143.291 138.346C143.109 138.914 142.869 139.412 142.57 139.84C142.277 140.262 141.92 140.59 141.498 140.824C141.076 141.059 140.584 141.176 140.021 141.176C139.43 141.176 138.902 141.056 138.439 140.815C137.982 140.575 137.596 140.238 137.279 139.805C136.969 139.371 136.731 138.861 136.567 138.275C136.403 137.689 136.321 137.051 136.321 136.359ZM138.853 136.175V136.359C138.853 136.752 138.882 137.118 138.94 137.458C139.005 137.798 139.107 138.1 139.248 138.363C139.395 138.621 139.582 138.823 139.811 138.97C140.045 139.11 140.329 139.181 140.663 139.181C141.097 139.181 141.454 139.084 141.735 138.891C142.017 138.691 142.23 138.419 142.377 138.073C142.529 137.728 142.617 137.329 142.641 136.878V135.727C142.623 135.357 142.57 135.026 142.482 134.733C142.4 134.435 142.277 134.18 142.113 133.969C141.955 133.758 141.756 133.594 141.516 133.477C141.281 133.359 141.003 133.301 140.681 133.301C140.353 133.301 140.071 133.377 139.837 133.529C139.603 133.676 139.412 133.878 139.266 134.136C139.125 134.394 139.02 134.698 138.949 135.05C138.885 135.396 138.853 135.771 138.853 136.175ZM156.483 138.372C156.483 138.19 156.431 138.026 156.325 137.88C156.22 137.733 156.023 137.599 155.736 137.476C155.455 137.347 155.048 137.229 154.515 137.124C154.034 137.019 153.586 136.887 153.17 136.729C152.76 136.564 152.402 136.368 152.098 136.14C151.799 135.911 151.564 135.642 151.395 135.331C151.225 135.015 151.14 134.654 151.14 134.25C151.14 133.852 151.225 133.477 151.395 133.125C151.57 132.773 151.819 132.463 152.142 132.193C152.47 131.918 152.868 131.704 153.337 131.552C153.812 131.394 154.345 131.314 154.937 131.314C155.763 131.314 156.472 131.446 157.063 131.71C157.661 131.974 158.118 132.337 158.435 132.8C158.757 133.257 158.918 133.778 158.918 134.364H156.387C156.387 134.118 156.334 133.898 156.229 133.705C156.129 133.506 155.971 133.351 155.754 133.239C155.543 133.122 155.268 133.063 154.928 133.063C154.646 133.063 154.403 133.113 154.198 133.213C153.993 133.307 153.835 133.436 153.724 133.6C153.618 133.758 153.565 133.934 153.565 134.127C153.565 134.273 153.595 134.405 153.653 134.522C153.718 134.634 153.82 134.736 153.961 134.83C154.102 134.924 154.283 135.012 154.506 135.094C154.734 135.17 155.016 135.24 155.35 135.305C156.035 135.445 156.647 135.63 157.187 135.858C157.726 136.081 158.153 136.386 158.47 136.772C158.786 137.153 158.944 137.654 158.944 138.275C158.944 138.697 158.851 139.084 158.663 139.436C158.476 139.787 158.206 140.095 157.854 140.358C157.503 140.616 157.081 140.818 156.589 140.965C156.103 141.105 155.555 141.176 154.945 141.176C154.061 141.176 153.311 141.018 152.695 140.701C152.086 140.385 151.623 139.983 151.307 139.497C150.996 139.005 150.841 138.501 150.841 137.985H153.24C153.252 138.331 153.34 138.609 153.504 138.82C153.674 139.031 153.888 139.184 154.146 139.277C154.409 139.371 154.693 139.418 154.998 139.418C155.326 139.418 155.599 139.374 155.815 139.286C156.032 139.192 156.196 139.069 156.308 138.917C156.425 138.759 156.483 138.577 156.483 138.372ZM160.184 136.342V136.157C160.184 135.46 160.283 134.818 160.482 134.232C160.682 133.641 160.972 133.128 161.353 132.694C161.733 132.261 162.202 131.924 162.759 131.684C163.315 131.438 163.954 131.314 164.675 131.314C165.396 131.314 166.037 131.438 166.6 131.684C167.162 131.924 167.634 132.261 168.015 132.694C168.401 133.128 168.694 133.641 168.894 134.232C169.093 134.818 169.192 135.46 169.192 136.157V136.342C169.192 137.033 169.093 137.675 168.894 138.267C168.694 138.853 168.401 139.365 168.015 139.805C167.634 140.238 167.165 140.575 166.608 140.815C166.052 141.056 165.413 141.176 164.692 141.176C163.972 141.176 163.33 141.056 162.768 140.815C162.211 140.575 161.739 140.238 161.353 139.805C160.972 139.365 160.682 138.853 160.482 138.267C160.283 137.675 160.184 137.033 160.184 136.342ZM162.715 136.157V136.342C162.715 136.74 162.75 137.112 162.82 137.458C162.891 137.804 163.002 138.108 163.154 138.372C163.312 138.63 163.518 138.832 163.77 138.979C164.021 139.125 164.329 139.198 164.692 139.198C165.044 139.198 165.346 139.125 165.598 138.979C165.85 138.832 166.052 138.63 166.204 138.372C166.356 138.108 166.468 137.804 166.538 137.458C166.614 137.112 166.652 136.74 166.652 136.342V136.157C166.652 135.771 166.614 135.407 166.538 135.067C166.468 134.722 166.354 134.417 166.195 134.153C166.043 133.884 165.841 133.673 165.589 133.521C165.337 133.368 165.032 133.292 164.675 133.292C164.317 133.292 164.013 133.368 163.761 133.521C163.515 133.673 163.312 133.884 163.154 134.153C163.002 134.417 162.891 134.722 162.82 135.067C162.75 135.407 162.715 135.771 162.715 136.157ZM173.42 127.5V141H170.88V127.5H173.42ZM181.137 138.724V131.49H183.668V141H181.286L181.137 138.724ZM181.418 136.772L182.165 136.755C182.165 137.388 182.092 137.977 181.945 138.521C181.799 139.061 181.579 139.529 181.286 139.928C180.993 140.32 180.624 140.628 180.179 140.851C179.733 141.067 179.209 141.176 178.605 141.176C178.143 141.176 177.715 141.111 177.322 140.982C176.936 140.848 176.602 140.64 176.32 140.358C176.045 140.071 175.828 139.705 175.67 139.26C175.518 138.809 175.441 138.267 175.441 137.634V131.49H177.973V137.651C177.973 137.933 178.005 138.17 178.069 138.363C178.14 138.557 178.236 138.715 178.359 138.838C178.482 138.961 178.626 139.049 178.79 139.102C178.96 139.154 179.147 139.181 179.353 139.181C179.874 139.181 180.284 139.075 180.583 138.864C180.888 138.653 181.102 138.366 181.225 138.003C181.354 137.634 181.418 137.224 181.418 136.772ZM190.26 131.49V133.283H184.723V131.49H190.26ZM186.094 129.144H188.625V138.135C188.625 138.41 188.66 138.621 188.73 138.768C188.807 138.914 188.918 139.017 189.064 139.075C189.211 139.128 189.396 139.154 189.618 139.154C189.776 139.154 189.917 139.148 190.04 139.137C190.169 139.119 190.277 139.102 190.365 139.084L190.374 140.947C190.157 141.018 189.923 141.073 189.671 141.114C189.419 141.155 189.141 141.176 188.836 141.176C188.279 141.176 187.793 141.085 187.377 140.903C186.967 140.716 186.65 140.417 186.428 140.007C186.205 139.597 186.094 139.058 186.094 138.39V129.144ZM194.373 131.49V141H191.833V131.49H194.373ZM191.675 129.012C191.675 128.643 191.804 128.338 192.062 128.098C192.319 127.857 192.665 127.737 193.099 127.737C193.526 127.737 193.869 127.857 194.127 128.098C194.391 128.338 194.522 128.643 194.522 129.012C194.522 129.381 194.391 129.686 194.127 129.926C193.869 130.166 193.526 130.286 193.099 130.286C192.665 130.286 192.319 130.166 192.062 129.926C191.804 129.686 191.675 129.381 191.675 129.012ZM196.061 136.342V136.157C196.061 135.46 196.16 134.818 196.359 134.232C196.559 133.641 196.849 133.128 197.229 132.694C197.61 132.261 198.079 131.924 198.636 131.684C199.192 131.438 199.831 131.314 200.552 131.314C201.272 131.314 201.914 131.438 202.477 131.684C203.039 131.924 203.511 132.261 203.892 132.694C204.278 133.128 204.571 133.641 204.771 134.232C204.97 134.818 205.069 135.46 205.069 136.157V136.342C205.069 137.033 204.97 137.675 204.771 138.267C204.571 138.853 204.278 139.365 203.892 139.805C203.511 140.238 203.042 140.575 202.485 140.815C201.929 141.056 201.29 141.176 200.569 141.176C199.849 141.176 199.207 141.056 198.645 140.815C198.088 140.575 197.616 140.238 197.229 139.805C196.849 139.365 196.559 138.853 196.359 138.267C196.16 137.675 196.061 137.033 196.061 136.342ZM198.592 136.157V136.342C198.592 136.74 198.627 137.112 198.697 137.458C198.768 137.804 198.879 138.108 199.031 138.372C199.189 138.63 199.395 138.832 199.646 138.979C199.898 139.125 200.206 139.198 200.569 139.198C200.921 139.198 201.223 139.125 201.475 138.979C201.727 138.832 201.929 138.63 202.081 138.372C202.233 138.108 202.345 137.804 202.415 137.458C202.491 137.112 202.529 136.74 202.529 136.342V136.157C202.529 135.771 202.491 135.407 202.415 135.067C202.345 134.722 202.23 134.417 202.072 134.153C201.92 133.884 201.718 133.673 201.466 133.521C201.214 133.368 200.909 133.292 200.552 133.292C200.194 133.292 199.89 133.368 199.638 133.521C199.392 133.673 199.189 133.884 199.031 134.153C198.879 134.417 198.768 134.722 198.697 135.067C198.627 135.407 198.592 135.771 198.592 136.157ZM209.104 133.521V141H206.572V131.49H208.945L209.104 133.521ZM208.734 135.911H208.049C208.049 135.208 208.14 134.575 208.321 134.013C208.503 133.444 208.758 132.961 209.086 132.562C209.414 132.158 209.804 131.851 210.255 131.64C210.712 131.423 211.222 131.314 211.784 131.314C212.229 131.314 212.637 131.379 213.006 131.508C213.375 131.637 213.691 131.842 213.955 132.123C214.225 132.404 214.43 132.776 214.57 133.239C214.717 133.702 214.79 134.268 214.79 134.936V141H212.241V134.927C212.241 134.505 212.183 134.177 212.065 133.942C211.948 133.708 211.775 133.544 211.547 133.45C211.324 133.351 211.049 133.301 210.721 133.301C210.381 133.301 210.085 133.368 209.833 133.503C209.587 133.638 209.382 133.825 209.218 134.065C209.06 134.3 208.939 134.575 208.857 134.892C208.775 135.208 208.734 135.548 208.734 135.911ZM221.856 138.372C221.856 138.19 221.804 138.026 221.698 137.88C221.593 137.733 221.396 137.599 221.109 137.476C220.828 137.347 220.421 137.229 219.888 137.124C219.407 137.019 218.959 136.887 218.543 136.729C218.133 136.564 217.775 136.368 217.471 136.14C217.172 135.911 216.938 135.642 216.768 135.331C216.598 135.015 216.513 134.654 216.513 134.25C216.513 133.852 216.598 133.477 216.768 133.125C216.943 132.773 217.192 132.463 217.515 132.193C217.843 131.918 218.241 131.704 218.71 131.552C219.185 131.394 219.718 131.314 220.31 131.314C221.136 131.314 221.845 131.446 222.437 131.71C223.034 131.974 223.491 132.337 223.808 132.8C224.13 133.257 224.291 133.778 224.291 134.364H221.76C221.76 134.118 221.707 133.898 221.602 133.705C221.502 133.506 221.344 133.351 221.127 133.239C220.916 133.122 220.641 133.063 220.301 133.063C220.02 133.063 219.776 133.113 219.571 133.213C219.366 133.307 219.208 133.436 219.097 133.6C218.991 133.758 218.938 133.934 218.938 134.127C218.938 134.273 218.968 134.405 219.026 134.522C219.091 134.634 219.193 134.736 219.334 134.83C219.475 134.924 219.656 135.012 219.879 135.094C220.107 135.17 220.389 135.24 220.723 135.305C221.408 135.445 222.021 135.63 222.56 135.858C223.099 136.081 223.526 136.386 223.843 136.772C224.159 137.153 224.317 137.654 224.317 138.275C224.317 138.697 224.224 139.084 224.036 139.436C223.849 139.787 223.579 140.095 223.228 140.358C222.876 140.616 222.454 140.818 221.962 140.965C221.476 141.105 220.928 141.176 220.318 141.176C219.434 141.176 218.684 141.018 218.068 140.701C217.459 140.385 216.996 139.983 216.68 139.497C216.369 139.005 216.214 138.501 216.214 137.985H218.613C218.625 138.331 218.713 138.609 218.877 138.82C219.047 139.031 219.261 139.184 219.519 139.277C219.782 139.371 220.066 139.418 220.371 139.418C220.699 139.418 220.972 139.374 221.188 139.286C221.405 139.192 221.569 139.069 221.681 138.917C221.798 138.759 221.856 138.577 221.856 138.372ZM228.36 138.864L228.352 140.561C228.352 141.211 228.188 141.867 227.859 142.529C227.537 143.191 227.127 143.733 226.629 144.155L225.311 143.479C225.457 143.209 225.601 142.939 225.741 142.67C225.882 142.4 225.999 142.104 226.093 141.782C226.187 141.46 226.233 141.094 226.233 140.684V138.864H228.36Z" fill="#202020"/>
<path d="M79.2734 87.5859L86.0703 58.875H89.8672L90.7344 63.6562L83.4922 93H79.4141L79.2734 87.5859ZM75.7812 58.875L81.4062 87.5859L80.9375 93H76.3906L68.8203 58.875H75.7812ZM96.7109 87.4688L102.266 58.875H109.227L101.68 93H97.1328L96.7109 87.4688ZM92 58.875L98.8438 87.7031L98.6562 93H94.5781L87.2891 63.6328L88.2266 58.875H92ZM123.547 93.4688C121.578 93.4688 119.812 93.1562 118.25 92.5312C116.688 91.8906 115.359 91.0078 114.266 89.8828C113.188 88.7578 112.359 87.4531 111.781 85.9688C111.203 84.4688 110.914 82.875 110.914 81.1875V80.25C110.914 78.3281 111.188 76.5703 111.734 74.9766C112.281 73.3828 113.062 72 114.078 70.8281C115.109 69.6562 116.359 68.7578 117.828 68.1328C119.297 67.4922 120.953 67.1719 122.797 67.1719C124.594 67.1719 126.188 67.4688 127.578 68.0625C128.969 68.6562 130.133 69.5 131.07 70.5938C132.023 71.6875 132.742 73 133.227 74.5312C133.711 76.0469 133.953 77.7344 133.953 79.5938V82.4062H113.797V77.9062H127.32V77.3906C127.32 76.4531 127.148 75.6172 126.805 74.8828C126.477 74.1328 125.977 73.5391 125.305 73.1016C124.633 72.6641 123.773 72.4453 122.727 72.4453C121.836 72.4453 121.07 72.6406 120.43 73.0312C119.789 73.4219 119.266 73.9688 118.859 74.6719C118.469 75.375 118.172 76.2031 117.969 77.1562C117.781 78.0938 117.688 79.125 117.688 80.25V81.1875C117.688 82.2031 117.828 83.1406 118.109 84C118.406 84.8594 118.82 85.6016 119.352 86.2266C119.898 86.8516 120.555 87.3359 121.32 87.6797C122.102 88.0234 122.984 88.1953 123.969 88.1953C125.188 88.1953 126.32 87.9609 127.367 87.4922C128.43 87.0078 129.344 86.2812 130.109 85.3125L133.391 88.875C132.859 89.6406 132.133 90.375 131.211 91.0781C130.305 91.7812 129.211 92.3594 127.93 92.8125C126.648 93.25 125.188 93.4688 123.547 93.4688ZM142.32 57V60.5625C142.32 61.5781 142.125 62.625 141.734 63.7031C141.359 64.7812 140.852 65.8047 140.211 66.7734C139.57 67.7266 138.867 68.5391 138.102 69.2109L134.938 67.3828C135.516 66.4609 136.008 65.4609 136.414 64.3828C136.82 63.2891 137.023 62.0234 137.023 60.5859V57H142.32ZM153.922 73.1719V93H147.172V67.6406H153.523L153.922 73.1719ZM161.562 67.4766L161.445 73.7344C161.117 73.6875 160.719 73.6484 160.25 73.6172C159.797 73.5703 159.383 73.5469 159.008 73.5469C158.055 73.5469 157.227 73.6719 156.523 73.9219C155.836 74.1562 155.258 74.5078 154.789 74.9766C154.336 75.4453 153.992 76.0156 153.758 76.6875C153.539 77.3594 153.414 78.125 153.383 78.9844L152.023 78.5625C152.023 76.9219 152.188 75.4141 152.516 74.0391C152.844 72.6484 153.32 71.4375 153.945 70.4062C154.586 69.375 155.367 68.5781 156.289 68.0156C157.211 67.4531 158.266 67.1719 159.453 67.1719C159.828 67.1719 160.211 67.2031 160.602 67.2656C160.992 67.3125 161.312 67.3828 161.562 67.4766ZM175.953 93.4688C173.984 93.4688 172.219 93.1562 170.656 92.5312C169.094 91.8906 167.766 91.0078 166.672 89.8828C165.594 88.7578 164.766 87.4531 164.188 85.9688C163.609 84.4688 163.32 82.875 163.32 81.1875V80.25C163.32 78.3281 163.594 76.5703 164.141 74.9766C164.688 73.3828 165.469 72 166.484 70.8281C167.516 69.6562 168.766 68.7578 170.234 68.1328C171.703 67.4922 173.359 67.1719 175.203 67.1719C177 67.1719 178.594 67.4688 179.984 68.0625C181.375 68.6562 182.539 69.5 183.477 70.5938C184.43 71.6875 185.148 73 185.633 74.5312C186.117 76.0469 186.359 77.7344 186.359 79.5938V82.4062H166.203V77.9062H179.727V77.3906C179.727 76.4531 179.555 75.6172 179.211 74.8828C178.883 74.1328 178.383 73.5391 177.711 73.1016C177.039 72.6641 176.18 72.4453 175.133 72.4453C174.242 72.4453 173.477 72.6406 172.836 73.0312C172.195 73.4219 171.672 73.9688 171.266 74.6719C170.875 75.375 170.578 76.2031 170.375 77.1562C170.188 78.0938 170.094 79.125 170.094 80.25V81.1875C170.094 82.2031 170.234 83.1406 170.516 84C170.812 84.8594 171.227 85.6016 171.758 86.2266C172.305 86.8516 172.961 87.3359 173.727 87.6797C174.508 88.0234 175.391 88.1953 176.375 88.1953C177.594 88.1953 178.727 87.9609 179.773 87.4922C180.836 87.0078 181.75 86.2812 182.516 85.3125L185.797 88.875C185.266 89.6406 184.539 90.375 183.617 91.0781C182.711 91.7812 181.617 92.3594 180.336 92.8125C179.055 93.25 177.594 93.4688 175.953 93.4688ZM208.742 57V93H201.992V57H208.742ZM207.781 79.4297H205.93C205.945 77.6641 206.18 76.0391 206.633 74.5547C207.086 73.0547 207.734 71.7578 208.578 70.6641C209.422 69.5547 210.43 68.6953 211.602 68.0859C212.789 67.4766 214.102 67.1719 215.539 67.1719C216.789 67.1719 217.922 67.3516 218.938 67.7109C219.969 68.0547 220.852 68.6172 221.586 69.3984C222.336 70.1641 222.914 71.1719 223.32 72.4219C223.727 73.6719 223.93 75.1875 223.93 76.9688V93H217.133V76.9219C217.133 75.7969 216.969 74.9141 216.641 74.2734C216.328 73.6172 215.867 73.1562 215.258 72.8906C214.664 72.6094 213.93 72.4688 213.055 72.4688C212.086 72.4688 211.258 72.6484 210.57 73.0078C209.898 73.3672 209.359 73.8672 208.953 74.5078C208.547 75.1328 208.25 75.8672 208.062 76.7109C207.875 77.5547 207.781 78.4609 207.781 79.4297ZM240.734 93.4688C238.766 93.4688 237 93.1562 235.438 92.5312C233.875 91.8906 232.547 91.0078 231.453 89.8828C230.375 88.7578 229.547 87.4531 228.969 85.9688C228.391 84.4688 228.102 82.875 228.102 81.1875V80.25C228.102 78.3281 228.375 76.5703 228.922 74.9766C229.469 73.3828 230.25 72 231.266 70.8281C232.297 69.6562 233.547 68.7578 235.016 68.1328C236.484 67.4922 238.141 67.1719 239.984 67.1719C241.781 67.1719 243.375 67.4688 244.766 68.0625C246.156 68.6562 247.32 69.5 248.258 70.5938C249.211 71.6875 249.93 73 250.414 74.5312C250.898 76.0469 251.141 77.7344 251.141 79.5938V82.4062H230.984V77.9062H244.508V77.3906C244.508 76.4531 244.336 75.6172 243.992 74.8828C243.664 74.1328 243.164 73.5391 242.492 73.1016C241.82 72.6641 240.961 72.4453 239.914 72.4453C239.023 72.4453 238.258 72.6406 237.617 73.0312C236.977 73.4219 236.453 73.9688 236.047 74.6719C235.656 75.375 235.359 76.2031 235.156 77.1562C234.969 78.0938 234.875 79.125 234.875 80.25V81.1875C234.875 82.2031 235.016 83.1406 235.297 84C235.594 84.8594 236.008 85.6016 236.539 86.2266C237.086 86.8516 237.742 87.3359 238.508 87.6797C239.289 88.0234 240.172 88.1953 241.156 88.1953C242.375 88.1953 243.508 87.9609 244.555 87.4922C245.617 87.0078 246.531 86.2812 247.297 85.3125L250.578 88.875C250.047 89.6406 249.32 90.375 248.398 91.0781C247.492 91.7812 246.398 92.3594 245.117 92.8125C243.836 93.25 242.375 93.4688 240.734 93.4688ZM261.734 73.1719V93H254.984V67.6406H261.336L261.734 73.1719ZM269.375 67.4766L269.258 73.7344C268.93 73.6875 268.531 73.6484 268.062 73.6172C267.609 73.5703 267.195 73.5469 266.82 73.5469C265.867 73.5469 265.039 73.6719 264.336 73.9219C263.648 74.1562 263.07 74.5078 262.602 74.9766C262.148 75.4453 261.805 76.0156 261.57 76.6875C261.352 77.3594 261.227 78.125 261.195 78.9844L259.836 78.5625C259.836 76.9219 260 75.4141 260.328 74.0391C260.656 72.6484 261.133 71.4375 261.758 70.4062C262.398 69.375 263.18 68.5781 264.102 68.0156C265.023 67.4531 266.078 67.1719 267.266 67.1719C267.641 67.1719 268.023 67.2031 268.414 67.2656C268.805 67.3125 269.125 67.3828 269.375 67.4766ZM283.766 93.4688C281.797 93.4688 280.031 93.1562 278.469 92.5312C276.906 91.8906 275.578 91.0078 274.484 89.8828C273.406 88.7578 272.578 87.4531 272 85.9688C271.422 84.4688 271.133 82.875 271.133 81.1875V80.25C271.133 78.3281 271.406 76.5703 271.953 74.9766C272.5 73.3828 273.281 72 274.297 70.8281C275.328 69.6562 276.578 68.7578 278.047 68.1328C279.516 67.4922 281.172 67.1719 283.016 67.1719C284.812 67.1719 286.406 67.4688 287.797 68.0625C289.188 68.6562 290.352 69.5 291.289 70.5938C292.242 71.6875 292.961 73 293.445 74.5312C293.93 76.0469 294.172 77.7344 294.172 79.5938V82.4062H274.016V77.9062H287.539V77.3906C287.539 76.4531 287.367 75.6172 287.023 74.8828C286.695 74.1328 286.195 73.5391 285.523 73.1016C284.852 72.6641 283.992 72.4453 282.945 72.4453C282.055 72.4453 281.289 72.6406 280.648 73.0312C280.008 73.4219 279.484 73.9688 279.078 74.6719C278.688 75.375 278.391 76.2031 278.188 77.1562C278 78.0938 277.906 79.125 277.906 80.25V81.1875C277.906 82.2031 278.047 83.1406 278.328 84C278.625 84.8594 279.039 85.6016 279.57 86.2266C280.117 86.8516 280.773 87.3359 281.539 87.6797C282.32 88.0234 283.203 88.1953 284.188 88.1953C285.406 88.1953 286.539 87.9609 287.586 87.4922C288.648 87.0078 289.562 86.2812 290.328 85.3125L293.609 88.875C293.078 89.6406 292.352 90.375 291.43 91.0781C290.523 91.7812 289.43 92.3594 288.148 92.8125C286.867 93.25 285.406 93.4688 283.766 93.4688ZM317.586 58.875L316.812 82.5703H311.188L310.391 58.875H317.586ZM310.203 89.9062C310.203 88.9062 310.547 88.0781 311.234 87.4219C311.938 86.75 312.859 86.4141 314 86.4141C315.156 86.4141 316.078 86.75 316.766 87.4219C317.453 88.0781 317.797 88.9062 317.797 89.9062C317.797 90.875 317.453 91.6953 316.766 92.3672C316.078 93.0391 315.156 93.375 314 93.375C312.859 93.375 311.938 93.0391 311.234 92.3672C310.547 91.6953 310.203 90.875 310.203 89.9062Z" fill="white"/>
<path d="M0 25H25.5" stroke="#A7A7A7" stroke-width="2"/>
<line x1="37" y1="24" x2="59" y2="24" stroke="#A7A7A7" stroke-width="2"/>
<path d="M309 26H334" stroke="#A7A7A7" stroke-width="2"/>
<path d="M346 25L361 18" stroke="#A7A7A7" stroke-width="2"/>
<path d="M346 27L361 34" stroke="#A7A7A7" stroke-width="2"/>
<path d="M122.5 25H150" stroke="#A7A7A7" stroke-width="2"/>
<path d="M159.5 24H191" stroke="#A7A7A7" stroke-width="2"/>
<path d="M31.2484 20C28.6242 20 26.4968 22.0147 26.4968 24.5C26.4968 25.0817 26.6133 25.6376 26.8255 26.1479L26.0203 28.6367C26.0135 28.6517 26.0084 28.6673 26.005 28.6832L26.0039 28.6858H26.0045C25.9898 28.7622 26.0106 28.84 26.0694 28.8992C26.1281 28.9584 26.2105 28.9833 26.2895 28.9741C26.2895 28.9743 26.2895 28.9744 26.2895 28.9746L26.2929 28.9741C26.3103 28.9718 26.3275 28.9681 26.3443 28.9625L28.8621 28.392C29.5634 28.7785 30.3785 29 31.2484 29C33.8726 29 36 26.9853 36 24.5C36 22.0147 33.8727 20 31.2484 20Z" fill="#EDCF37"/>
<path d="M31 19V0" stroke="#A7A7A7" stroke-width="2"/>
<path d="M54 24V16H65" stroke="#A7A7A7" stroke-width="2"/>
<path d="M301 18V10H312" stroke="#A7A7A7" stroke-width="2"/>
<g clip-path="url(#clip2_468_53911)">
<path d="M69.9998 15.5C71.1504 15.5 72.0832 14.4739 72.0832 13.2083C72.0832 11.9426 71.1504 10.9166 69.9998 10.9166C68.8492 10.9166 67.9165 11.9426 67.9165 13.2083C67.9165 14.4739 68.8492 15.5 69.9998 15.5Z" stroke="#8995BF" stroke-width="2"/>
<path d="M72.0833 16.4166H72.2299C72.5346 16.4167 72.8287 16.5392 73.057 16.761C73.2853 16.9828 73.4322 17.2886 73.4699 17.6211L73.6329 19.053C73.6475 19.1819 73.6371 19.3129 73.6022 19.4371C73.5673 19.5613 73.5088 19.6759 73.4306 19.7734C73.3524 19.8708 73.2562 19.9488 73.1485 20.0023C73.0408 20.0557 72.924 20.0833 72.8058 20.0833H67.1941C67.0759 20.0833 66.9591 20.0557 66.8514 20.0023C66.7437 19.9488 66.6475 19.8708 66.5693 19.7734C66.491 19.6759 66.4326 19.5613 66.3977 19.4371C66.3628 19.3129 66.3524 19.1819 66.367 19.053L66.5295 17.6211C66.5673 17.2885 66.7143 16.9825 66.9428 16.7607C67.1713 16.5388 67.4656 16.4165 67.7704 16.4166H67.9166" stroke="#8995BF" stroke-width="2" stroke-linecap="round" stroke-linejoin="round"/>
</g>
<g clip-path="url(#clip3_468_53911)">
<path d="M155 24.5C156.15 24.5 157.083 23.4739 157.083 22.2083C157.083 20.9426 156.15 19.9166 155 19.9166C153.849 19.9166 152.917 20.9426 152.917 22.2083C152.917 23.4739 153.849 24.5 155 24.5Z" stroke="#B189BF" stroke-width="2"/>
<path d="M157.083 25.4166H157.23C157.535 25.4167 157.829 25.5392 158.057 25.761C158.285 25.9828 158.432 26.2886 158.47 26.6211L158.633 28.053C158.648 28.1819 158.637 28.3129 158.602 28.4371C158.567 28.5613 158.509 28.6759 158.431 28.7734C158.352 28.8708 158.256 28.9488 158.149 29.0023C158.041 29.0557 157.924 29.0833 157.806 29.0833H152.194C152.076 29.0833 151.959 29.0557 151.851 29.0023C151.744 28.9488 151.647 28.8708 151.569 28.7734C151.491 28.6759 151.433 28.5613 151.398 28.4371C151.363 28.3129 151.352 28.1819 151.367 28.053L151.53 26.6211C151.567 26.2885 151.714 25.9825 151.943 25.7607C152.171 25.5388 152.466 25.4165 152.77 25.4166H152.917" stroke="#B189BF" stroke-width="2" stroke-linecap="round" stroke-linejoin="round"/>
</g>
<g clip-path="url(#clip4_468_53911)">
<path d="M240 7.49996C241.15 7.49996 242.083 6.47395 242.083 5.20829C242.083 3.94264 241.15 2.91663 240 2.91663C238.849 2.91663 237.917 3.94264 237.917 5.20829C237.917 6.47395 238.849 7.49996 240 7.49996Z" stroke="#AEBF89" stroke-width="2"/>
<path d="M242.083 8.41663H242.23C242.535 8.41672 242.829 8.53917 243.057 8.76096C243.285 8.98276 243.432 9.28863 243.47 9.62113L243.633 11.053C243.648 11.1819 243.637 11.3129 243.602 11.4371C243.567 11.5613 243.509 11.6759 243.431 11.7734C243.352 11.8708 243.256 11.9488 243.149 12.0023C243.041 12.0557 242.924 12.0833 242.806 12.0833H237.194C237.076 12.0833 236.959 12.0557 236.851 12.0023C236.744 11.9488 236.647 11.8708 236.569 11.7734C236.491 11.6759 236.433 11.5613 236.398 11.4371C236.363 11.3129 236.352 11.1819 236.367 11.053L236.53 9.62113C236.567 9.28848 236.714 8.98248 236.943 8.76066C237.171 8.53884 237.466 8.4165 237.77 8.41663H237.917" stroke="#AEBF89" stroke-width="2" stroke-linecap="round" stroke-linejoin="round"/>
</g>
<g clip-path="url(#clip5_468_53911)">
<path d="M340 26.5C341.15 26.5 342.083 25.4739 342.083 24.2083C342.083 22.9426 341.15 21.9166 340 21.9166C338.849 21.9166 337.917 22.9426 337.917 24.2083C337.917 25.4739 338.849 26.5 340 26.5Z" stroke="#E3E2DD" stroke-width="2"/>
<path d="M342.083 27.4166H342.23C342.535 27.4167 342.829 27.5392 343.057 27.761C343.285 27.9828 343.432 28.2886 343.47 28.6211L343.633 30.053C343.648 30.1819 343.637 30.3129 343.602 30.4371C343.567 30.5613 343.509 30.6759 343.431 30.7734C343.352 30.8708 343.256 30.9488 343.149 31.0023C343.041 31.0557 342.924 31.0833 342.806 31.0833H337.194C337.076 31.0833 336.959 31.0557 336.851 31.0023C336.744 30.9488 336.647 30.8708 336.569 30.7734C336.491 30.6759 336.433 30.5613 336.398 30.4371C336.363 30.3129 336.352 30.1819 336.367 30.053L336.53 28.6211C336.567 28.2885 336.714 27.9825 336.943 27.7607C337.171 27.5388 337.466 27.4165 337.77 27.4166H337.917" stroke="#E3E2DD" stroke-width="2" stroke-linecap="round" stroke-linejoin="round"/>
</g>
<g clip-path="url(#clip6_468_53911)">
<path d="M317 9.49996C318.15 9.49996 319.083 8.47395 319.083 7.20829C319.083 5.94264 318.15 4.91663 317 4.91663C315.849 4.91663 314.917 5.94264 314.917 7.20829C314.917 8.47395 315.849 9.49996 317 9.49996Z" stroke="#DC6464" stroke-width="2"/>
<path d="M319.083 10.4166H319.23C319.535 10.4167 319.829 10.5392 320.057 10.761C320.285 10.9828 320.432 11.2886 320.47 11.6211L320.633 13.053C320.648 13.1819 320.637 13.3129 320.602 13.4371C320.567 13.5613 320.509 13.6759 320.431 13.7734C320.352 13.8708 320.256 13.9488 320.149 14.0023C320.041 14.0557 319.924 14.0833 319.806 14.0833H314.194C314.076 14.0833 313.959 14.0557 313.851 14.0023C313.744 13.9488 313.647 13.8708 313.569 13.7734C313.491 13.6759 313.433 13.5613 313.398 13.4371C313.363 13.3129 313.352 13.1819 313.367 13.053L313.53 11.6211C313.567 11.2885 313.714 10.9825 313.943 10.7607C314.171 10.5388 314.466 10.4165 314.77 10.4166H314.917" stroke="#DC6464" stroke-width="2" stroke-linecap="round" stroke-linejoin="round"/>
</g>
<path d="M75 13.0447H107.873C111.055 12.7549 117.099 13.7402 115.827 20" stroke="#A7A7A7" stroke-width="2"/>
<path d="M17 72L17 97.2395C16.7009 99.5344 16.8813 104.867 22.9247 104" stroke="#A7A7A7" stroke-width="2"/>
<path d="M30.9673 30.9998L30.6953 59.0611C31.0002 61.78 28.8228 67.0788 21.6796 65.9232" stroke="#A7A7A7" stroke-width="2"/>
<path d="M235 6.07663H203.73C200.704 5.57982 194.954 7.26897 196.165 18" stroke="#A7A7A7" stroke-width="2"/>
<path d="M293 24.9362H252.483C248.757 25.3502 237.818 24.0002 240.5 15.0001" stroke="#A7A7A7" stroke-width="2"/>
<path d="M117.248 21C114.624 21 112.497 23.0147 112.497 25.5C112.497 26.0817 112.613 26.6376 112.826 27.1479L112.02 29.6367C112.014 29.6517 112.008 29.6673 112.005 29.6832L112.004 29.6858H112.005C111.99 29.7622 112.011 29.84 112.069 29.8992C112.128 29.9584 112.21 29.9833 112.29 29.9741C112.29 29.9743 112.29 29.9744 112.29 29.9746L112.293 29.9741C112.31 29.9718 112.328 29.9681 112.344 29.9625L114.862 29.392C115.563 29.7785 116.379 30 117.248 30C119.873 30 122 27.9853 122 25.5C122 23.0147 119.873 21 117.248 21Z" fill="#A7A7A7"/>
<path d="M367.752 30C370.376 30 372.503 32.0147 372.503 34.5C372.503 35.0817 372.387 35.6376 372.174 36.1479L372.98 38.6367C372.986 38.6517 372.992 38.6673 372.995 38.6832L372.996 38.6858H372.995C373.01 38.7622 372.989 38.84 372.931 38.8992C372.872 38.9584 372.79 38.9833 372.71 38.9741C372.71 38.9743 372.71 38.9744 372.71 38.9746L372.707 38.9741C372.69 38.9718 372.672 38.9681 372.656 38.9625L370.138 38.392C369.437 38.7785 368.621 39 367.752 39C365.127 39 363 36.9853 363 34.5C363 32.0147 365.127 30 367.752 30Z" fill="#E3E2DD"/>
<path d="M197.248 19C194.624 19 192.497 21.0147 192.497 23.5C192.497 24.0817 192.613 24.6376 192.826 25.1479L192.02 27.6367C192.014 27.6517 192.008 27.6673 192.005 27.6832L192.004 27.6858H192.005C191.99 27.7622 192.011 27.84 192.069 27.8992C192.128 27.9584 192.21 27.9833 192.29 27.9741C192.29 27.9743 192.29 27.9744 192.29 27.9746L192.293 27.9741C192.31 27.9718 192.328 27.9681 192.344 27.9625L194.862 27.392C195.563 27.7785 196.379 28 197.248 28C199.873 28 202 25.9853 202 23.5C202 21.0147 199.873 19 197.248 19Z" fill="#E3E2DD"/>
<path d="M299.285 21.4716C296.738 21.4716 294.674 23.5386 294.674 26.0884C294.674 26.6852 294.787 27.2555 294.993 27.7791L294.211 30.3325C294.205 30.3485 294.2 30.3651 294.197 30.3821L294.195 30.3867H294.196C294.182 30.4687 294.202 30.543 294.259 30.6037C294.316 30.6644 294.396 30.6891 294.473 30.6796C294.473 30.6797 294.473 30.6796 294.473 30.6796L294.476 30.6789C294.493 30.6765 294.51 30.6725 294.526 30.6668L296.969 30.0815C297.65 30.478 298.441 30.7052 299.285 30.7052C301.832 30.7052 303.896 28.6382 303.896 26.0884C303.896 23.5386 301.832 21.4716 299.285 21.4716Z" fill="#E3E2DD"/>
<path d="M307.79 27.8714L307.789 27.8684C307.787 27.8529 307.784 27.8377 307.778 27.823L307.246 25.5991C307.607 24.9797 307.813 24.2598 307.813 23.4915C307.813 21.1737 305.932 19.2947 303.612 19.2947C301.291 19.2947 299.41 21.1737 299.41 23.4915C299.41 25.8094 301.291 27.6883 303.612 27.6883C304.155 27.6883 304.674 27.5854 305.15 27.398L307.474 28.1092C307.488 28.1153 307.496 28.1197 307.512 28.1227L307.508 28.1236V28.1231C307.59 28.1361 307.658 28.1177 307.713 28.0658C307.768 28.014 307.795 27.9412 307.786 27.8714C307.786 27.8714 307.79 27.8714 307.79 27.8714V27.8714Z" fill="#6B8DA1"/>
<path d="M367.285 12.4716C364.738 12.4716 362.674 14.5386 362.674 17.0884C362.674 17.6852 362.787 18.2555 362.993 18.7791L362.211 21.3325C362.205 21.3485 362.2 21.3651 362.197 21.3821L362.195 21.3867H362.196C362.182 21.4687 362.202 21.543 362.259 21.6037C362.316 21.6644 362.396 21.6891 362.473 21.6796C362.473 21.6797 362.473 21.6796 362.473 21.6796L362.476 21.6789C362.493 21.6765 362.51 21.6725 362.526 21.6668L364.969 21.0815C365.65 21.478 366.441 21.7052 367.285 21.7052C369.832 21.7052 371.896 19.6382 371.896 17.0884C371.896 14.5386 369.832 12.4716 367.285 12.4716Z" fill="#E3E2DD"/>
<path d="M375.79 18.8714L375.789 18.8684C375.787 18.8529 375.784 18.8377 375.778 18.823L375.246 16.5991C375.607 15.9797 375.813 15.2598 375.813 14.4915C375.813 12.1737 373.932 10.2947 371.612 10.2947C369.291 10.2947 367.41 12.1737 367.41 14.4915C367.41 16.8094 369.291 18.6883 371.612 18.6883C372.155 18.6883 372.674 18.5854 373.15 18.398L375.474 19.1092C375.488 19.1153 375.496 19.1197 375.512 19.1227L375.508 19.1236V19.1231C375.59 19.1361 375.658 19.1177 375.713 19.0658C375.768 19.014 375.795 18.9412 375.786 18.8714C375.786 18.8714 375.79 18.8714 375.79 18.8714V18.8714Z" fill="#6B8DA1"/>
<path d="M11.285 61.4716C8.7383 61.4716 6.67376 63.5386 6.67376 66.0884C6.67376 66.6852 6.78688 67.2555 6.99278 67.7791L6.21132 70.3325C6.20476 70.3485 6.1998 70.3651 6.1965 70.3821L6.19549 70.3867H6.19606C6.18179 70.4687 6.20197 70.543 6.25898 70.6037C6.31594 70.6644 6.39592 70.6891 6.47265 70.6796C6.47259 70.6797 6.47265 70.6796 6.47265 70.6796L6.47587 70.6789C6.49288 70.6765 6.50961 70.6725 6.5258 70.6668L8.96924 70.0815C9.6498 70.478 10.4409 70.7052 11.285 70.7052C13.8318 70.7052 15.8963 68.6382 15.8963 66.0884C15.8963 63.5386 13.8318 61.4716 11.285 61.4716Z" fill="#E3E2DD"/>
<path d="M19.7898 67.8714L19.7893 67.8684C19.7872 67.8529 19.7836 67.8377 19.7784 67.823L19.2457 65.5991C19.6066 64.9797 19.8134 64.2598 19.8134 63.4915C19.8134 61.1737 17.9322 59.2947 15.6116 59.2947C13.2909 59.2947 11.4097 61.1737 11.4097 63.4915C11.4097 65.8094 13.2909 67.6883 15.6116 67.6883C16.1547 67.6883 16.6737 67.5854 17.1502 67.398L19.4742 68.1092C19.4884 68.1153 19.4965 68.1197 19.5115 68.1227L19.5079 68.1236V68.1231C19.5899 68.1361 19.6579 68.1177 19.7132 68.0658C19.7685 68.014 19.7948 67.9412 19.7862 67.8714C19.7863 67.8714 19.7898 67.8714 19.7898 67.8714V67.8714Z" fill="#866BA1"/>
<path d="M21.2484 99C18.6242 99 16.4968 101.015 16.4968 103.5C16.4968 104.082 16.6133 104.638 16.8255 105.148L16.0203 107.637C16.0135 107.652 16.0084 107.667 16.005 107.683L16.0039 107.686H16.0045C15.9898 107.762 16.0106 107.84 16.0694 107.899C16.1281 107.958 16.2105 107.983 16.2895 107.974C16.2895 107.974 16.2895 107.974 16.2895 107.975L16.2929 107.974C16.3103 107.972 16.3275 107.968 16.3443 107.962L18.8621 107.392C19.5634 107.778 20.3785 108 21.2484 108C23.8726 108 26 105.985 26 103.5C26 101.015 23.8727 99 21.2484 99Z" fill="#E3E2DD"/>
<path d="M33 120C33 120 24.5 119 21 125.5C18.0377 131.001 17 136.5 17 162.5" stroke="#A7A7A7" stroke-width="2"/>
<path d="M139 25C139.921 28.9032 145 34.5 156 34.5C167 34.5 172 25.5 171.5 24.5" stroke="#A7A7A7" stroke-width="2"/>
<defs>
<clipPath id="clip0_468_53911">
<rect width="10" height="11" fill="white" transform="translate(12 165)"/>
</clipPath>
<clipPath id="clip1_468_53911">
<rect width="10" height="11" fill="white" transform="translate(29 136)"/>
</clipPath>
<clipPath id="clip2_468_53911">
<rect width="10" height="11" fill="white" transform="translate(65 10)"/>
</clipPath>
<clipPath id="clip3_468_53911">
<rect width="10" height="11" fill="white" transform="translate(150 19)"/>
</clipPath>
<clipPath id="clip4_468_53911">
<rect width="10" height="11" fill="white" transform="translate(235 2)"/>
</clipPath>
<clipPath id="clip5_468_53911">
<rect width="10" height="11" fill="white" transform="translate(335 21)"/>
</clipPath>
<clipPath id="clip6_468_53911">
<rect width="10" height="11" fill="white" transform="translate(312 4)"/>
</clipPath>
</defs>
</svg>
