<svg width="50" height="16" viewBox="0 0 50 16" fill="none" xmlns="http://www.w3.org/2000/svg">
<path d="M11.0703 9.50977V3.46875H12.1953V9.50977C12.1953 10.0723 12.0801 10.5469 11.8496 10.9336C11.6191 11.3203 11.3008 11.6152 10.8945 11.8184C10.4922 12.0176 10.0293 12.1172 9.50586 12.1172C8.98242 12.1172 8.51758 12.0273 8.11133 11.8477C7.70508 11.668 7.38672 11.3945 7.15625 11.0273C6.92578 10.6602 6.81055 10.1973 6.81055 9.63867H7.94141C7.94141 9.99805 8.00781 10.293 8.14062 10.5234C8.27344 10.7539 8.45703 10.9238 8.69141 11.0332C8.92969 11.1426 9.20117 11.1973 9.50586 11.1973C9.80273 11.1973 10.0684 11.1348 10.3027 11.0098C10.541 10.8809 10.7285 10.6914 10.8652 10.4414C11.002 10.1875 11.0703 9.87695 11.0703 9.50977ZM13.6722 8.90039V8.76562C13.6722 8.30859 13.7386 7.88477 13.8714 7.49414C14.0042 7.09961 14.1956 6.75781 14.4456 6.46875C14.6956 6.17578 14.9983 5.94922 15.3538 5.78906C15.7093 5.625 16.1077 5.54297 16.5491 5.54297C16.9944 5.54297 17.3948 5.625 17.7503 5.78906C18.1097 5.94922 18.4143 6.17578 18.6643 6.46875C18.9183 6.75781 19.1116 7.09961 19.2444 7.49414C19.3772 7.88477 19.4436 8.30859 19.4436 8.76562V8.90039C19.4436 9.35742 19.3772 9.78125 19.2444 10.1719C19.1116 10.5625 18.9183 10.9043 18.6643 11.1973C18.4143 11.4863 18.1116 11.7129 17.7561 11.877C17.4046 12.0371 17.0061 12.1172 16.5608 12.1172C16.1155 12.1172 15.7151 12.0371 15.3597 11.877C15.0042 11.7129 14.6995 11.4863 14.4456 11.1973C14.1956 10.9043 14.0042 10.5625 13.8714 10.1719C13.7386 9.78125 13.6722 9.35742 13.6722 8.90039ZM14.7561 8.76562V8.90039C14.7561 9.2168 14.7933 9.51562 14.8675 9.79688C14.9417 10.0742 15.053 10.3203 15.2015 10.5352C15.3538 10.75 15.5433 10.9199 15.7698 11.0449C15.9964 11.166 16.26 11.2266 16.5608 11.2266C16.8577 11.2266 17.1175 11.166 17.3401 11.0449C17.5667 10.9199 17.7542 10.75 17.9026 10.5352C18.0511 10.3203 18.1624 10.0742 18.2366 9.79688C18.3147 9.51562 18.3538 9.2168 18.3538 8.90039V8.76562C18.3538 8.45312 18.3147 8.1582 18.2366 7.88086C18.1624 7.59961 18.0491 7.35156 17.8968 7.13672C17.7483 6.91797 17.5608 6.74609 17.3343 6.62109C17.1116 6.49609 16.8499 6.43359 16.5491 6.43359C16.2522 6.43359 15.9905 6.49609 15.764 6.62109C15.5413 6.74609 15.3538 6.91797 15.2015 7.13672C15.053 7.35156 14.9417 7.59961 14.8675 7.88086C14.7933 8.1582 14.7561 8.45312 14.7561 8.76562ZM21.9928 5.66016V12H20.9029V5.66016H21.9928ZM20.8209 3.97852C20.8209 3.80273 20.8736 3.6543 20.9791 3.5332C21.0885 3.41211 21.2486 3.35156 21.4595 3.35156C21.6666 3.35156 21.8248 3.41211 21.9342 3.5332C22.0474 3.6543 22.1041 3.80273 22.1041 3.97852C22.1041 4.14648 22.0474 4.29102 21.9342 4.41211C21.8248 4.5293 21.6666 4.58789 21.4595 4.58789C21.2486 4.58789 21.0885 4.5293 20.9791 4.41211C20.8736 4.29102 20.8209 4.14648 20.8209 3.97852ZM24.829 7.01367V12H23.745V5.66016H24.7704L24.829 7.01367ZM24.5712 8.58984L24.12 8.57227C24.1239 8.13867 24.1883 7.73828 24.3133 7.37109C24.4383 7 24.6141 6.67773 24.8407 6.4043C25.0672 6.13086 25.3368 5.91992 25.6493 5.77148C25.9657 5.61914 26.3153 5.54297 26.6981 5.54297C27.0106 5.54297 27.2919 5.58594 27.5419 5.67188C27.7919 5.75391 28.0047 5.88672 28.1805 6.07031C28.3602 6.25391 28.4969 6.49219 28.5907 6.78516C28.6844 7.07422 28.7313 7.42773 28.7313 7.8457V12H27.6415V7.83398C27.6415 7.50195 27.5926 7.23633 27.495 7.03711C27.3973 6.83398 27.2547 6.6875 27.0672 6.59766C26.8797 6.50391 26.6493 6.45703 26.3758 6.45703C26.1063 6.45703 25.8602 6.51367 25.6376 6.62695C25.4188 6.74023 25.2294 6.89648 25.0692 7.0957C24.913 7.29492 24.7899 7.52344 24.7001 7.78125C24.6141 8.03516 24.5712 8.30469 24.5712 8.58984ZM33.0207 12.1172C32.5793 12.1172 32.1789 12.043 31.8195 11.8945C31.464 11.7422 31.1574 11.5293 30.8996 11.2559C30.6457 10.9824 30.4503 10.6582 30.3136 10.2832C30.1769 9.9082 30.1085 9.49805 30.1085 9.05273V8.80664C30.1085 8.29102 30.1847 7.83203 30.3371 7.42969C30.4894 7.02344 30.6964 6.67969 30.9582 6.39844C31.2199 6.11719 31.5168 5.9043 31.8488 5.75977C32.1808 5.61523 32.5246 5.54297 32.88 5.54297C33.3332 5.54297 33.7238 5.62109 34.0519 5.77734C34.3839 5.93359 34.6554 6.15234 34.8664 6.43359C35.0773 6.71094 35.2335 7.03906 35.3351 7.41797C35.4367 7.79297 35.4875 8.20312 35.4875 8.64844V9.13477H30.7531V8.25H34.4035V8.16797C34.3878 7.88672 34.3293 7.61328 34.2277 7.34766C34.13 7.08203 33.9738 6.86328 33.7589 6.69141C33.5441 6.51953 33.2511 6.43359 32.88 6.43359C32.6339 6.43359 32.4074 6.48633 32.2003 6.5918C31.9933 6.69336 31.8156 6.8457 31.6671 7.04883C31.5187 7.25195 31.4035 7.5 31.3214 7.79297C31.2394 8.08594 31.1984 8.42383 31.1984 8.80664V9.05273C31.1984 9.35352 31.2394 9.63672 31.3214 9.90234C31.4074 10.1641 31.5304 10.3945 31.6906 10.5938C31.8546 10.793 32.0519 10.9492 32.2824 11.0625C32.5168 11.1758 32.7824 11.2324 33.0793 11.2324C33.4621 11.2324 33.7863 11.1543 34.0519 10.998C34.3175 10.8418 34.55 10.6328 34.7492 10.3711L35.4054 10.8926C35.2687 11.0996 35.0949 11.2969 34.8839 11.4844C34.673 11.6719 34.4132 11.8242 34.1046 11.9414C33.8 12.0586 33.4386 12.1172 33.0207 12.1172ZM40.7612 10.7695V3H41.851V12H40.8549L40.7612 10.7695ZM36.4955 8.90039V8.77734C36.4955 8.29297 36.5541 7.85352 36.6713 7.45898C36.7924 7.06055 36.9623 6.71875 37.1811 6.43359C37.4037 6.14844 37.6674 5.92969 37.9721 5.77734C38.2807 5.62109 38.6245 5.54297 39.0034 5.54297C39.4018 5.54297 39.7495 5.61328 40.0463 5.75391C40.3471 5.89062 40.601 6.0918 40.808 6.35742C41.019 6.61914 41.185 6.93555 41.3061 7.30664C41.4272 7.67773 41.5112 8.09766 41.558 8.56641V9.10547C41.5151 9.57031 41.4311 9.98828 41.3061 10.3594C41.185 10.7305 41.019 11.0469 40.808 11.3086C40.601 11.5703 40.3471 11.7715 40.0463 11.9121C39.7455 12.0488 39.394 12.1172 38.9916 12.1172C38.6205 12.1172 38.2807 12.0371 37.9721 11.877C37.6674 11.7168 37.4037 11.4922 37.1811 11.2031C36.9623 10.9141 36.7924 10.5742 36.6713 10.1836C36.5541 9.78906 36.4955 9.36133 36.4955 8.90039ZM37.5854 8.77734V8.90039C37.5854 9.2168 37.6166 9.51367 37.6791 9.79102C37.7455 10.0684 37.8471 10.3125 37.9838 10.5234C38.1205 10.7344 38.2944 10.9004 38.5053 11.0215C38.7162 11.1387 38.9682 11.1973 39.2612 11.1973C39.6205 11.1973 39.9155 11.1211 40.1459 10.9688C40.3803 10.8164 40.5678 10.6152 40.7084 10.3652C40.8491 10.1152 40.9584 9.84375 41.0366 9.55078V8.13867C40.9897 7.92383 40.9213 7.7168 40.8315 7.51758C40.7455 7.31445 40.6323 7.13477 40.4916 6.97852C40.3549 6.81836 40.185 6.69141 39.9819 6.59766C39.7827 6.50391 39.5463 6.45703 39.2729 6.45703C38.976 6.45703 38.7202 6.51953 38.5053 6.64453C38.2944 6.76562 38.1205 6.93359 37.9838 7.14844C37.8471 7.35938 37.7455 7.60547 37.6791 7.88672C37.6166 8.16406 37.5854 8.46094 37.5854 8.77734Z" fill="#ED702D"/>
<rect x="0.875" y="0.375" width="48.25" height="15.25" rx="7.625" stroke="#ED702D" stroke-width="0.75"/>
</svg>
