<svg width="47" height="16" viewBox="0 0 47 16" fill="none" xmlns="http://www.w3.org/2000/svg">
<path d="M8.41602 3V12H7.32617V3H8.41602ZM12.2891 5.66016L9.52344 8.61914L7.97656 10.2246L7.88867 9.07031L8.99609 7.74609L10.9648 5.66016H12.2891ZM11.2988 12L9.03711 8.97656L9.59961 8.00977L12.5762 12H11.2988ZM17.1585 10.916V7.65234C17.1585 7.40234 17.1077 7.18555 17.0061 7.00195C16.9085 6.81445 16.76 6.66992 16.5608 6.56836C16.3616 6.4668 16.1155 6.41602 15.8225 6.41602C15.5491 6.41602 15.3089 6.46289 15.1018 6.55664C14.8987 6.65039 14.7386 6.77344 14.6214 6.92578C14.5081 7.07812 14.4515 7.24219 14.4515 7.41797H13.3675C13.3675 7.19141 13.4261 6.9668 13.5433 6.74414C13.6604 6.52148 13.8284 6.32031 14.0472 6.14062C14.2698 5.95703 14.5354 5.8125 14.844 5.70703C15.1565 5.59766 15.5042 5.54297 15.887 5.54297C16.3479 5.54297 16.7542 5.62109 17.1058 5.77734C17.4612 5.93359 17.7386 6.16992 17.9378 6.48633C18.1409 6.79883 18.2425 7.19141 18.2425 7.66406V10.6172C18.2425 10.8281 18.26 11.0527 18.2952 11.291C18.3343 11.5293 18.3909 11.7344 18.4651 11.9062V12H17.3343C17.2796 11.875 17.2366 11.709 17.2054 11.502C17.1741 11.291 17.1585 11.0957 17.1585 10.916ZM17.346 8.15625L17.3577 8.91797H16.262C15.9534 8.91797 15.678 8.94336 15.4358 8.99414C15.1936 9.04102 14.9905 9.11328 14.8265 9.21094C14.6624 9.30859 14.5374 9.43164 14.4515 9.58008C14.3655 9.72461 14.3225 9.89453 14.3225 10.0898C14.3225 10.2891 14.3675 10.4707 14.4573 10.6348C14.5472 10.7988 14.6819 10.9297 14.8616 11.0273C15.0452 11.1211 15.2698 11.168 15.5354 11.168C15.8675 11.168 16.1604 11.0977 16.4143 10.957C16.6683 10.8164 16.8694 10.6445 17.0179 10.4414C17.1702 10.2383 17.2522 10.041 17.264 9.84961L17.7268 10.3711C17.6995 10.5352 17.6253 10.7168 17.5042 10.916C17.3831 11.1152 17.221 11.3066 17.0179 11.4902C16.8186 11.6699 16.5804 11.8203 16.303 11.9414C16.0296 12.0586 15.721 12.1172 15.3772 12.1172C14.9475 12.1172 14.5706 12.0332 14.2464 11.8652C13.9261 11.6973 13.6761 11.4727 13.4964 11.1914C13.3206 10.9062 13.2327 10.5879 13.2327 10.2363C13.2327 9.89648 13.2991 9.59766 13.4319 9.33984C13.5647 9.07812 13.7561 8.86133 14.0061 8.68945C14.2561 8.51367 14.5569 8.38086 14.9085 8.29102C15.26 8.20117 15.6526 8.15625 16.0862 8.15625H17.346ZM21.0435 6.65625V12H19.9595V5.66016H21.0142L21.0435 6.65625ZM23.024 5.625L23.0181 6.63281C22.9283 6.61328 22.8424 6.60156 22.7603 6.59766C22.6822 6.58984 22.5924 6.58594 22.4908 6.58594C22.2408 6.58594 22.0201 6.625 21.8287 6.70312C21.6373 6.78125 21.4752 6.89062 21.3424 7.03125C21.2095 7.17188 21.1041 7.33984 21.026 7.53516C20.9517 7.72656 20.9029 7.9375 20.8795 8.16797L20.5748 8.34375C20.5748 7.96094 20.6119 7.60156 20.6861 7.26562C20.7642 6.92969 20.8834 6.63281 21.0435 6.375C21.2037 6.11328 21.4068 5.91016 21.6529 5.76562C21.9029 5.61719 22.1998 5.54297 22.5435 5.54297C22.6217 5.54297 22.7115 5.55273 22.8131 5.57227C22.9146 5.58789 22.9849 5.60547 23.024 5.625ZM25.1161 6.91992V12H24.0262V5.66016H25.0575L25.1161 6.91992ZM24.8934 8.58984L24.3895 8.57227C24.3934 8.13867 24.4501 7.73828 24.5594 7.37109C24.6688 7 24.8309 6.67773 25.0458 6.4043C25.2606 6.13086 25.5282 5.91992 25.8485 5.77148C26.1688 5.61914 26.5399 5.54297 26.9618 5.54297C27.2587 5.54297 27.5321 5.58594 27.7821 5.67188C28.0321 5.75391 28.2489 5.88477 28.4325 6.06445C28.6161 6.24414 28.7587 6.47461 28.8602 6.75586C28.9618 7.03711 29.0126 7.37695 29.0126 7.77539V12H27.9286V7.82812C27.9286 7.49609 27.8719 7.23047 27.7587 7.03125C27.6493 6.83203 27.493 6.6875 27.2899 6.59766C27.0868 6.50391 26.8485 6.45703 26.5751 6.45703C26.2547 6.45703 25.9872 6.51367 25.7723 6.62695C25.5575 6.74023 25.3856 6.89648 25.2567 7.0957C25.1278 7.29492 25.034 7.52344 24.9755 7.78125C24.9208 8.03516 24.8934 8.30469 24.8934 8.58984ZM29.0008 7.99219L28.2743 8.21484C28.2782 7.86719 28.3348 7.5332 28.4442 7.21289C28.5575 6.89258 28.7196 6.60742 28.9305 6.35742C29.1454 6.10742 29.409 5.91016 29.7215 5.76562C30.034 5.61719 30.3915 5.54297 30.7938 5.54297C31.1337 5.54297 31.4344 5.58789 31.6962 5.67773C31.9618 5.76758 32.1844 5.90625 32.3641 6.09375C32.5477 6.27734 32.6864 6.51367 32.7801 6.80273C32.8739 7.0918 32.9208 7.43555 32.9208 7.83398V12H31.8309V7.82227C31.8309 7.4668 31.7743 7.19141 31.661 6.99609C31.5516 6.79688 31.3954 6.6582 31.1922 6.58008C30.993 6.49805 30.7547 6.45703 30.4774 6.45703C30.2391 6.45703 30.0282 6.49805 29.8446 6.58008C29.661 6.66211 29.5067 6.77539 29.3817 6.91992C29.2567 7.06055 29.161 7.22266 29.0946 7.40625C29.0321 7.58984 29.0008 7.78516 29.0008 7.99219ZM38.3117 10.916V7.65234C38.3117 7.40234 38.2609 7.18555 38.1593 7.00195C38.0617 6.81445 37.9132 6.66992 37.714 6.56836C37.5148 6.4668 37.2687 6.41602 36.9757 6.41602C36.7023 6.41602 36.4621 6.46289 36.255 6.55664C36.0519 6.65039 35.8918 6.77344 35.7746 6.92578C35.6613 7.07812 35.6046 7.24219 35.6046 7.41797H34.5207C34.5207 7.19141 34.5793 6.9668 34.6964 6.74414C34.8136 6.52148 34.9816 6.32031 35.2003 6.14062C35.423 5.95703 35.6886 5.8125 35.9972 5.70703C36.3097 5.59766 36.6574 5.54297 37.0402 5.54297C37.5011 5.54297 37.9074 5.62109 38.2589 5.77734C38.6144 5.93359 38.8918 6.16992 39.091 6.48633C39.2941 6.79883 39.3957 7.19141 39.3957 7.66406V10.6172C39.3957 10.8281 39.4132 11.0527 39.4484 11.291C39.4875 11.5293 39.5441 11.7344 39.6183 11.9062V12H38.4875C38.4328 11.875 38.3898 11.709 38.3585 11.502C38.3273 11.291 38.3117 11.0957 38.3117 10.916ZM38.4992 8.15625L38.5109 8.91797H37.4152C37.1066 8.91797 36.8312 8.94336 36.589 8.99414C36.3468 9.04102 36.1437 9.11328 35.9796 9.21094C35.8156 9.30859 35.6906 9.43164 35.6046 9.58008C35.5187 9.72461 35.4757 9.89453 35.4757 10.0898C35.4757 10.2891 35.5207 10.4707 35.6105 10.6348C35.7003 10.7988 35.8351 10.9297 36.0148 11.0273C36.1984 11.1211 36.423 11.168 36.6886 11.168C37.0207 11.168 37.3136 11.0977 37.5675 10.957C37.8214 10.8164 38.0226 10.6445 38.171 10.4414C38.3234 10.2383 38.4054 10.041 38.4171 9.84961L38.88 10.3711C38.8527 10.5352 38.7785 10.7168 38.6574 10.916C38.5363 11.1152 38.3742 11.3066 38.171 11.4902C37.9718 11.6699 37.7335 11.8203 37.4562 11.9414C37.1828 12.0586 36.8742 12.1172 36.5304 12.1172C36.1007 12.1172 35.7238 12.0332 35.3996 11.8652C35.0793 11.6973 34.8293 11.4727 34.6496 11.1914C34.4738 10.9062 34.3859 10.5879 34.3859 10.2363C34.3859 9.89648 34.4523 9.59766 34.5851 9.33984C34.7179 9.07812 34.9093 8.86133 35.1593 8.68945C35.4093 8.51367 35.7101 8.38086 36.0617 8.29102C36.4132 8.20117 36.8058 8.15625 37.2394 8.15625H38.4992Z" fill="#ED702D"/>
<rect x="0.875" y="0.375" width="45.25" height="15.25" rx="7.625" stroke="#ED702D" stroke-width="0.75"/>
</svg>
