<svg width="24" height="24" viewBox="0 0 24 24" fill="none" xmlns="http://www.w3.org/2000/svg">
<path d="M3.4375 10.625C3.25516 10.625 3.0803 10.5525 2.95136 10.4236C2.82243 10.2947 2.75 10.1198 2.75 9.93747V4.43884C2.75 4.25651 2.82243 4.08164 2.95136 3.95271C3.0803 3.82378 3.25516 3.75134 3.4375 3.75134H8.9375C9.11984 3.75134 9.2947 3.82378 9.42364 3.95271C9.55257 4.08164 9.625 4.25651 9.625 4.43884V9.93747C9.625 10.1198 9.55257 10.2947 9.42364 10.4236C9.2947 10.5525 9.11984 10.625 8.9375 10.625H3.4375ZM13.0625 10.625C12.8802 10.625 12.7053 10.5525 12.5764 10.4236C12.4474 10.2947 12.375 10.1198 12.375 9.93747V4.43884C12.375 4.25651 12.4474 4.08164 12.5764 3.95271C12.7053 3.82378 12.8802 3.75134 13.0625 3.75134H18.5611C18.7435 3.75134 18.9183 3.82378 19.0473 3.95271C19.1762 4.08164 19.2486 4.25651 19.2486 4.43884V9.93747C19.2486 10.1198 19.1762 10.2947 19.0473 10.4236C18.9183 10.5525 18.7435 10.625 18.5611 10.625H13.0625ZM3.4375 20.25C3.25516 20.25 3.0803 20.1775 2.95136 20.0486C2.82243 19.9197 2.75 19.7448 2.75 19.5625V14.0625C2.75 13.8801 2.82243 13.7053 2.95136 13.5763C3.0803 13.4474 3.25516 13.375 3.4375 13.375H8.9375C9.11984 13.375 9.2947 13.4474 9.42364 13.5763C9.55257 13.7053 9.625 13.8801 9.625 14.0625V19.5625C9.625 19.7448 9.55257 19.9197 9.42364 20.0486C9.2947 20.1775 9.11984 20.25 8.9375 20.25H3.4375ZM13.0625 20.25C12.8802 20.25 12.7053 20.1775 12.5764 20.0486C12.4474 19.9197 12.375 19.7448 12.375 19.5625V14.0625C12.375 13.8801 12.4474 13.7053 12.5764 13.5763C12.7053 13.4474 12.8802 13.375 13.0625 13.375H18.5611C18.7435 13.375 18.9183 13.4474 19.0473 13.5763C19.1762 13.7053 19.2486 13.8801 19.2486 14.0625V19.5625C19.2486 19.7448 19.1762 19.9197 19.0473 20.0486C18.9183 20.1775 18.7435 20.25 18.5611 20.25H13.0625Z"/>
</svg>
