<svg width="12" height="12" viewBox="0 0 12 12" fill="none" xmlns="http://www.w3.org/2000/svg">
<circle cx="5.65" cy="5.99998" r="5.05" stroke-width="1.2" stroke="#949494"/>
<path d="M6.00439 7.21874H4.46528V6.24798H6.00439C6.24224 6.24798 6.43584 6.20926 6.58519 6.13182C6.73454 6.05161 6.84378 5.94098 6.91292 5.79993C6.98207 5.65888 7.01664 5.49985 7.01664 5.32285C7.01664 5.14308 6.98207 4.97575 6.91292 4.82087C6.84378 4.66599 6.73454 4.54154 6.58519 4.4475C6.43584 4.35347 6.24224 4.30645 6.00439 4.30645H4.89673V9.37184H3.65216V3.33154H6.00439C6.47733 3.33154 6.8825 3.41728 7.21992 3.58875C7.5601 3.75746 7.82008 3.99116 7.99985 4.28986C8.17962 4.58856 8.2695 4.93012 8.2695 5.31455C8.2695 5.70452 8.17962 6.04193 7.99985 6.3268C7.82008 6.61167 7.5601 6.83154 7.21992 6.98642C6.8825 7.1413 6.47733 7.21874 6.00439 7.21874Z" fill="#949494"/>
</svg>
