<svg width="17" height="12" viewBox="0 0 17 12" fill="none" xmlns="http://www.w3.org/2000/svg">
<path fill-rule="evenodd" clip-rule="evenodd" d="M16 0.649902H15C14.4477 0.649902 14 1.09762 14 1.6499V10.3166C14 10.8689 14.4477 11.3166 15 11.3166H16C16.5523 11.3166 17 10.8689 17 10.3166V1.6499C17 1.09762 16.5523 0.649902 16 0.649902ZM10.3333 2.98324H11.3333C11.8856 2.98324 12.3333 3.43095 12.3333 3.98324V10.3166C12.3333 10.8689 11.8856 11.3166 11.3333 11.3166H10.3333C9.78105 11.3166 9.33333 10.8689 9.33333 10.3166V3.98324C9.33333 3.43095 9.78105 2.98324 10.3333 2.98324ZM6.66667 5.31657H5.66667C5.11438 5.31657 4.66667 5.76428 4.66667 6.31657V10.3166C4.66667 10.8689 5.11438 11.3166 5.66667 11.3166H6.66667C7.21895 11.3166 7.66667 10.8689 7.66667 10.3166V6.31657C7.66667 5.76428 7.21895 5.31657 6.66667 5.31657ZM2 7.31657H1C0.447715 7.31657 0 7.76428 0 8.31657V10.3166C0 10.8689 0.447715 11.3166 1 11.3166H2C2.55228 11.3166 3 10.8689 3 10.3166V8.31657C3 7.76428 2.55228 7.31657 2 7.31657Z" />
</svg>
