<svg width="24" height="25" viewBox="0 0 24 25" fill="none" xmlns="http://www.w3.org/2000/svg">
<path d="M23.8488 11.76L20.6288 8.50648V3.90906C20.6288 3.77507 20.5761 3.64657 20.4823 3.55183C20.3885 3.45708 20.2614 3.40385 20.1288 3.40385H15.5788L12.3588 0.150302C12.2632 0.0540474 12.1337 0 11.9988 0C11.8638 0 11.7343 0.0540474 11.6388 0.150302L8.41875 3.40385H3.86875C3.73614 3.40385 3.60897 3.45708 3.5152 3.55183C3.42143 3.64657 3.36875 3.77507 3.36875 3.90906V8.50648L0.148752 11.76C0.0534901 11.8566 0 11.9874 0 12.1238C0 12.2601 0.0534901 12.3909 0.148752 12.4875L3.36875 15.7411V20.3385C3.36875 20.4725 3.42143 20.601 3.5152 20.6957C3.60897 20.7905 3.73614 20.8437 3.86875 20.8437H8.41875L11.6388 24.0973C11.7343 24.1935 11.8638 24.2476 11.9988 24.2476C12.1337 24.2476 12.2632 24.1935 12.3588 24.0973L15.5788 20.8437H20.1288C20.2614 20.8437 20.3885 20.7905 20.4823 20.6957C20.5761 20.601 20.6288 20.4725 20.6288 20.3385V15.7411L23.8488 12.4875C23.944 12.3909 23.9975 12.2601 23.9975 12.1238C23.9975 11.9874 23.944 11.8566 23.8488 11.76Z" fill="#ED702D"/>
</svg>
