<svg width="21" height="20" viewBox="0 0 21 20" fill="none" xmlns="http://www.w3.org/2000/svg">
<path d="M10.2253 1.66675C5.6303 1.66675 1.89197 5.40508 1.89197 10.0001C1.89197 14.5951 5.6303 18.3334 10.2253 18.3334C14.8203 18.3334 18.5586 14.5951 18.5586 10.0001C18.5586 5.40508 14.8203 1.66675 10.2253 1.66675ZM10.2253 16.6667C6.54947 16.6667 3.55863 13.6759 3.55863 10.0001C3.55863 6.32425 6.54947 3.33341 10.2253 3.33341C13.9011 3.33341 16.892 6.32425 16.892 10.0001C16.892 13.6759 13.9011 16.6667 10.2253 16.6667Z" fill="#B7B7B7"/>
<path d="M11.0586 5.83325H9.39197V10.8333H14.392V9.16659H11.0586V5.83325Z" fill="#B7B7B7"/>
</svg>
