<svg width="25" height="24" viewBox="0 0 25 24" fill="none" xmlns="http://www.w3.org/2000/svg">
<circle cx="12.5" cy="12" r="11.5" fill="white" stroke="#DFDFDF"/>
<path d="M12.5 4.75C16.6417 4.75 20 8.10833 20 12.25C20 16.3917 16.6417 19.75 12.5 19.75C8.35833 19.75 5 16.3917 5 12.25C5 10.175 5.84167 8.30833 7.2 6.95L8.38333 8.13333C7.325 9.18333 6.66667 10.6417 6.66667 12.25C6.66667 15.475 9.275 18.0833 12.5 18.0833C15.725 18.0833 18.3333 15.475 18.3333 12.25C18.3333 9.025 15.725 6.41667 12.5 6.41667L12.5 8.91667L9.14167 5.55L9.25833 5.49167L12.5 2.25L12.5 4.75Z" fill="#B7B7B7"/>
</svg>
